<?xml version="1.0" encoding="UTF-8"?><svg xmlns="http://www.w3.org/2000/svg" xmlns:xlink="http://www.w3.org/1999/xlink" contentScriptType="text/ecmascript" width="1440" zoomAndPan="magnify" contentStyleType="text/css" viewBox="0 0 1440 809.999993" height="809.999993" preserveAspectRatio="xMidYMid meet" version="1.0"><defs><filter x="0%" y="0%" width="100%" xmlns:xlink="http://www.w3.org/1999/xlink" xlink:type="simple" xlink:actuate="onLoad" height="100%" id="filter-remove-color" xlink:show="other"><feColorMatrix values="0 0 0 0 1 0 0 0 0 1 0 0 0 0 1 0 0 0 1 0" color-interpolation-filters="sRGB"/></filter><mask id="mask-0"><g filter="url(#filter-remove-color)"><rect x="-144" width="1728" fill="rgb(0%, 0%, 0%)" y="-80.999999" height="971.999992" fill-opacity="0.2"/></g></mask><clipPath id="clip-0"><path d="M 225 0 L 894 0 L 894 774 L 225 774 Z M 225 0 " clip-rule="nonzero"/></clipPath><clipPath id="clip-1"><path d="M -3.191406 301.324219 L 566.167969 -492.933594 L 1389.078125 96.960938 L 819.71875 891.21875 Z M -3.191406 301.324219 " clip-rule="nonzero"/></clipPath><clipPath id="clip-2"><path d="M -3.191406 301.324219 L 566.167969 -492.933594 L 1389.078125 96.960938 L 819.71875 891.21875 Z M -3.191406 301.324219 " clip-rule="nonzero"/></clipPath><clipPath id="clip-3"><rect x="0" width="894" y="0" height="810"/></clipPath><clipPath id="clip-4"><path d="M 1283 0 L 1440 0 L 1440 145 L 1283 145 Z M 1283 0 " clip-rule="nonzero"/></clipPath><clipPath id="clip-5"><path d="M 1244.5 67.1875 L 1339.234375 -86.746094 L 1498.28125 11.132812 L 1403.542969 165.066406 Z M 1244.5 67.1875 " clip-rule="nonzero"/></clipPath><clipPath id="clip-6"><path d="M 1244.5 67.1875 L 1339.234375 -86.746094 L 1498.28125 11.132812 L 1403.542969 165.066406 Z M 1244.5 67.1875 " clip-rule="nonzero"/></clipPath><clipPath id="clip-7"><path d="M 0 592 L 136 592 L 136 792 L 0 792 Z M 0 592 " clip-rule="nonzero"/></clipPath><clipPath id="clip-8"><path d="M 188.679688 735.757812 L 28.242188 834.234375 L -73.765625 668.046875 L 86.667969 569.566406 Z M 188.679688 735.757812 " clip-rule="nonzero"/></clipPath><clipPath id="clip-9"><path d="M 188.679688 735.757812 L 28.242188 834.234375 L -73.765625 668.046875 L 86.667969 569.566406 Z M 188.679688 735.757812 " clip-rule="nonzero"/></clipPath><mask id="mask-1"><g filter="url(#filter-remove-color)"><rect x="-144" width="1728" fill="rgb(0%, 0%, 0%)" y="-80.999999" height="971.999992" fill-opacity="0.2"/></g></mask><clipPath id="clip-10"><path d="M 0 62 L 659 62 L 659 599 L 0 599 Z M 0 62 " clip-rule="nonzero"/></clipPath><clipPath id="clip-11"><path d="M 774.273438 260.394531 L 519.332031 1020.53125 L -268.535156 756.292969 L -13.597656 -3.847656 Z M 774.273438 260.394531 " clip-rule="nonzero"/></clipPath><clipPath id="clip-12"><path d="M 774.273438 260.394531 L 519.332031 1020.53125 L -268.535156 756.292969 L -13.597656 -3.847656 Z M 774.273438 260.394531 " clip-rule="nonzero"/></clipPath><clipPath id="clip-13"><rect x="0" width="773" y="0" height="599"/></clipPath></defs><rect x="-144" width="1728" fill="rgb(100%, 100%, 100%)" y="-80.999999" height="971.999992" fill-opacity="1"/><rect x="-144" width="1728" fill="rgb(100%, 100%, 100%)" y="-80.999999" height="971.999992" fill-opacity="1"/><rect x="-144" width="1728" fill="rgb(1.568604%, 20.388794%, 36.079407%)" y="-80.999999" height="971.999992" fill-opacity="1"/><g mask="url(#mask-0)"><g transform="matrix(1, 0, 0, 1, 546, 0.000000000000039746)"><g id="source-5" clip-path="url(#clip-3)"><g clip-path="url(#clip-0)"><g clip-path="url(#clip-1)"><g clip-path="url(#clip-2)"><path fill="rgb(41.958618%, 83.139038%, 80.389404%)" d="M 951.21875 -202.472656 C 857.980469 -245.664062 753.316406 -251.734375 651.992188 -245.449219 C 562.59375 -239.832031 472.984375 -221.417969 393.65625 -178.457031 C 355.167969 -157.753906 315.046875 -131.992188 287.496094 -97.722656 C 260.058594 -63.617188 241.429688 -22.699219 232.394531 20.113281 C 223.003906 63.417969 223.792969 109.539062 235.59375 152.105469 C 248.769531 200.386719 276.496094 241.917969 303.253906 283.753906 C 364.132812 378.675781 403.171875 485.328125 463.582031 580.910156 C 516.953125 665.472656 592.050781 741.960938 692.378906 766.578125 C 788.144531 789.921875 880.875 750.839844 950.273438 684.582031 C 1029.378906 608.601562 1076.574219 505.265625 1101.339844 399.539062 C 1113.921875 346.570312 1121.097656 292.464844 1125.921875 238.167969 C 1130.554688 184.484375 1134.8125 130.28125 1134.0625 76.46875 C 1133.421875 27.710938 1125.675781 -20.160156 1102.445312 -63.449219 C 1080.4375 -104.617188 1048.070312 -140.019531 1010.328125 -167.570312 C 991.539062 -181.289062 971.546875 -192.632812 951.21875 -202.472656 " fill-opacity="1" fill-rule="nonzero"/></g></g></g></g></g></g><g clip-path="url(#clip-4)"><g clip-path="url(#clip-5)"><g clip-path="url(#clip-6)"><path fill="rgb(41.958618%, 83.139038%, 80.389404%)" d="M 1413.839844 -38.285156 C 1396.121094 -45.015625 1376.769531 -44.753906 1358.191406 -42.257812 C 1341.800781 -40.039062 1325.53125 -35.464844 1311.472656 -26.496094 C 1304.648438 -22.171875 1297.585938 -16.894531 1292.949219 -10.210938 C 1288.332031 -3.5625 1285.421875 4.226562 1284.304688 12.238281 C 1283.125 20.34375 1283.859375 28.835938 1286.570312 36.527344 C 1289.613281 45.253906 1295.246094 52.542969 1300.707031 59.902344 C 1313.125 76.597656 1321.671875 95.742188 1334.011719 112.566406 C 1344.917969 127.449219 1359.71875 140.558594 1378.507812 143.773438 C 1396.441406 146.8125 1413.019531 138.382812 1424.953125 125.25 C 1438.554688 110.199219 1445.929688 90.527344 1449.144531 70.710938 C 1450.789062 60.78125 1451.421875 50.710938 1451.617188 40.640625 C 1451.789062 30.679688 1451.882812 20.632812 1451.058594 10.722656 C 1450.320312 1.742188 1448.285156 -6.980469 1443.457031 -14.652344 C 1438.878906 -21.953125 1432.46875 -28.050781 1425.167969 -32.632812 C 1421.53125 -34.910156 1417.707031 -36.738281 1413.839844 -38.285156 " fill-opacity="1" fill-rule="nonzero"/></g></g></g><g clip-path="url(#clip-7)"><g clip-path="url(#clip-8)"><g clip-path="url(#clip-9)"><path fill="rgb(41.958618%, 83.139038%, 80.389404%)" d="M -18.410156 753.910156 C -5.085938 768.542969 13.042969 777.4375 31.5 783.890625 C 47.792969 789.570312 65.078125 792.996094 82.371094 791.292969 C 90.753906 790.492188 99.800781 788.917969 107.253906 784.890625 C 114.671875 780.886719 121.039062 775.011719 125.839844 768.085938 C 130.746094 761.101562 134.050781 752.851562 135.136719 744.414062 C 136.40625 734.859375 134.585938 725.414062 132.964844 715.988281 C 129.25 694.589844 130.289062 672.738281 126.707031 651.257812 C 123.550781 632.257812 115.933594 613.070312 99.960938 601.207031 C 84.703125 589.90625 65.320312 589.921875 48.046875 596.5 C 28.324219 604.078125 12.226562 618.898438 -0.0742188 635.820312 C -6.265625 644.285156 -11.582031 653.351562 -16.496094 662.632812 C -21.332031 671.816406 -26.136719 681.121094 -30.027344 690.730469 C -33.554688 699.433594 -35.757812 708.511719 -34.867188 717.933594 C -34.039062 726.886719 -30.9375 735.589844 -26.296875 743.300781 C -23.984375 747.136719 -21.28125 750.644531 -18.410156 753.910156 " fill-opacity="1" fill-rule="nonzero"/></g></g></g><g mask="url(#mask-1)"><g transform="matrix(1, 0, 0, 1, 0, 211)"><g id="source-8" clip-path="url(#clip-13)"><g clip-path="url(#clip-10)"><g clip-path="url(#clip-11)"><g clip-path="url(#clip-12)"><path fill="rgb(41.958618%, 83.139038%, 80.389404%)" d="M 147.191406 885.566406 C 230.753906 896.957031 314.320312 876.488281 392.285156 847.136719 C 461.054688 821.179688 526.90625 785.136719 578.765625 732.324219 C 603.957031 706.804688 629.214844 676.933594 642.554688 643.417969 C 655.847656 610.054688 660.582031 573.476562 657.339844 537.722656 C 654.253906 501.496094 642.507812 465.515625 622.976562 434.980469 C 600.988281 400.292969 569.21875 374.40625 538.132812 348.046875 C 467.46875 288.28125 411.109375 214.054688 340.652344 153.65625 C 278.378906 100.207031 201.011719 58.328125 116.371094 63.203125 C 35.617188 67.984375 -27.691406 120.988281 -66.140625 189.679688 C -109.855469 268.335938 -121.9375 360.753906 -115.851562 449.632812 C -112.9375 494.207031 -105.507812 538.367188 -96.1875 582.113281 C -86.867188 625.332031 -77.128906 668.867188 -63.554688 710.886719 C -51.28125 748.96875 -33.652344 784.644531 -4.984375 812.992188 C 22.214844 839.972656 56.148438 859.933594 92.402344 872.441406 C 110.453125 878.671875 128.875 882.75 147.191406 885.566406 " fill-opacity="1" fill-rule="nonzero"/></g></g></g></g></g></g><path fill="rgb(41.958618%, 83.139038%, 80.389404%)" d="M 206.574219 729 C 180.894531 729 160.074219 749.820312 160.074219 775.5 C 160.074219 801.179688 180.894531 822 206.574219 822 C 232.257812 822 253.074219 801.179688 253.074219 775.5 C 253.074219 749.820312 232.257812 729 206.574219 729 Z M 206.574219 729 " fill-opacity="1" fill-rule="nonzero"/><path fill="rgb(41.958618%, 83.139038%, 80.389404%)" d="M 1381.5 183.582031 C 1369.074219 183.582031 1359 193.65625 1359 206.082031 C 1359 218.507812 1369.074219 228.582031 1381.5 228.582031 C 1393.925781 228.582031 1404 218.507812 1404 206.082031 C 1404 193.65625 1393.925781 183.582031 1381.5 183.582031 Z M 1381.5 183.582031 " fill-opacity="1" fill-rule="nonzero"/></svg>