<?xml version="1.0" encoding="UTF-8"?><svg xmlns="http://www.w3.org/2000/svg" xmlns:xlink="http://www.w3.org/1999/xlink" contentScriptType="text/ecmascript" width="1440" zoomAndPan="magnify" contentStyleType="text/css" viewBox="0 0 1440 809.999993" height="809.999993" preserveAspectRatio="xMidYMid meet" version="1.0"><defs><filter x="0%" y="0%" width="100%" xmlns:xlink="http://www.w3.org/1999/xlink" xlink:type="simple" xlink:actuate="onLoad" height="100%" id="filter-remove-color" xlink:show="other"><feColorMatrix values="0 0 0 0 1 0 0 0 0 1 0 0 0 0 1 0 0 0 1 0" color-interpolation-filters="sRGB"/></filter><mask id="mask-0"><g filter="url(#filter-remove-color)"><rect x="-144" width="1728" fill="rgb(0%, 0%, 0%)" y="-80.999999" height="971.999992" fill-opacity="0.098"/></g></mask><clipPath id="clip-0"><path d="M 0 0 L 1052 0 L 1052 810 L 0 810 Z M 0 0 " clip-rule="nonzero"/></clipPath><clipPath id="clip-1"><path d="M 1168.277344 87.109375 L 922.433594 1166.464844 L -196.414062 911.628906 L 49.429688 -167.730469 Z M 1168.277344 87.109375 " clip-rule="nonzero"/></clipPath><clipPath id="clip-2"><path d="M 1168.277344 87.109375 L 922.433594 1166.464844 L -196.414062 911.628906 L 49.429688 -167.730469 Z M 1168.277344 87.109375 " clip-rule="nonzero"/></clipPath><clipPath id="clip-3"><rect x="0" width="1166" y="0" height="810"/></clipPath><mask id="mask-1"><g filter="url(#filter-remove-color)"><rect x="-144" width="1728" fill="rgb(0%, 0%, 0%)" y="-80.999999" height="971.999992" fill-opacity="0.098"/></g></mask><clipPath id="clip-4"><path d="M 38 70 L 529 70 L 529 542 L 38 542 Z M 38 70 " clip-rule="nonzero"/></clipPath><clipPath id="clip-5"><path d="M 160.128906 -1.019531 L 622.496094 155.839844 L 460.097656 634.542969 L -2.269531 477.683594 Z M 160.128906 -1.019531 " clip-rule="nonzero"/></clipPath><clipPath id="clip-6"><path d="M 160.128906 -1.019531 L 622.496094 155.839844 L 460.097656 634.542969 L -2.269531 477.683594 Z M 160.128906 -1.019531 " clip-rule="nonzero"/></clipPath><clipPath id="clip-7"><rect x="0" width="529" y="0" height="572"/></clipPath><clipPath id="clip-8"><path d="M 1377 521 L 1440 521 L 1440 692 L 1377 692 Z M 1377 521 " clip-rule="nonzero"/></clipPath><clipPath id="clip-9"><path d="M 1371 524.886719 L 1535.089844 517.621094 L 1542.621094 687.703125 L 1378.53125 694.96875 Z M 1371 524.886719 " clip-rule="nonzero"/></clipPath><clipPath id="clip-10"><path d="M 1371 524.886719 L 1535.089844 517.621094 L 1542.621094 687.703125 L 1378.53125 694.96875 Z M 1371 524.886719 " clip-rule="nonzero"/></clipPath><clipPath id="clip-11"><path d="M 67 0 L 277 0 L 277 80 L 67 80 Z M 67 0 " clip-rule="nonzero"/></clipPath><clipPath id="clip-12"><path d="M 162.242188 130.558594 L 15.097656 -4.160156 L 154.882812 -156.832031 L 302.023438 -22.113281 Z M 162.242188 130.558594 " clip-rule="nonzero"/></clipPath><clipPath id="clip-13"><path d="M 162.242188 130.558594 L 15.097656 -4.160156 L 154.882812 -156.832031 L 302.023438 -22.113281 Z M 162.242188 130.558594 " clip-rule="nonzero"/></clipPath></defs><rect x="-144" width="1728" fill="rgb(100%, 100%, 100%)" y="-80.999999" height="971.999992" fill-opacity="1"/><rect x="-144" width="1728" fill="rgb(100%, 100%, 100%)" y="-80.999999" height="971.999992" fill-opacity="1"/><g mask="url(#mask-0)"><g transform="matrix(1, 0, 0, 1, 0, 0.000000000000039746)"><g id="source-5" clip-path="url(#clip-3)"><g clip-path="url(#clip-0)"><g clip-path="url(#clip-1)"><g clip-path="url(#clip-2)"><path fill="rgb(100%, 100%, 100%)" d="M 392.5625 1032.144531 C 508.941406 1036.320312 620.953125 996.722656 724.042969 945.6875 C 814.96875 900.578125 900.492188 842.019531 964.492188 762.335938 C 995.601562 723.820312 1026.199219 679.308594 1039.925781 631.429688 C 1053.601562 583.769531 1055.085938 532.863281 1045.714844 484.1875 C 1036.5 434.839844 1015.414062 387.019531 984.386719 347.75 C 949.40625 303.113281 902.199219 271.910156 855.863281 239.964844 C 750.554688 167.558594 662.917969 73.316406 557.816406 0.015625 C 464.902344 -64.871094 352.847656 -111.78125 237.222656 -93.457031 C 126.917969 -75.800781 47.21875 5.714844 3.828125 105.371094 C -45.433594 219.4375 -49.335938 348.066406 -28.757812 469.347656 C -18.628906 530.183594 -2.355469 589.835938 16.460938 648.65625 C 35.207031 706.753906 54.570312 765.230469 78.996094 821.097656 C 101.089844 871.730469 130.214844 918.324219 173.496094 953.335938 C 214.578125 986.667969 263.945312 1009.429688 315.480469 1021.640625 C 341.136719 1027.71875 367.007812 1030.789062 392.5625 1032.144531 " fill-opacity="1" fill-rule="nonzero"/></g></g></g></g></g></g><g mask="url(#mask-1)"><g transform="matrix(1, 0, 0, 1, 911, 238)"><g id="source-8" clip-path="url(#clip-7)"><g clip-path="url(#clip-4)"><g clip-path="url(#clip-5)"><g clip-path="url(#clip-6)"><path fill="rgb(1.568604%, 20.388794%, 36.079407%)" d="M 539.605469 381.925781 C 546.703125 331.117188 534.398438 280.230469 516.671875 232.730469 C 500.996094 190.832031 479.175781 150.691406 447.117188 119.015625 C 431.628906 103.632812 413.484375 88.199219 393.101562 80.003906 C 372.8125 71.839844 350.550781 68.875 328.773438 70.765625 C 306.710938 72.558594 284.777344 79.621094 266.148438 91.429688 C 244.984375 104.726562 229.160156 123.996094 213.050781 142.847656 C 176.523438 185.699219 131.21875 219.8125 94.308594 262.535156 C 61.644531 300.296875 35.996094 347.265625 38.804688 398.769531 C 41.5625 447.910156 73.714844 486.546875 115.46875 510.097656 C 163.28125 536.875 219.53125 544.4375 273.664062 540.941406 C 300.808594 539.269531 327.714844 534.855469 354.367188 529.285156 C 380.703125 523.714844 407.230469 517.890625 432.84375 509.730469 C 456.054688 502.355469 477.808594 491.710938 495.125 474.335938 C 511.605469 457.851562 523.824219 437.253906 531.511719 415.226562 C 535.339844 404.261719 537.855469 393.0625 539.605469 381.925781 " fill-opacity="1" fill-rule="nonzero"/></g></g></g></g></g></g><path fill="rgb(1.568604%, 20.388794%, 36.079407%)" d="M 1359 706.5 C 1346.574219 706.5 1336.5 716.574219 1336.5 729 C 1336.5 741.425781 1346.574219 751.5 1359 751.5 C 1371.425781 751.5 1381.5 741.425781 1381.5 729 C 1381.5 716.574219 1371.425781 706.5 1359 706.5 Z M 1359 706.5 " fill-opacity="1" fill-rule="nonzero"/><path fill="rgb(1.568604%, 20.388794%, 36.079407%)" d="M 28.046875 47.585938 C -1.359375 47.585938 -25.203125 71.425781 -25.203125 100.835938 C -25.203125 130.246094 -1.359375 154.085938 28.046875 154.085938 C 57.457031 154.085938 81.296875 130.246094 81.296875 100.835938 C 81.296875 71.425781 57.457031 47.585938 28.046875 47.585938 Z M 28.046875 47.585938 " fill-opacity="1" fill-rule="nonzero"/><g clip-path="url(#clip-8)"><g clip-path="url(#clip-9)"><g clip-path="url(#clip-10)"><path fill="rgb(1.568604%, 20.388794%, 36.079407%)" d="M 1536.707031 598.703125 C 1532.726562 581.890625 1522.65625 567.421875 1511.304688 554.679688 C 1501.273438 543.445312 1489.535156 533.511719 1475.617188 527.488281 C 1468.882812 524.554688 1461.3125 521.925781 1453.921875 521.84375 C 1446.566406 521.761719 1439.222656 523.550781 1432.628906 526.804688 C 1425.929688 530.066406 1419.917969 534.960938 1415.519531 540.945312 C 1410.507812 547.703125 1407.902344 555.683594 1405.152344 563.570312 C 1398.933594 581.480469 1388.898438 597.726562 1382.542969 615.644531 C 1376.910156 631.488281 1374.605469 649.363281 1381.773438 665.183594 C 1388.636719 680.269531 1403.433594 688.46875 1419.398438 690.757812 C 1437.652344 693.320312 1456.210938 688.820312 1472.753906 681.109375 C 1481.058594 677.265625 1488.953125 672.59375 1496.628906 667.589844 C 1504.203125 662.621094 1511.808594 657.554688 1518.839844 651.863281 C 1525.214844 646.710938 1530.738281 640.710938 1534.042969 633.144531 C 1537.199219 625.957031 1538.511719 618 1538.234375 610.144531 C 1538.09375 606.234375 1537.515625 602.414062 1536.707031 598.703125 " fill-opacity="1" fill-rule="nonzero"/></g></g></g><g clip-path="url(#clip-11)"><g clip-path="url(#clip-12)"><g clip-path="url(#clip-13)"><path fill="rgb(1.568604%, 20.388794%, 36.079407%)" d="M 83.433594 -75.25 C 72.390625 -57.378906 68.597656 -36.289062 67.390625 -15.582031 C 66.339844 2.691406 67.878906 21.316406 74.648438 38.449219 C 77.90625 46.757812 82.148438 55.519531 88.425781 61.9375 C 94.667969 68.332031 102.511719 73.097656 110.972656 75.96875 C 119.527344 78.921875 128.898438 79.875 137.820312 78.511719 C 147.9375 77.003906 157.039062 72.386719 166.179688 67.96875 C 186.921875 57.914062 209.507812 52.574219 230.371094 42.628906 C 248.832031 33.84375 266.179688 20.460938 273.632812 0.703125 C 280.710938 -18.164062 275.054688 -37.921875 263.316406 -53.601562 C 249.84375 -71.488281 230.042969 -83.5625 209.207031 -91.144531 C 198.773438 -94.976562 187.976562 -97.742188 177.082031 -100.035156 C 166.304688 -102.273438 155.417969 -104.449219 144.484375 -105.597656 C 134.582031 -106.644531 124.683594 -106.234375 115.332031 -102.566406 C 106.445312 -99.097656 98.472656 -93.386719 91.960938 -86.394531 C 88.71875 -82.917969 85.925781 -79.132812 83.433594 -75.25 " fill-opacity="1" fill-rule="nonzero"/></g></g></g></svg>