<?xml version="1.0" encoding="UTF-8"?><svg xmlns="http://www.w3.org/2000/svg" xmlns:xlink="http://www.w3.org/1999/xlink" contentScriptType="text/ecmascript" width="1440" zoomAndPan="magnify" contentStyleType="text/css" viewBox="0 0 1440 809.999993" height="809.999993" preserveAspectRatio="xMidYMid meet" version="1.0"><defs><filter x="0%" y="0%" width="100%" xmlns:xlink="http://www.w3.org/1999/xlink" xlink:type="simple" xlink:actuate="onLoad" height="100%" id="filter-remove-color" xlink:show="other"><feColorMatrix values="0 0 0 0 1 0 0 0 0 1 0 0 0 0 1 0 0 0 1 0" color-interpolation-filters="sRGB"/></filter><mask id="mask-0"><g filter="url(#filter-remove-color)"><rect x="-144" width="1728" fill="rgb(0%, 0%, 0%)" y="-80.999999" height="971.999992" fill-opacity="0.2"/></g></mask><clipPath id="clip-0"><path d="M 0 0 L 335 0 L 335 674 L 0 674 Z M 0 0 " clip-rule="nonzero"/></clipPath><clipPath id="clip-1"><path d="M 451.46875 591.214844 L -228.039062 755.132812 L -397.9375 50.835938 L 281.570312 -113.082031 Z M 451.46875 591.214844 " clip-rule="nonzero"/></clipPath><clipPath id="clip-2"><path d="M 451.46875 591.214844 L -228.039062 755.132812 L -397.9375 50.835938 L 281.570312 -113.082031 Z M 451.46875 591.214844 " clip-rule="nonzero"/></clipPath><clipPath id="clip-3"><rect x="0" width="449" y="0" height="754"/></clipPath><mask id="mask-1"><g filter="url(#filter-remove-color)"><rect x="-144" width="1728" fill="rgb(0%, 0%, 0%)" y="-80.999999" height="971.999992" fill-opacity="0.2"/></g></mask><clipPath id="clip-4"><path d="M 0 2 L 337 2 L 337 223 L 0 223 Z M 0 2 " clip-rule="nonzero"/></clipPath><clipPath id="clip-5"><path d="M 336.386719 -1.160156 L 339.007812 368.582031 L -44.234375 371.296875 L -46.851562 1.558594 Z M 336.386719 -1.160156 " clip-rule="nonzero"/></clipPath><clipPath id="clip-6"><path d="M 336.386719 -1.160156 L 339.007812 368.582031 L -44.234375 371.296875 L -46.851562 1.558594 Z M 336.386719 -1.160156 " clip-rule="nonzero"/></clipPath><clipPath id="clip-7"><rect x="0" width="339" y="0" height="223"/></clipPath><mask id="mask-2"><g filter="url(#filter-remove-color)"><rect x="-144" width="1728" fill="rgb(0%, 0%, 0%)" y="-80.999999" height="971.999992" fill-opacity="0.2"/></g></mask><clipPath id="clip-8"><path d="M 64 28 L 194 28 L 194 499 L 64 499 Z M 64 28 " clip-rule="nonzero"/></clipPath><clipPath id="clip-9"><path d="M 628.417969 105.054688 L 525.199219 614.449219 L -2.574219 507.511719 L 100.644531 -1.886719 Z M 628.417969 105.054688 " clip-rule="nonzero"/></clipPath><clipPath id="clip-10"><path d="M 628.417969 105.054688 L 525.199219 614.449219 L -2.574219 507.511719 L 100.644531 -1.886719 Z M 628.417969 105.054688 " clip-rule="nonzero"/></clipPath><clipPath id="clip-11"><rect x="0" width="194" y="0" height="499"/></clipPath><mask id="mask-3"><g filter="url(#filter-remove-color)"><rect x="-144" width="1728" fill="rgb(0%, 0%, 0%)" y="-80.999999" height="971.999992" fill-opacity="0.2"/></g></mask><clipPath id="clip-12"><path d="M 99 0 L 711 0 L 711 483 L 99 483 Z M 99 0 " clip-rule="nonzero"/></clipPath><clipPath id="clip-13"><path d="M -1.910156 313.945312 L 218.324219 -438.226562 L 997.847656 -209.980469 L 777.609375 542.1875 Z M -1.910156 313.945312 " clip-rule="nonzero"/></clipPath><clipPath id="clip-14"><path d="M -1.910156 313.945312 L 218.324219 -438.226562 L 997.847656 -209.980469 L 777.609375 542.1875 Z M -1.910156 313.945312 " clip-rule="nonzero"/></clipPath><clipPath id="clip-15"><rect x="0" width="711" y="0" height="538"/></clipPath><clipPath id="clip-16"><path d="M 1321 0 L 1440 0 L 1440 171 L 1321 171 Z M 1321 0 " clip-rule="nonzero"/></clipPath><clipPath id="clip-17"><path d="M 1269.445312 34.398438 L 1422.421875 -70.082031 L 1530.707031 88.46875 L 1377.730469 192.949219 Z M 1269.445312 34.398438 " clip-rule="nonzero"/></clipPath><clipPath id="clip-18"><path d="M 1269.445312 34.398438 L 1422.421875 -70.082031 L 1530.707031 88.46875 L 1377.730469 192.949219 Z M 1269.445312 34.398438 " clip-rule="nonzero"/></clipPath><clipPath id="clip-19"><path d="M 97 718 L 260 718 L 260 810 L 97 810 Z M 97 718 " clip-rule="nonzero"/></clipPath><clipPath id="clip-20"><path d="M 221.835938 675.84375 L 290.839844 811.558594 L 149.773438 883.28125 L 80.769531 747.566406 Z M 221.835938 675.84375 " clip-rule="nonzero"/></clipPath><clipPath id="clip-21"><path d="M 221.835938 675.84375 L 290.839844 811.558594 L 149.773438 883.28125 L 80.769531 747.566406 Z M 221.835938 675.84375 " clip-rule="nonzero"/></clipPath></defs><rect x="-144" width="1728" fill="rgb(100%, 100%, 100%)" y="-80.999999" height="971.999992" fill-opacity="1"/><rect x="-144" width="1728" fill="rgb(1.568604%, 20.388794%, 36.079407%)" y="-80.999999" height="971.999992" fill-opacity="1"/><g mask="url(#mask-0)"><g transform="matrix(1, 0, 0, 1, 0, 0.000000000000039746)"><g id="source-5" clip-path="url(#clip-3)"><g clip-path="url(#clip-0)"><g clip-path="url(#clip-1)"><g clip-path="url(#clip-2)"><path fill="rgb(41.958618%, 83.139038%, 80.389404%)" d="M -300.789062 417.761719 C -270.484375 484.753906 -216.648438 536.984375 -158.847656 580.964844 C -107.8125 619.726562 -50.683594 651.660156 12.351562 665.488281 C 42.867188 672.273438 76.632812 677.082031 107.566406 671.40625 C 138.363281 665.765625 167.570312 652.316406 192.472656 633.355469 C 217.800781 614.289062 238.929688 588.941406 252.429688 560.371094 C 267.859375 528.058594 272.257812 492.601562 277.320312 457.429688 C 288.71875 377.550781 317.425781 301.535156 329.386719 221.519531 C 340.007812 150.757812 335.089844 74.21875 292.269531 13.96875 C 251.320312 -43.460938 182.847656 -65.65625 114.300781 -62.222656 C 35.953125 -58.066406 -37.898438 -24.167969 -100.71875 21.511719 C -132.285156 44.316406 -161.457031 70.261719 -189.445312 97.414062 C -217.046875 124.324219 -244.6875 151.6875 -269.429688 181.183594 C -291.867188 207.890625 -310.046875 237.441406 -317.703125 271.746094 C -325.023438 304.335938 -324.042969 338.644531 -316.484375 371.21875 C -312.71875 387.433594 -307.195312 402.925781 -300.789062 417.761719 " fill-opacity="1" fill-rule="nonzero"/></g></g></g></g></g></g><g mask="url(#mask-1)"><g transform="matrix(1, 0, 0, 1, 0, 587)"><g id="source-8" clip-path="url(#clip-7)"><g clip-path="url(#clip-4)"><g clip-path="url(#clip-5)"><g clip-path="url(#clip-6)"><path fill="rgb(41.958618%, 83.139038%, 80.389404%)" d="M 156.46875 365.4375 C 194.625 357.890625 228.011719 336.449219 257.625 311.972656 C 283.734375 290.351562 307.058594 264.769531 321.773438 233.96875 C 328.941406 219.066406 335.484375 202.253906 336.285156 185.636719 C 337.085938 169.09375 333.675781 152.429688 326.90625 137.320312 C 320.136719 121.980469 309.625 108.042969 296.535156 97.648438 C 281.75 85.8125 264.015625 79.277344 246.507812 72.433594 C 206.734375 56.945312 171.035156 33.007812 131.257812 17.214844 C 96.089844 3.222656 56.070312 -3.457031 19.878906 11.34375 C -14.628906 25.519531 -34.308594 58.121094 -40.792969 93.839844 C -48.082031 134.695312 -39.515625 176.816406 -23.550781 214.675781 C -15.605469 233.679688 -5.75 251.828125 4.863281 269.515625 C 15.402344 286.972656 26.167969 304.503906 38.382812 320.800781 C 49.4375 335.574219 62.46875 348.496094 79.21875 356.566406 C 95.125 364.261719 112.914062 367.886719 130.605469 367.914062 C 139.410156 367.929688 148.054688 366.949219 156.46875 365.4375 " fill-opacity="1" fill-rule="nonzero"/></g></g></g></g></g></g><g mask="url(#mask-2)"><g transform="matrix(1, 0, 0, 1, 1246, 311)"><g id="source-11" clip-path="url(#clip-11)"><g clip-path="url(#clip-8)"><g clip-path="url(#clip-9)"><g clip-path="url(#clip-10)"><path fill="rgb(41.958618%, 83.139038%, 80.389404%)" d="M 275.101562 557.40625 C 329.75 558.046875 381.855469 538.191406 429.648438 513.070312 C 471.796875 490.871094 511.265625 462.414062 540.398438 424.289062 C 554.558594 405.859375 568.414062 384.621094 574.316406 361.992188 C 580.199219 339.46875 580.320312 315.558594 575.378906 292.816406 C 570.5 269.757812 560.070312 247.554688 545.074219 229.472656 C 528.160156 208.917969 505.664062 194.804688 483.566406 180.335938 C 433.347656 147.542969 391.171875 104.300781 341.039062 71.085938 C 296.71875 41.683594 243.621094 20.933594 189.578125 30.84375 C 138.027344 40.382812 101.550781 79.542969 82.3125 126.8125 C 60.484375 180.910156 60.097656 241.328125 71.113281 298.019531 C 76.550781 326.460938 84.855469 354.273438 94.34375 381.667969 C 103.789062 408.726562 113.53125 435.953125 125.617188 461.898438 C 136.550781 485.414062 150.738281 506.953125 171.441406 522.898438 C 191.085938 538.078125 214.503906 548.203125 238.820312 553.347656 C 250.925781 555.910156 263.097656 557.058594 275.101562 557.40625 " fill-opacity="1" fill-rule="nonzero"/></g></g></g></g></g></g><g mask="url(#mask-3)"><g transform="matrix(1, 0, 0, 1, 729, 0.000000000000039746)"><g id="source-14" clip-path="url(#clip-15)"><g clip-path="url(#clip-12)"><g clip-path="url(#clip-13)"><g clip-path="url(#clip-14)"><path fill="rgb(41.958618%, 83.139038%, 80.389404%)" d="M 586.910156 -320.496094 C 504.859375 -328.457031 424.015625 -305.296875 348.976562 -273.667969 C 282.789062 -245.707031 219.835938 -208.003906 171.183594 -154.449219 C 147.542969 -128.570312 124.003906 -98.433594 112.242188 -65.1875 C 100.523438 -32.097656 97.28125 3.8125 101.800781 38.613281 C 106.1875 73.882812 119.023438 108.585938 139.253906 137.671875 C 162.042969 170.71875 194.050781 194.804688 225.410156 219.371094 C 296.695312 275.074219 354.550781 345.441406 425.648438 401.769531 C 488.5 451.617188 565.648438 489.59375 648.132812 481.621094 C 726.828125 473.890625 786.65625 419.71875 821.609375 351.160156 C 861.332031 272.671875 869.632812 181.941406 860.324219 95.351562 C 855.792969 51.921875 846.863281 9.066406 836.105469 -33.308594 C 825.367188 -75.171875 814.207031 -117.328125 799.355469 -157.859375 C 785.929688 -194.589844 767.363281 -228.773438 738.289062 -255.375 C 710.699219 -280.699219 676.804688 -298.910156 640.917969 -309.757812 C 623.050781 -315.15625 604.90625 -318.441406 586.910156 -320.496094 " fill-opacity="1" fill-rule="nonzero"/></g></g></g></g></g></g><path fill="rgb(41.958618%, 83.139038%, 80.389404%)" d="M 58.5 706.5 C 46.074219 706.5 36 716.574219 36 729 C 36 741.425781 46.074219 751.5 58.5 751.5 C 70.925781 751.5 81 741.425781 81 729 C 81 716.574219 70.925781 706.5 58.5 706.5 Z M 58.5 706.5 " fill-opacity="1" fill-rule="nonzero"/><path fill="rgb(41.958618%, 83.139038%, 80.389404%)" d="M 1312.5 169.5 C 1286.820312 169.5 1266 190.320312 1266 216 C 1266 241.679688 1286.820312 262.5 1312.5 262.5 C 1338.179688 262.5 1359 241.679688 1359 216 C 1359 190.320312 1338.179688 169.5 1312.5 169.5 Z M 1312.5 169.5 " fill-opacity="1" fill-rule="nonzero"/><g clip-path="url(#clip-16)"><g clip-path="url(#clip-17)"><g clip-path="url(#clip-18)"><path fill="rgb(41.958618%, 83.139038%, 80.389404%)" d="M 1472.152344 6.679688 C 1458.347656 -7.074219 1440.097656 -14.957031 1421.640625 -20.421875 C 1405.355469 -25.230469 1388.195312 -27.773438 1371.277344 -25.273438 C 1363.078125 -24.089844 1354.257812 -22.105469 1347.125 -17.792969 C 1340.027344 -13.5 1334.050781 -7.421875 1329.664062 -0.382812 C 1325.179688 6.71875 1322.324219 14.988281 1321.664062 23.335938 C 1320.878906 32.792969 1323.121094 41.992188 1325.171875 51.183594 C 1329.851562 72.046875 1329.882812 93.582031 1334.4375 114.53125 C 1338.457031 133.0625 1346.867188 151.566406 1363.140625 162.472656 C 1378.683594 172.851562 1397.738281 171.917969 1414.402344 164.625 C 1433.421875 156.230469 1448.539062 140.890625 1459.8125 123.667969 C 1465.492188 115.050781 1470.28125 105.878906 1474.667969 96.519531 C 1478.976562 87.257812 1483.253906 77.878906 1486.613281 68.246094 C 1489.664062 59.519531 1491.390625 50.488281 1490.066406 41.269531 C 1488.816406 32.507812 1485.347656 24.097656 1480.414062 16.738281 C 1477.957031 13.070312 1475.132812 9.753906 1472.152344 6.679688 " fill-opacity="1" fill-rule="nonzero"/></g></g></g><g clip-path="url(#clip-19)"><g clip-path="url(#clip-20)"><g clip-path="url(#clip-21)"><path fill="rgb(41.958618%, 83.139038%, 80.389404%)" d="M 222.832031 844.082031 C 235.539062 834.265625 243.925781 820.203125 250.359375 805.722656 C 256.027344 792.941406 259.933594 779.210938 259.703125 765.152344 C 259.609375 758.339844 258.929688 750.9375 256.167969 744.667969 C 253.421875 738.425781 249.09375 732.917969 243.816406 728.601562 C 238.492188 724.199219 232.042969 721.007812 225.296875 719.59375 C 217.65625 717.960938 209.902344 718.828125 202.175781 719.539062 C 184.632812 721.171875 167.042969 718.941406 149.445312 720.464844 C 133.878906 721.800781 117.867188 726.722656 107.222656 738.855469 C 97.082031 750.445312 95.8125 766.085938 99.992188 780.441406 C 104.816406 796.835938 115.730469 810.769531 128.59375 821.769531 C 135.027344 827.304688 142.007812 832.171875 149.183594 836.726562 C 156.285156 841.210938 163.488281 845.683594 171 849.433594 C 177.800781 852.832031 184.992188 855.1875 192.664062 855.070312 C 199.957031 854.972656 207.195312 853.023438 213.734375 849.769531 C 216.988281 848.148438 220.003906 846.195312 222.832031 844.082031 " fill-opacity="1" fill-rule="nonzero"/></g></g></g></svg>