<?xml version="1.0" encoding="UTF-8"?><svg xmlns="http://www.w3.org/2000/svg" xmlns:xlink="http://www.w3.org/1999/xlink" contentScriptType="text/ecmascript" width="1440" zoomAndPan="magnify" contentStyleType="text/css" viewBox="0 0 1440 809.999993" height="809.999993" preserveAspectRatio="xMidYMid meet" version="1.0"><defs><filter x="0%" y="0%" width="100%" xmlns:xlink="http://www.w3.org/1999/xlink" xlink:type="simple" xlink:actuate="onLoad" height="100%" id="filter-remove-color" xlink:show="other"><feColorMatrix values="0 0 0 0 1 0 0 0 0 1 0 0 0 0 1 0 0 0 1 0" color-interpolation-filters="sRGB"/></filter><mask id="mask-0"><g filter="url(#filter-remove-color)"><rect x="-144" width="1728" fill="rgb(0%, 0%, 0%)" y="-80.999999" height="971.999992" fill-opacity="0.2"/></g></mask><clipPath id="clip-0"><path d="M 22 37 L 597 37 L 597 684 L 22 684 Z M 22 37 " clip-rule="nonzero"/></clipPath><clipPath id="clip-1"><path d="M 75.75 -0.878906 L 812.863281 74.945312 L 734.273438 838.914062 L -2.839844 763.089844 Z M 75.75 -0.878906 " clip-rule="nonzero"/></clipPath><clipPath id="clip-2"><path d="M 75.75 -0.878906 L 812.863281 74.945312 L 734.273438 838.914062 L -2.839844 763.089844 Z M 75.75 -0.878906 " clip-rule="nonzero"/></clipPath><clipPath id="clip-3"><rect x="0" width="597" y="0" height="684"/></clipPath><mask id="mask-1"><g filter="url(#filter-remove-color)"><rect x="-144" width="1728" fill="rgb(0%, 0%, 0%)" y="-80.999999" height="971.999992" fill-opacity="0.2"/></g></mask><clipPath id="clip-4"><path d="M 41 0 L 416 0 L 416 318 L 41 318 Z M 41 0 " clip-rule="nonzero"/></clipPath><clipPath id="clip-5"><path d="M -0.382812 252.707031 L 86.175781 -160.574219 L 514.875 -70.785156 L 428.316406 342.496094 Z M -0.382812 252.707031 " clip-rule="nonzero"/></clipPath><clipPath id="clip-6"><path d="M -0.382812 252.707031 L 86.175781 -160.574219 L 514.875 -70.785156 L 428.316406 342.496094 Z M -0.382812 252.707031 " clip-rule="nonzero"/></clipPath><clipPath id="clip-7"><rect x="0" width="416" y="0" height="341"/></clipPath><mask id="mask-2"><g filter="url(#filter-remove-color)"><rect x="-144" width="1728" fill="rgb(0%, 0%, 0%)" y="-80.999999" height="971.999992" fill-opacity="0.2"/></g></mask><clipPath id="clip-8"><path d="M 0 48 L 260 48 L 260 342 L 0 342 Z M 0 48 " clip-rule="nonzero"/></clipPath><clipPath id="clip-9"><path d="M 354.007812 228.40625 L 131.632812 631.65625 L -286.066406 401.316406 L -63.691406 -1.933594 Z M 354.007812 228.40625 " clip-rule="nonzero"/></clipPath><clipPath id="clip-10"><path d="M 354.007812 228.40625 L 131.632812 631.65625 L -286.066406 401.316406 L -63.691406 -1.933594 Z M 354.007812 228.40625 " clip-rule="nonzero"/></clipPath><clipPath id="clip-11"><rect x="0" width="353" y="0" height="342"/></clipPath><mask id="mask-3"><g filter="url(#filter-remove-color)"><rect x="-144" width="1728" fill="rgb(0%, 0%, 0%)" y="-80.999999" height="971.999992" fill-opacity="0.2"/></g></mask><clipPath id="clip-12"><path d="M 0 0 L 594 0 L 594 641 L 0 641 Z M 0 0 " clip-rule="nonzero"/></clipPath><clipPath id="clip-13"><path d="M 401.882812 752.078125 L -299.367188 505.765625 L -44.109375 -220.957031 L 657.140625 25.355469 Z M 401.882812 752.078125 " clip-rule="nonzero"/></clipPath><clipPath id="clip-14"><path d="M 401.882812 752.078125 L -299.367188 505.765625 L -44.109375 -220.957031 L 657.140625 25.355469 Z M 401.882812 752.078125 " clip-rule="nonzero"/></clipPath><clipPath id="clip-15"><rect x="0" width="654" y="0" height="750"/></clipPath><clipPath id="clip-16"><path d="M 82 744 L 239 744 L 239 810 L 82 810 Z M 82 744 " clip-rule="nonzero"/></clipPath><clipPath id="clip-17"><path d="M 179.003906 704.78125 L 275.496094 815.679688 L 160.636719 915.617188 L 64.144531 804.71875 Z M 179.003906 704.78125 " clip-rule="nonzero"/></clipPath><clipPath id="clip-18"><path d="M 179.003906 704.78125 L 275.496094 815.679688 L 160.636719 915.617188 L 64.144531 804.71875 Z M 179.003906 704.78125 " clip-rule="nonzero"/></clipPath></defs><rect x="-144" width="1728" fill="rgb(100%, 100%, 100%)" y="-80.999999" height="971.999992" fill-opacity="1"/><rect x="-144" width="1728" fill="rgb(1.568604%, 20.388794%, 36.079407%)" y="-80.999999" height="971.999992" fill-opacity="1"/><g mask="url(#mask-0)"><g transform="matrix(1, 0, 0, 1, 843, 126)"><g id="source-5" clip-path="url(#clip-3)"><g clip-path="url(#clip-0)"><g clip-path="url(#clip-1)"><g clip-path="url(#clip-2)"><path fill="rgb(41.958618%, 83.139038%, 80.389404%)" d="M 766.582031 437.855469 C 759.921875 360.199219 724.523438 288.996094 682.253906 224.644531 C 644.910156 167.898438 599.0625 115.824219 540.929688 79.765625 C 512.8125 62.222656 480.757812 45.503906 447.828125 40.265625 C 415.054688 35.042969 381.109375 38.183594 349.527344 48.355469 C 317.484375 58.476562 287.421875 76.363281 263.847656 100.160156 C 237.023438 127.015625 220.121094 160.910156 202.652344 194.28125 C 163.082031 270.113281 107.570312 335.976562 67.390625 411.742188 C 31.8125 478.730469 9.726562 556.976562 31.28125 632.308594 C 51.960938 704.15625 112.585938 750.496094 182.320312 771.246094 C 262.105469 794.722656 347.890625 786.890625 426.804688 763.386719 C 466.40625 751.726562 504.722656 736.078125 542.277344 718.808594 C 579.363281 701.644531 616.644531 684.039062 651.785156 663.285156 C 683.636719 644.503906 712.234375 621.375 731.984375 589.78125 C 750.800781 559.789062 761.921875 525.144531 765.855469 489.917969 C 767.8125 472.382812 767.757812 454.945312 766.582031 437.855469 " fill-opacity="1" fill-rule="nonzero"/></g></g></g></g></g></g><g mask="url(#mask-1)"><g transform="matrix(1, 0, 0, 1, 1024, 0.000000000000039746)"><g id="source-8" clip-path="url(#clip-7)"><g clip-path="url(#clip-4)"><g clip-path="url(#clip-5)"><g clip-path="url(#clip-6)"><path fill="rgb(41.958618%, 83.139038%, 80.389404%)" d="M 289.292969 -112.851562 C 244.851562 -113.675781 202.375 -97.832031 163.375 -77.683594 C 128.976562 -59.878906 96.734375 -36.980469 72.84375 -6.164062 C 61.230469 8.730469 49.855469 25.910156 44.9375 44.261719 C 40.039062 62.527344 39.816406 81.953125 43.71875 100.457031 C 47.566406 119.214844 55.9375 137.3125 68.042969 152.085938 C 81.691406 168.878906 99.917969 180.464844 117.816406 192.34375 C 158.492188 219.261719 192.570312 254.625 233.171875 281.886719 C 269.066406 306.015625 312.148438 323.167969 356.148438 315.414062 C 398.125 307.949219 427.992188 276.332031 443.882812 238.039062 C 461.914062 194.207031 462.539062 145.125 453.867188 99.003906 C 449.59375 75.871094 442.984375 53.226562 435.40625 30.917969 C 427.863281 8.882812 420.078125 -13.289062 410.378906 -34.433594 C 401.609375 -53.601562 390.179688 -71.179688 373.425781 -84.246094 C 357.523438 -96.6875 338.53125 -105.039062 318.78125 -109.355469 C 308.949219 -111.503906 299.058594 -112.503906 289.292969 -112.851562 " fill-opacity="1" fill-rule="nonzero"/></g></g></g></g></g></g><g mask="url(#mask-2)"><g transform="matrix(1, 0, 0, 1, 0, 468)"><g id="source-11" clip-path="url(#clip-11)"><g clip-path="url(#clip-8)"><g clip-path="url(#clip-9)"><g clip-path="url(#clip-10)"><path fill="rgb(41.958618%, 83.139038%, 80.389404%)" d="M -64.613281 517.121094 C -18.597656 532.152344 30.707031 529.183594 77.765625 520.621094 C 119.28125 513.027344 160.1875 499.4375 194.921875 474.933594 C 211.78125 463.109375 229.125 448.828125 240.117188 431.261719 C 251.0625 413.78125 257.511719 393.601562 259.367188 373.066406 C 261.359375 352.28125 258.433594 330.746094 250.554688 311.484375 C 241.714844 289.625 226.441406 271.730469 211.605469 253.640625 C 177.863281 212.601562 153.6875 164.867188 120.128906 123.496094 C 90.46875 86.890625 51.097656 55.269531 2.792969 49.320312 C -43.308594 43.714844 -84.523438 67.148438 -113.324219 102.003906 C -146.125 141.945312 -162.480469 192.917969 -168.207031 243.761719 C -171.160156 269.246094 -171.519531 294.960938 -170.765625 320.636719 C -169.960938 346.011719 -168.949219 371.613281 -165.617188 396.75 C -162.613281 419.527344 -156.339844 441.496094 -143.070312 460.464844 C -130.492188 478.503906 -113.386719 493.273438 -94.203125 504.070312 C -84.652344 509.445312 -74.667969 513.644531 -64.613281 517.121094 " fill-opacity="1" fill-rule="nonzero"/></g></g></g></g></g></g><g mask="url(#mask-3)"><g transform="matrix(1, 0, 0, 1, 0, 0.000000000000039746)"><g id="source-14" clip-path="url(#clip-15)"><g clip-path="url(#clip-12)"><g clip-path="url(#clip-13)"><g clip-path="url(#clip-14)"><path fill="rgb(41.958618%, 83.139038%, 80.389404%)" d="M -169.386719 162.640625 C -181.042969 239.9375 -163.164062 317.65625 -136.976562 390.304688 C -113.820312 454.382812 -81.273438 515.890625 -33 564.652344 C -9.675781 588.339844 17.683594 612.136719 48.574219 624.945312 C 79.324219 637.703125 113.167969 642.578125 146.351562 640.042969 C 179.96875 637.660156 213.476562 627.246094 242.035156 609.550781 C 274.476562 589.628906 298.886719 560.527344 323.726562 532.0625 C 380.054688 467.359375 449.597656 416.101562 506.503906 351.601562 C 556.863281 294.585938 596.699219 223.4375 593.285156 144.925781 C 589.914062 70.015625 541.613281 10.644531 478.445312 -25.898438 C 406.109375 -67.453125 320.605469 -79.871094 238.136719 -75.398438 C 196.785156 -73.289062 155.753906 -66.984375 115.082031 -58.925781 C 74.898438 -50.855469 34.417969 -42.40625 -4.710938 -30.378906 C -40.167969 -19.507812 -73.46875 -3.640625 -100.121094 22.554688 C -125.488281 47.410156 -144.433594 78.597656 -156.503906 112.035156 C -162.515625 128.679688 -166.535156 145.699219 -169.386719 162.640625 " fill-opacity="1" fill-rule="nonzero"/></g></g></g></g></g></g><path fill="rgb(41.958618%, 83.139038%, 80.389404%)" d="M 1412.25 37.800781 C 1382.839844 37.800781 1359 61.640625 1359 91.050781 C 1359 120.457031 1382.839844 144.300781 1412.25 144.300781 C 1441.660156 144.300781 1465.5 120.457031 1465.5 91.050781 C 1465.5 61.640625 1441.660156 37.800781 1412.25 37.800781 Z M 1412.25 37.800781 " fill-opacity="1" fill-rule="nonzero"/><path fill="rgb(41.958618%, 83.139038%, 80.389404%)" d="M 58.5 730.859375 C 46.074219 730.859375 36 740.933594 36 753.359375 C 36 765.785156 46.074219 775.859375 58.5 775.859375 C 70.925781 775.859375 81 765.785156 81 753.359375 C 81 740.933594 70.925781 730.859375 58.5 730.859375 Z M 58.5 730.859375 " fill-opacity="1" fill-rule="nonzero"/><g clip-path="url(#clip-16)"><g clip-path="url(#clip-17)"><g clip-path="url(#clip-18)"><path fill="rgb(41.958618%, 83.139038%, 80.389404%)" d="M 219.636719 861.9375 C 229.191406 849.792969 233.707031 834.6875 236.300781 819.644531 C 238.578125 806.367188 238.992188 792.613281 235.457031 779.511719 C 233.761719 773.160156 231.382812 766.394531 227.320312 761.175781 C 223.28125 755.976562 217.941406 751.828125 211.988281 749.019531 C 205.976562 746.140625 199.199219 744.65625 192.5625 744.902344 C 185.039062 745.15625 178 747.769531 170.949219 750.234375 C 154.949219 755.847656 137.988281 757.855469 121.902344 763.378906 C 107.679688 768.25 93.882812 776.585938 86.800781 790.410156 C 80.0625 803.613281 82.566406 818.542969 89.859375 831 C 98.234375 845.210938 111.71875 855.707031 126.332031 863.003906 C 133.648438 866.683594 141.316406 869.613281 149.09375 872.203125 C 156.792969 874.746094 164.574219 877.25 172.476562 879.007812 C 179.632812 880.609375 186.910156 881.136719 194.050781 879.242188 C 200.835938 877.449219 207.140625 873.941406 212.480469 869.375 C 215.140625 867.101562 217.492188 864.570312 219.636719 861.9375 " fill-opacity="1" fill-rule="nonzero"/></g></g></g></svg>