<?xml version="1.0" encoding="UTF-8"?><svg xmlns="http://www.w3.org/2000/svg" xmlns:xlink="http://www.w3.org/1999/xlink" contentScriptType="text/ecmascript" width="1440" zoomAndPan="magnify" contentStyleType="text/css" viewBox="0 0 1440 359.999987" height="359.999987" preserveAspectRatio="xMidYMid meet" version="1.0"><defs><clipPath id="clip-0"><path d="M 1367 128 L 1431.441406 128 L 1431.441406 360 L 1367 360 Z M 1367 128 " clip-rule="nonzero"/></clipPath><clipPath id="clip-1"><path d="M 1010.574219 229 L 1198 229 L 1198 269 L 1010.574219 269 Z M 1010.574219 229 " clip-rule="nonzero"/></clipPath><clipPath id="clip-2"><path d="M 1102 47.46875 L 1113 47.46875 L 1113 62 L 1102 62 Z M 1102 47.46875 " clip-rule="nonzero"/></clipPath><clipPath id="clip-3"><path d="M 1104 98 L 1176 98 L 1176 175.71875 L 1104 175.71875 Z M 1104 98 " clip-rule="nonzero"/></clipPath><clipPath id="clip-4"><path d="M 1100.550781 92 L 1178.550781 92 L 1178.550781 99 L 1100.550781 99 Z M 1100.550781 92 " clip-rule="nonzero"/></clipPath><clipPath id="clip-5"><path d="M 15 180 L 217.5 180 L 217.5 233 L 15 233 Z M 15 180 " clip-rule="nonzero"/></clipPath><clipPath id="clip-6"><path d="M 532 180 L 734.839844 180 L 734.839844 233 L 532 233 Z M 532 180 " clip-rule="nonzero"/></clipPath><clipPath id="clip-7"><path d="M 517.339844 229 L 705 229 L 705 269 L 517.339844 269 Z M 517.339844 229 " clip-rule="nonzero"/></clipPath><clipPath id="clip-8"><path d="M 644 47.46875 L 655 47.46875 L 655 62 L 644 62 Z M 644 47.46875 " clip-rule="nonzero"/></clipPath><clipPath id="clip-9"><path d="M 645 98 L 717 98 L 717 175.71875 L 645 175.71875 Z M 645 98 " clip-rule="nonzero"/></clipPath><clipPath id="clip-10"><path d="M 642.121094 92 L 720.121094 92 L 720.121094 99 L 642.121094 99 Z M 642.121094 92 " clip-rule="nonzero"/></clipPath><clipPath id="clip-11"><path d="M 142 47.46875 L 152 47.46875 L 152 62 L 142 62 Z M 142 47.46875 " clip-rule="nonzero"/></clipPath><clipPath id="clip-12"><path d="M 143 98 L 215 98 L 215 175.71875 L 143 175.71875 Z M 143 98 " clip-rule="nonzero"/></clipPath><clipPath id="clip-13"><path d="M 139.742188 92 L 217.742188 92 L 217.742188 99 L 139.742188 99 Z M 139.742188 92 " clip-rule="nonzero"/></clipPath><clipPath id="clip-14"><path d="M 874 128 L 938.207031 128 L 938.207031 360 L 874 360 Z M 874 128 " clip-rule="nonzero"/></clipPath><clipPath id="clip-15"><path d="M 338 158 L 402.71875 158 L 402.71875 360 L 338 360 Z M 338 158 " clip-rule="nonzero"/></clipPath></defs><rect x="-144" width="1728" fill="rgb(100%, 100%, 100%)" y="-35.999999" height="431.999984" fill-opacity="1"/><rect x="-144" width="1728" fill="rgb(100%, 100%, 100%)" y="-35.999999" height="431.999984" fill-opacity="1"/><rect x="-144" width="1728" fill="rgb(9.01947%, 22.749329%, 34.118652%)" y="-35.999999" height="431.999984" fill-opacity="1"/><g clip-path="url(#clip-0)"><path fill="rgb(94.898987%, 50.19989%, 17.649841%)" d="M 1380.371094 368.179688 L 1418.816406 368.179688 C 1425.871094 368.179688 1431.59375 362.457031 1431.59375 355.398438 L 1431.59375 141.066406 C 1431.59375 134.007812 1425.871094 128.285156 1418.816406 128.285156 L 1380.371094 128.285156 C 1373.316406 128.285156 1367.59375 134.007812 1367.59375 141.066406 L 1367.59375 355.394531 C 1367.59375 362.457031 1373.316406 368.179688 1380.371094 368.179688 " fill-opacity="1" fill-rule="nonzero"/></g><path fill="rgb(96.078491%, 77.249146%, 21.958923%)" d="M 1382.808594 315.347656 L 1416.382812 315.347656 C 1419.640625 315.347656 1422.28125 312.707031 1422.28125 309.449219 L 1422.28125 151.175781 C 1422.28125 147.914062 1419.640625 145.273438 1416.382812 145.273438 L 1382.808594 145.273438 C 1379.546875 145.273438 1376.90625 147.914062 1376.90625 151.175781 L 1376.90625 309.449219 C 1376.90625 312.707031 1379.546875 315.347656 1382.808594 315.347656 " fill-opacity="1" fill-rule="nonzero"/><path fill="rgb(96.078491%, 77.249146%, 21.958923%)" d="M 1329.710938 71.457031 L 1329.710938 344.820312 C 1329.710938 353.824219 1332.578125 361.136719 1336.101562 361.136719 L 1355.332031 361.136719 C 1358.855469 361.136719 1361.71875 353.824219 1361.71875 344.820312 L 1361.71875 71.457031 C 1361.71875 62.453125 1358.855469 55.167969 1355.332031 55.167969 L 1336.101562 55.167969 C 1332.578125 55.167969 1329.710938 62.453125 1329.710938 71.457031 " fill-opacity="1" fill-rule="nonzero"/><path fill="rgb(51.759338%, 73.728943%, 66.268921%)" d="M 1329.710938 76.097656 L 1329.710938 98.777344 L 1361.71875 98.777344 L 1361.71875 76.097656 L 1329.710938 76.097656 " fill-opacity="1" fill-rule="nonzero"/><path fill="rgb(51.759338%, 73.728943%, 66.268921%)" d="M 1329.710938 321.253906 L 1329.710938 343.933594 L 1361.71875 343.933594 L 1361.71875 321.253906 L 1329.710938 321.253906 " fill-opacity="1" fill-rule="nonzero"/><path fill="rgb(94.898987%, 50.19989%, 17.649841%)" d="M 1294.894531 72.5 L 1230.441406 338.148438 C 1228.320312 346.898438 1229.378906 354.679688 1232.804688 355.511719 L 1251.492188 360.050781 C 1254.914062 360.882812 1259.421875 354.457031 1261.546875 345.707031 L 1326 80.054688 C 1328.121094 71.304688 1327.054688 63.550781 1323.628906 62.71875 L 1304.941406 58.179688 C 1301.519531 57.347656 1297.015625 63.75 1294.894531 72.5 " fill-opacity="1" fill-rule="nonzero"/><path fill="rgb(96.078491%, 77.249146%, 21.958923%)" d="M 1293.796875 77.011719 L 1291.496094 86.5 L 1322.601562 94.054688 L 1324.902344 84.570312 L 1293.796875 77.011719 " fill-opacity="1" fill-rule="nonzero"/><path fill="rgb(96.078491%, 77.249146%, 21.958923%)" d="M 1288.898438 97.214844 L 1286.59375 106.703125 L 1317.699219 114.257812 L 1320.003906 104.769531 L 1288.898438 97.214844 " fill-opacity="1" fill-rule="nonzero"/><path fill="rgb(98.039246%, 98.429871%, 92.549133%)" d="M 1031.757812 335.875 C 1031.605469 328.144531 1027.582031 321.527344 1021.835938 318.347656 C 1023.460938 316.964844 1025.546875 316.109375 1027.832031 316.0625 L 1205.71875 313.699219 C 1210.980469 313.597656 1215.367188 317.816406 1215.46875 323.078125 L 1215.894531 344.78125 C 1215.996094 350.042969 1211.777344 354.433594 1206.519531 354.535156 L 1028.632812 356.902344 C 1025.992188 356.953125 1023.570312 355.910156 1021.796875 354.195312 C 1027.820312 350.953125 1031.914062 343.9375 1031.757812 335.875 " fill-opacity="1" fill-rule="nonzero"/><path fill="rgb(79.219055%, 58.81958%, 10.5896%)" d="M 1214.167969 354.515625 L 1214.164062 354.519531 Z M 1214.167969 354.515625 " fill-opacity="1" fill-rule="nonzero"/><path fill="rgb(96.859741%, 61.178589%, 24.308777%)" d="M 1017.585938 358.597656 C 1018.183594 359.582031 1019.132812 360.363281 1020.289062 360.726562 C 1022.898438 361.539062 1200.570312 358.890625 1209.121094 357.632812 C 1212.710938 356.53125 1215.769531 353.664062 1217.140625 350.160156 C 1218.230469 347.378906 1218.109375 320.589844 1216.363281 316.90625 C 1214.066406 312.058594 1208.597656 309.132812 1203.332031 309.234375 C 1195.246094 309.394531 1039.523438 311.324219 1023.6875 311.613281 C 1021.441406 311.652344 1018.949219 311.792969 1017.371094 313.398438 C 1015.953125 314.839844 1016.449219 317.660156 1019.066406 319.230469 C 1022.347656 321.199219 1203.796875 317.480469 1206.507812 319.824219 C 1208.972656 321.953125 1208.773438 340.074219 1208.316406 344.523438 C 1207.945312 348.160156 1205.046875 349.070312 1201.78125 349.132812 C 1169.820312 349.292969 1023.472656 352.234375 1020.011719 352.898438 C 1018.917969 353.105469 1017.417969 354.074219 1017.207031 354.617188 C 1016.671875 355.988281 1016.882812 357.433594 1017.585938 358.597656 " fill-opacity="1" fill-rule="nonzero"/><path fill="rgb(83.139038%, 83.139038%, 76.078796%)" d="M 1038.289062 347.316406 L 1199.394531 344.441406 C 1199.796875 344.429688 1200.109375 344.09375 1200.101562 343.695312 C 1200.089844 343.292969 1199.753906 342.976562 1199.355469 342.988281 L 1038.246094 345.863281 C 1037.847656 345.878906 1037.53125 346.210938 1037.542969 346.613281 C 1037.554688 347.015625 1037.886719 347.328125 1038.289062 347.316406 " fill-opacity="1" fill-rule="nonzero"/><path fill="rgb(83.139038%, 83.139038%, 76.078796%)" d="M 1037.777344 338.320312 L 1198.882812 335.445312 C 1199.285156 335.433594 1199.597656 335.097656 1199.585938 334.699219 C 1199.578125 334.296875 1199.242188 333.980469 1198.84375 333.992188 L 1037.734375 336.867188 C 1037.335938 336.878906 1037.019531 337.210938 1037.03125 337.613281 C 1037.042969 338.015625 1037.375 338.332031 1037.777344 338.320312 " fill-opacity="1" fill-rule="nonzero"/><path fill="rgb(83.139038%, 83.139038%, 76.078796%)" d="M 1049.726562 341.792969 L 1198.84375 339.878906 C 1199.242188 339.867188 1199.558594 339.53125 1199.546875 339.132812 C 1199.539062 338.730469 1199.203125 338.414062 1198.804688 338.425781 L 1049.6875 340.339844 C 1049.285156 340.351562 1048.96875 340.6875 1048.980469 341.085938 C 1048.992188 341.488281 1049.324219 341.804688 1049.726562 341.792969 " fill-opacity="1" fill-rule="nonzero"/><path fill="rgb(83.139038%, 83.139038%, 76.078796%)" d="M 1037.515625 331.046875 L 1198.625 328.171875 C 1199.023438 328.160156 1199.339844 327.824219 1199.328125 327.425781 C 1199.316406 327.023438 1198.980469 326.707031 1198.582031 326.71875 L 1037.476562 329.59375 C 1037.074219 329.609375 1036.761719 329.941406 1036.769531 330.34375 C 1036.78125 330.742188 1037.117188 331.058594 1037.515625 331.046875 " fill-opacity="1" fill-rule="nonzero"/><path fill="rgb(83.139038%, 83.139038%, 76.078796%)" d="M 1036.246094 326.863281 L 1198.519531 323.8125 C 1198.925781 323.800781 1199.242188 323.46875 1199.234375 323.066406 C 1199.222656 322.664062 1198.886719 322.351562 1198.484375 322.359375 L 1036.207031 325.410156 C 1035.804688 325.421875 1035.484375 325.757812 1035.496094 326.15625 C 1035.507812 326.558594 1035.84375 326.875 1036.246094 326.863281 " fill-opacity="1" fill-rule="nonzero"/><path fill="rgb(98.039246%, 98.429871%, 92.549133%)" d="M 1212.277344 204.570312 C 1212.171875 196.839844 1215.976562 190.089844 1221.613281 186.726562 C 1219.945312 185.394531 1217.832031 184.609375 1215.542969 184.640625 L 1037.679688 188.160156 C 1032.417969 188.230469 1028.171875 192.59375 1028.242188 197.855469 L 1028.535156 219.558594 C 1028.605469 224.824219 1032.964844 229.070312 1038.226562 229 L 1216.089844 225.480469 C 1218.734375 225.445312 1221.121094 224.324219 1222.832031 222.546875 C 1216.710938 219.507812 1212.382812 212.632812 1212.277344 204.570312 " fill-opacity="1" fill-rule="nonzero"/><path fill="rgb(51.759338%, 73.728943%, 66.268921%)" d="M 1227.1875 226.8125 C 1226.625 227.816406 1225.699219 228.628906 1224.554688 229.027344 C 1221.972656 229.925781 1044.316406 233.15625 1035.722656 232.183594 C 1032.101562 231.199219 1028.949219 228.433594 1027.464844 224.980469 C 1026.28125 222.234375 1025.523438 195.453125 1027.144531 191.714844 C 1029.28125 186.792969 1034.652344 183.6875 1039.917969 183.617188 C 1048.007812 183.507812 1203.703125 180.289062 1219.542969 180.050781 C 1221.789062 180.019531 1224.285156 180.078125 1225.914062 181.628906 C 1227.378906 183.023438 1226.972656 185.855469 1224.414062 187.511719 C 1221.199219 189.589844 1039.726562 191.875 1037.089844 194.304688 C 1034.699219 196.515625 1035.496094 214.621094 1036.097656 219.050781 C 1036.589844 222.671875 1039.515625 223.488281 1042.785156 223.445312 C 1074.730469 222.546875 1221.097656 220.644531 1224.578125 221.195312 C 1225.675781 221.367188 1227.207031 222.285156 1227.4375 222.820312 C 1228.015625 224.171875 1227.855469 225.625 1227.1875 226.8125 " fill-opacity="1" fill-rule="nonzero"/><path fill="rgb(83.139038%, 83.139038%, 76.078796%)" d="M 1206.125 216.222656 L 1045.011719 218.675781 C 1044.613281 218.675781 1044.285156 218.351562 1044.285156 217.953125 C 1044.28125 217.550781 1044.605469 217.222656 1045.003906 217.222656 L 1206.117188 214.769531 C 1206.519531 214.765625 1206.84375 215.089844 1206.847656 215.492188 C 1206.847656 215.894531 1206.527344 216.21875 1206.125 216.222656 " fill-opacity="1" fill-rule="nonzero"/><path fill="rgb(83.139038%, 83.139038%, 76.078796%)" d="M 1206.34375 207.214844 L 1045.226562 209.664062 C 1044.828125 209.667969 1044.5 209.34375 1044.5 208.941406 C 1044.496094 208.539062 1044.820312 208.214844 1045.21875 208.214844 L 1206.332031 205.757812 C 1206.734375 205.757812 1207.0625 206.082031 1207.0625 206.480469 C 1207.066406 206.882812 1206.742188 207.210938 1206.34375 207.214844 " fill-opacity="1" fill-rule="nonzero"/><path fill="rgb(83.139038%, 83.139038%, 76.078796%)" d="M 1194.515625 211.078125 L 1045.414062 214.097656 C 1045.011719 214.097656 1044.6875 213.773438 1044.683594 213.375 C 1044.683594 212.972656 1045.003906 212.644531 1045.40625 212.640625 L 1194.503906 209.625 C 1194.90625 209.621094 1195.230469 209.949219 1195.234375 210.347656 C 1195.238281 210.75 1194.914062 211.078125 1194.515625 211.078125 " fill-opacity="1" fill-rule="nonzero"/><path fill="rgb(83.139038%, 83.139038%, 76.078796%)" d="M 1206.359375 199.9375 L 1045.246094 202.386719 C 1044.847656 202.390625 1044.519531 202.066406 1044.519531 201.664062 C 1044.519531 201.265625 1044.839844 200.9375 1045.242188 200.9375 L 1206.355469 198.484375 C 1206.753906 198.480469 1207.082031 198.804688 1207.082031 199.207031 C 1207.085938 199.605469 1206.761719 199.933594 1206.359375 199.9375 " fill-opacity="1" fill-rule="nonzero"/><path fill="rgb(83.139038%, 83.139038%, 76.078796%)" d="M 1207.492188 195.710938 L 1045.207031 198.027344 C 1044.800781 198.03125 1044.472656 197.707031 1044.46875 197.308594 C 1044.46875 196.90625 1044.792969 196.578125 1045.195312 196.578125 L 1207.484375 194.257812 C 1207.886719 194.253906 1208.21875 194.578125 1208.21875 194.980469 C 1208.222656 195.382812 1207.894531 195.707031 1207.492188 195.710938 " fill-opacity="1" fill-rule="nonzero"/><g clip-path="url(#clip-1)"><path fill="rgb(98.039246%, 77.648926%, 3.138733%)" d="M 1197.960938 255.609375 C 1198.023438 261.914062 1192.972656 267.066406 1186.6875 267.136719 L 1174.644531 267.257812 L 1162.089844 267.382812 L 1147.902344 267.523438 L 1135.347656 267.644531 L 1022.308594 268.777344 C 1016.015625 268.839844 1010.875 263.78125 1010.8125 257.488281 L 1010.660156 242.265625 C 1010.589844 235.964844 1015.636719 230.8125 1021.933594 230.75 L 1135.347656 229.609375 L 1147.902344 229.484375 L 1162.089844 229.34375 L 1174.644531 229.210938 L 1186.304688 229.097656 C 1192.59375 229.039062 1197.738281 234.097656 1197.808594 240.390625 L 1197.960938 255.609375 " fill-opacity="1" fill-rule="nonzero"/></g><path fill="rgb(96.469116%, 55.288696%, 6.669617%)" d="M 1147.902344 229.484375 L 1147.902344 267.523438 L 1135.347656 267.644531 L 1135.347656 229.609375 L 1147.902344 229.484375 " fill-opacity="1" fill-rule="nonzero"/><path fill="rgb(96.469116%, 55.288696%, 6.669617%)" d="M 1174.644531 229.210938 L 1174.644531 267.257812 L 1162.089844 267.382812 L 1162.089844 229.34375 L 1174.644531 229.210938 " fill-opacity="1" fill-rule="nonzero"/><path fill="rgb(92.939758%, 34.509277%, 43.139648%)" d="M 1029.5 296.730469 C 1029.4375 304.070312 1034.648438 310.070312 1041.128906 310.152344 L 1053.554688 310.292969 L 1066.507812 310.4375 L 1081.140625 310.601562 L 1094.09375 310.746094 L 1210.714844 312.0625 C 1217.207031 312.136719 1222.511719 306.242188 1222.574219 298.914062 L 1222.730469 281.191406 C 1222.804688 273.851562 1217.59375 267.851562 1211.101562 267.78125 L 1094.09375 266.449219 L 1081.140625 266.308594 L 1066.507812 266.140625 L 1053.554688 265.988281 L 1041.527344 265.855469 C 1035.035156 265.785156 1029.730469 271.675781 1029.65625 279.003906 L 1029.5 296.730469 " fill-opacity="1" fill-rule="nonzero"/><path fill="rgb(96.078491%, 77.249146%, 21.958923%)" d="M 1051.253906 302.0625 L 1114.097656 302.0625 C 1117.046875 302.0625 1119.433594 299.667969 1119.433594 296.714844 L 1119.433594 278.007812 C 1119.433594 275.054688 1117.046875 272.664062 1114.097656 272.664062 L 1051.253906 272.664062 C 1048.304688 272.664062 1045.917969 275.054688 1045.917969 278.007812 L 1045.917969 296.714844 C 1045.917969 299.667969 1048.304688 302.0625 1051.253906 302.0625 " fill-opacity="1" fill-rule="nonzero"/><path fill="rgb(92.939758%, 34.509277%, 43.139648%)" d="M 1174.644531 339.46875 L 1174.898438 372.003906 L 1181.003906 361.851562 L 1188.339844 371.175781 L 1187.816406 339.265625 C 1187.816406 339.265625 1179.113281 339.226562 1174.644531 339.46875 " fill-opacity="1" fill-rule="nonzero"/><path fill="rgb(97.648621%, 67.059326%, 4.708862%)" d="M 1159.574219 129.984375 L 1152.214844 132.457031 L 1131.648438 71.394531 L 1139.007812 68.925781 L 1159.574219 129.984375 " fill-opacity="1" fill-rule="nonzero"/><path fill="rgb(96.859741%, 73.329163%, 63.919067%)" d="M 1131.710938 59.417969 L 1131.648438 71.394531 L 1139.007812 68.925781 L 1131.710938 59.417969 " fill-opacity="1" fill-rule="nonzero"/><path fill="rgb(97.648621%, 67.059326%, 4.708862%)" d="M 1135.546875 64.421875 L 1131.703125 59.417969 L 1131.671875 65.722656 L 1135.546875 64.421875 " fill-opacity="1" fill-rule="nonzero"/><path fill="rgb(100%, 100%, 100%)" d="M 1131.648438 71.394531 L 1131.675781 65.722656 L 1131.648438 71.394531 " fill-opacity="1" fill-rule="nonzero"/><path fill="rgb(98.81897%, 79.60968%, 2.349854%)" d="M 1151.796875 131.210938 L 1131.648438 71.394531 L 1135.308594 70.164062 L 1152.832031 122.1875 L 1151.796875 131.210938 " fill-opacity="1" fill-rule="nonzero"/><path fill="rgb(98.039246%, 85.488892%, 79.219055%)" d="M 1131.648438 71.394531 L 1131.675781 65.722656 L 1133.597656 65.078125 L 1135.308594 70.164062 L 1131.648438 71.394531 " fill-opacity="1" fill-rule="nonzero"/><path fill="rgb(98.81897%, 79.60968%, 2.349854%)" d="M 1131.675781 65.722656 L 1131.707031 59.476562 L 1133.597656 65.078125 L 1131.675781 65.722656 " fill-opacity="1" fill-rule="nonzero"/><path fill="rgb(50.19989%, 79.998779%, 15.689087%)" d="M 1163.925781 130.601562 L 1156.335938 132.238281 L 1142.726562 69.265625 L 1150.316406 67.628906 L 1163.925781 130.601562 " fill-opacity="1" fill-rule="nonzero"/><path fill="rgb(96.859741%, 73.329163%, 63.919067%)" d="M 1144.125 57.367188 L 1142.726562 69.265625 L 1150.316406 67.628906 L 1144.125 57.367188 " fill-opacity="1" fill-rule="nonzero"/><path fill="rgb(50.19989%, 79.998779%, 15.689087%)" d="M 1147.378906 62.769531 L 1144.121094 57.371094 L 1143.382812 63.632812 L 1147.378906 62.769531 " fill-opacity="1" fill-rule="nonzero"/><path fill="rgb(70.588684%, 86.268616%, 9.408569%)" d="M 1153.296875 118.167969 L 1142.726562 69.265625 L 1146.503906 68.453125 L 1154.664062 106.222656 L 1153.296875 118.167969 " fill-opacity="1" fill-rule="nonzero"/><path fill="rgb(98.039246%, 85.488892%, 79.219055%)" d="M 1142.726562 69.265625 L 1143.390625 63.632812 L 1145.367188 63.203125 L 1146.503906 68.453125 L 1142.726562 69.265625 " fill-opacity="1" fill-rule="nonzero"/><path fill="rgb(70.588684%, 86.268616%, 9.408569%)" d="M 1143.390625 63.632812 L 1144.121094 57.425781 L 1145.367188 63.203125 L 1143.390625 63.632812 " fill-opacity="1" fill-rule="nonzero"/><path fill="rgb(96.078491%, 46.269226%, 8.239746%)" d="M 1159.371094 133.324219 L 1151.65625 132.4375 L 1159 68.4375 L 1166.710938 69.316406 L 1159.371094 133.324219 " fill-opacity="1" fill-rule="nonzero"/><path fill="rgb(96.859741%, 73.329163%, 63.919067%)" d="M 1164.148438 57.617188 L 1159 68.4375 L 1166.710938 69.316406 L 1164.148438 57.617188 " fill-opacity="1" fill-rule="nonzero"/><path fill="rgb(96.078491%, 46.269226%, 8.239746%)" d="M 1165.492188 63.773438 L 1164.140625 57.617188 L 1161.433594 63.308594 L 1165.492188 63.773438 " fill-opacity="1" fill-rule="nonzero"/><path fill="rgb(100%, 100%, 100%)" d="M 1159 68.4375 L 1161.4375 63.3125 L 1159 68.4375 " fill-opacity="1" fill-rule="nonzero"/><path fill="rgb(97.648621%, 65.098572%, 5.099487%)" d="M 1155.5 132.859375 L 1151.660156 132.421875 L 1159 68.4375 L 1162.835938 68.875 L 1155.765625 130.535156 L 1155.472656 131.824219 L 1155.613281 131.855469 L 1155.5 132.859375 " fill-opacity="1" fill-rule="nonzero"/><path fill="rgb(98.039246%, 85.488892%, 79.219055%)" d="M 1162.835938 68.875 L 1159 68.4375 L 1161.4375 63.3125 L 1163.449219 63.542969 L 1162.835938 68.875 " fill-opacity="1" fill-rule="nonzero"/><path fill="rgb(97.648621%, 65.098572%, 5.099487%)" d="M 1163.449219 63.542969 L 1161.4375 63.3125 L 1164.125 57.667969 L 1163.449219 63.542969 " fill-opacity="1" fill-rule="nonzero"/><path fill="rgb(92.939758%, 7.058716%, 48.629761%)" d="M 1163.042969 133.539062 L 1155.472656 131.824219 L 1169.734375 68.996094 L 1177.308594 70.710938 L 1163.042969 133.539062 " fill-opacity="1" fill-rule="nonzero"/><path fill="rgb(96.859741%, 73.329163%, 63.919067%)" d="M 1176.03125 58.800781 L 1169.734375 68.996094 L 1177.308594 70.710938 L 1176.03125 58.800781 " fill-opacity="1" fill-rule="nonzero"/><path fill="rgb(92.939758%, 7.058716%, 48.629761%)" d="M 1176.699219 65.070312 L 1176.027344 58.800781 L 1172.714844 64.167969 L 1176.699219 65.070312 " fill-opacity="1" fill-rule="nonzero"/><path fill="rgb(100%, 100%, 100%)" d="M 1169.734375 68.996094 L 1172.71875 64.167969 L 1169.734375 68.996094 " fill-opacity="1" fill-rule="nonzero"/><path fill="rgb(93.728638%, 18.429565%, 57.249451%)" d="M 1159.242188 132.660156 L 1155.476562 131.804688 L 1169.734375 68.996094 L 1173.503906 69.851562 L 1159.242188 132.660156 " fill-opacity="1" fill-rule="nonzero"/><path fill="rgb(98.039246%, 85.488892%, 79.219055%)" d="M 1173.503906 69.851562 L 1169.734375 68.996094 L 1172.71875 64.167969 L 1174.691406 64.613281 L 1173.503906 69.851562 " fill-opacity="1" fill-rule="nonzero"/><path fill="rgb(93.728638%, 18.429565%, 57.249451%)" d="M 1174.691406 64.613281 L 1172.71875 64.167969 L 1176 58.851562 L 1174.691406 64.613281 " fill-opacity="1" fill-rule="nonzero"/><g clip-path="url(#clip-2)"><path fill="rgb(92.549133%, 0%, 54.899597%)" d="M 1112.515625 59.515625 L 1106.816406 61.429688 L 1102.824219 49.5625 L 1108.519531 47.652344 L 1112.515625 59.515625 " fill-opacity="1" fill-rule="nonzero"/></g><path fill="rgb(52.549744%, 51.759338%, 51.759338%)" d="M 1145.875 109.949219 L 1146.671875 122.507812 L 1109.210938 68.269531 L 1115.550781 64.023438 L 1145.875 109.949219 " fill-opacity="1" fill-rule="nonzero"/><path fill="rgb(74.119568%, 73.728943%, 73.728943%)" d="M 1110.734375 121.75 L 1117.695312 132.238281 L 1114.738281 66.410156 L 1107.125 66.855469 L 1110.734375 121.75 " fill-opacity="1" fill-rule="nonzero"/><path fill="rgb(74.119568%, 73.728943%, 73.728943%)" d="M 1113.621094 57.996094 L 1105.011719 60.886719 L 1108.601562 71.546875 L 1117.210938 68.65625 L 1113.621094 57.996094 " fill-opacity="1" fill-rule="nonzero"/><path fill="rgb(92.549133%, 0%, 54.899597%)" d="M 1121.464844 68.621094 C 1122.972656 73.105469 1120.554688 77.964844 1116.0625 79.476562 C 1111.570312 80.984375 1106.703125 78.570312 1105.191406 74.082031 C 1103.679688 69.59375 1106.101562 64.734375 1110.589844 63.226562 C 1115.085938 61.714844 1119.953125 64.128906 1121.464844 68.621094 " fill-opacity="1" fill-rule="nonzero"/><path fill="rgb(100%, 100%, 100%)" d="M 1117.246094 70.035156 C 1117.972656 72.195312 1116.804688 74.535156 1114.644531 75.261719 C 1112.480469 75.988281 1110.136719 74.824219 1109.410156 72.667969 C 1108.683594 70.503906 1109.84375 68.164062 1112.007812 67.4375 C 1114.171875 66.710938 1116.515625 67.875 1117.246094 70.035156 " fill-opacity="1" fill-rule="nonzero"/><g clip-path="url(#clip-3)"><path fill="rgb(39.219666%, 78.819275%, 87.059021%)" d="M 1163.152344 175.535156 L 1115.980469 175.535156 L 1104.113281 98.046875 L 1175.019531 98.046875 L 1163.152344 175.535156 " fill-opacity="1" fill-rule="nonzero"/></g><g clip-path="url(#clip-4)"><path fill="rgb(32.548523%, 64.709473%, 72.158813%)" d="M 1178.566406 92.890625 L 1100.566406 92.890625 L 1100.566406 98.046875 L 1178.566406 98.046875 L 1178.566406 92.890625 " fill-opacity="1" fill-rule="nonzero"/></g><path fill="rgb(98.039246%, 98.429871%, 92.549133%)" d="M 21.183594 335.875 C 21.035156 328.144531 17.007812 321.527344 11.261719 318.347656 C 12.886719 316.964844 14.972656 316.109375 17.261719 316.0625 L 195.144531 313.699219 C 200.40625 313.597656 204.792969 317.816406 204.894531 323.078125 L 205.320312 344.78125 C 205.425781 350.042969 201.207031 354.433594 195.945312 354.535156 L 18.0625 356.902344 C 15.417969 356.953125 12.996094 355.910156 11.226562 354.195312 C 17.246094 350.953125 21.34375 343.9375 21.183594 335.875 " fill-opacity="1" fill-rule="nonzero"/><path fill="rgb(79.219055%, 58.81958%, 10.5896%)" d="M 202.777344 312.917969 L 202.777344 312.921875 L 202.78125 312.921875 Z M 202.777344 312.917969 " fill-opacity="1" fill-rule="nonzero"/><path fill="rgb(79.219055%, 58.81958%, 10.5896%)" d="M 203.59375 354.515625 L 203.589844 354.519531 Z M 203.59375 354.515625 " fill-opacity="1" fill-rule="nonzero"/><path fill="rgb(96.859741%, 61.178589%, 24.308777%)" d="M 7.015625 358.597656 C 7.609375 359.582031 8.5625 360.363281 9.71875 360.726562 C 12.328125 361.539062 189.996094 358.890625 198.550781 357.632812 C 202.136719 356.53125 205.199219 353.664062 206.570312 350.160156 C 207.65625 347.378906 207.535156 320.589844 205.789062 316.90625 C 203.492188 312.058594 198.023438 309.132812 192.757812 309.234375 C 184.671875 309.394531 28.949219 311.324219 13.113281 311.613281 C 10.867188 311.652344 8.375 311.792969 6.800781 313.398438 C 5.382812 314.839844 5.878906 317.660156 8.492188 319.230469 C 11.773438 321.199219 193.222656 317.480469 195.933594 319.824219 C 198.398438 321.953125 198.199219 340.074219 197.746094 344.523438 C 197.375 348.160156 194.472656 349.070312 191.207031 349.132812 C 159.246094 349.292969 12.898438 352.234375 9.4375 352.898438 C 8.34375 353.105469 6.84375 354.074219 6.632812 354.617188 C 6.097656 355.988281 6.308594 357.433594 7.015625 358.597656 " fill-opacity="1" fill-rule="nonzero"/><path fill="rgb(83.139038%, 83.139038%, 76.078796%)" d="M 27.714844 347.316406 L 188.824219 344.441406 C 189.222656 344.429688 189.539062 344.09375 189.527344 343.695312 C 189.515625 343.292969 189.183594 342.976562 188.78125 342.988281 L 27.675781 345.863281 C 27.273438 345.878906 26.960938 346.210938 26.96875 346.613281 C 26.980469 347.015625 27.3125 347.328125 27.714844 347.316406 " fill-opacity="1" fill-rule="nonzero"/><path fill="rgb(83.139038%, 83.139038%, 76.078796%)" d="M 27.203125 338.320312 L 188.308594 335.445312 C 188.710938 335.433594 189.023438 335.097656 189.015625 334.699219 C 189.003906 334.296875 188.667969 333.980469 188.269531 333.992188 L 27.160156 336.867188 C 26.761719 336.878906 26.445312 337.210938 26.457031 337.613281 C 26.46875 338.015625 26.800781 338.332031 27.203125 338.320312 " fill-opacity="1" fill-rule="nonzero"/><path fill="rgb(83.139038%, 83.139038%, 76.078796%)" d="M 39.152344 341.792969 L 188.269531 339.878906 C 188.671875 339.867188 188.988281 339.53125 188.976562 339.132812 C 188.964844 338.730469 188.632812 338.414062 188.230469 338.425781 L 39.113281 340.339844 C 38.710938 340.351562 38.394531 340.6875 38.40625 341.085938 C 38.417969 341.488281 38.75 341.804688 39.152344 341.792969 " fill-opacity="1" fill-rule="nonzero"/><path fill="rgb(83.139038%, 83.139038%, 76.078796%)" d="M 26.941406 331.046875 L 188.050781 328.171875 C 188.449219 328.160156 188.765625 327.824219 188.753906 327.425781 C 188.742188 327.023438 188.410156 326.707031 188.007812 326.71875 L 26.902344 329.59375 C 26.5 329.609375 26.1875 329.941406 26.199219 330.34375 C 26.210938 330.742188 26.542969 331.058594 26.941406 331.046875 " fill-opacity="1" fill-rule="nonzero"/><path fill="rgb(83.139038%, 83.139038%, 76.078796%)" d="M 25.675781 326.863281 L 187.949219 323.8125 C 188.351562 323.800781 188.671875 323.46875 188.660156 323.066406 C 188.648438 322.664062 188.3125 322.351562 187.910156 322.359375 L 25.632812 325.410156 C 25.230469 325.421875 24.910156 325.757812 24.925781 326.15625 C 24.933594 326.558594 25.269531 326.875 25.675781 326.863281 " fill-opacity="1" fill-rule="nonzero"/><path fill="rgb(98.039246%, 98.429871%, 92.549133%)" d="M 201.703125 204.570312 C 201.597656 196.839844 205.402344 190.089844 211.042969 186.726562 C 209.371094 185.394531 207.257812 184.609375 204.972656 184.640625 L 27.105469 188.160156 C 21.84375 188.230469 17.601562 192.59375 17.667969 197.855469 L 17.960938 219.558594 C 18.03125 224.824219 22.390625 229.070312 27.652344 229 L 205.515625 225.480469 C 208.160156 225.445312 210.546875 224.324219 212.261719 222.546875 C 206.136719 219.507812 201.8125 212.632812 201.703125 204.570312 " fill-opacity="1" fill-rule="nonzero"/><g clip-path="url(#clip-5)"><path fill="rgb(51.759338%, 73.728943%, 66.268921%)" d="M 216.613281 226.8125 C 216.050781 227.816406 215.125 228.628906 213.980469 229.027344 C 211.402344 229.925781 33.742188 233.15625 25.152344 232.183594 C 21.527344 231.199219 18.378906 228.433594 16.890625 224.980469 C 15.707031 222.234375 14.949219 195.453125 16.574219 191.714844 C 18.710938 186.792969 24.078125 183.6875 29.34375 183.617188 C 37.433594 183.507812 193.132812 180.289062 208.96875 180.050781 C 211.214844 180.019531 213.710938 180.078125 215.339844 181.628906 C 216.804688 183.023438 216.402344 185.855469 213.839844 187.511719 C 210.625 189.589844 29.152344 191.875 26.519531 194.304688 C 24.125 196.515625 24.921875 214.621094 25.523438 219.050781 C 26.015625 222.671875 28.945312 223.488281 32.210938 223.445312 C 64.15625 222.546875 210.523438 220.644531 214.003906 221.195312 C 215.101562 221.367188 216.632812 222.285156 216.863281 222.820312 C 217.445312 224.171875 217.28125 225.625 216.613281 226.8125 " fill-opacity="1" fill-rule="nonzero"/></g><path fill="rgb(83.139038%, 83.139038%, 76.078796%)" d="M 195.550781 216.222656 L 34.4375 218.675781 C 34.039062 218.675781 33.710938 218.351562 33.710938 217.953125 C 33.707031 217.550781 34.03125 217.222656 34.429688 217.222656 L 195.542969 214.769531 C 195.945312 214.765625 196.273438 215.089844 196.273438 215.492188 C 196.277344 215.894531 195.953125 216.21875 195.550781 216.222656 " fill-opacity="1" fill-rule="nonzero"/><path fill="rgb(83.139038%, 83.139038%, 76.078796%)" d="M 195.769531 207.214844 L 34.65625 209.664062 C 34.253906 209.667969 33.925781 209.34375 33.925781 208.941406 C 33.921875 208.539062 34.246094 208.214844 34.648438 208.214844 L 195.761719 205.757812 C 196.160156 205.757812 196.488281 206.082031 196.488281 206.480469 C 196.492188 206.882812 196.167969 207.210938 195.769531 207.214844 " fill-opacity="1" fill-rule="nonzero"/><path fill="rgb(83.139038%, 83.139038%, 76.078796%)" d="M 183.941406 211.078125 L 34.839844 214.097656 C 34.4375 214.097656 34.113281 213.773438 34.109375 213.375 C 34.109375 212.972656 34.429688 212.644531 34.832031 212.640625 L 183.929688 209.625 C 184.332031 209.621094 184.660156 209.949219 184.660156 210.347656 C 184.664062 210.75 184.339844 211.078125 183.941406 211.078125 " fill-opacity="1" fill-rule="nonzero"/><path fill="rgb(83.139038%, 83.139038%, 76.078796%)" d="M 195.789062 199.9375 L 34.675781 202.386719 C 34.273438 202.390625 33.949219 202.066406 33.945312 201.664062 C 33.945312 201.265625 34.265625 200.9375 34.667969 200.9375 L 195.78125 198.484375 C 196.183594 198.480469 196.507812 198.804688 196.511719 199.207031 C 196.511719 199.605469 196.1875 199.933594 195.789062 199.9375 " fill-opacity="1" fill-rule="nonzero"/><path fill="rgb(83.139038%, 83.139038%, 76.078796%)" d="M 196.917969 195.710938 L 34.632812 198.027344 C 34.230469 198.03125 33.898438 197.707031 33.898438 197.308594 C 33.894531 196.90625 34.21875 196.578125 34.621094 196.578125 L 196.910156 194.257812 C 197.3125 194.253906 197.644531 194.578125 197.644531 194.980469 C 197.648438 195.382812 197.324219 195.707031 196.917969 195.710938 " fill-opacity="1" fill-rule="nonzero"/><path fill="rgb(98.039246%, 77.648926%, 3.138733%)" d="M 187.386719 255.609375 C 187.449219 261.914062 182.398438 267.066406 176.117188 267.136719 L 164.070312 267.257812 L 151.515625 267.382812 L 137.328125 267.523438 L 124.773438 267.644531 L 11.734375 268.777344 C 5.441406 268.839844 0.300781 263.78125 0.238281 257.488281 L 0.0859375 242.265625 C 0.015625 235.964844 5.066406 230.8125 11.359375 230.75 L 124.773438 229.609375 L 137.328125 229.484375 L 151.515625 229.34375 L 164.070312 229.210938 L 175.730469 229.097656 C 182.023438 229.039062 187.164062 234.097656 187.234375 240.390625 L 187.386719 255.609375 " fill-opacity="1" fill-rule="nonzero"/><path fill="rgb(96.469116%, 55.288696%, 6.669617%)" d="M 137.328125 229.484375 L 137.328125 267.523438 L 124.773438 267.644531 L 124.773438 229.609375 L 137.328125 229.484375 " fill-opacity="1" fill-rule="nonzero"/><path fill="rgb(96.469116%, 55.288696%, 6.669617%)" d="M 164.070312 229.210938 L 164.070312 267.257812 L 151.515625 267.382812 L 151.515625 229.34375 L 164.070312 229.210938 " fill-opacity="1" fill-rule="nonzero"/><path fill="rgb(92.939758%, 34.509277%, 43.139648%)" d="M 18.925781 296.730469 C 18.863281 304.070312 24.074219 310.070312 30.554688 310.152344 L 42.984375 310.292969 L 55.933594 310.4375 L 70.570312 310.601562 L 83.523438 310.746094 L 200.140625 312.0625 C 206.632812 312.136719 211.9375 306.242188 212 298.914062 L 212.15625 281.191406 C 212.230469 273.851562 207.019531 267.851562 200.527344 267.78125 L 83.523438 266.449219 L 70.570312 266.308594 L 55.933594 266.140625 L 42.984375 265.988281 L 30.953125 265.855469 C 24.460938 265.785156 19.15625 271.675781 19.082031 279.003906 L 18.925781 296.730469 " fill-opacity="1" fill-rule="nonzero"/><path fill="rgb(96.078491%, 77.249146%, 21.958923%)" d="M 40.679688 302.0625 L 103.527344 302.0625 C 106.472656 302.0625 108.859375 299.667969 108.859375 296.714844 L 108.859375 278.007812 C 108.859375 275.054688 106.472656 272.664062 103.527344 272.664062 L 40.679688 272.664062 C 37.734375 272.664062 35.34375 275.054688 35.34375 278.007812 L 35.34375 296.714844 C 35.34375 299.667969 37.734375 302.0625 40.679688 302.0625 " fill-opacity="1" fill-rule="nonzero"/><path fill="rgb(92.939758%, 34.509277%, 43.139648%)" d="M 164.070312 339.46875 L 164.324219 372.003906 L 170.429688 361.851562 L 177.769531 371.175781 L 177.242188 339.265625 C 177.242188 339.265625 168.542969 339.226562 164.070312 339.46875 " fill-opacity="1" fill-rule="nonzero"/><path fill="rgb(98.039246%, 98.429871%, 92.549133%)" d="M 538.523438 335.875 C 538.375 328.144531 534.351562 321.527344 528.605469 318.347656 C 530.226562 316.964844 532.3125 316.109375 534.601562 316.0625 L 712.484375 313.699219 C 717.746094 313.597656 722.132812 317.816406 722.238281 323.078125 L 722.660156 344.78125 C 722.765625 350.042969 718.546875 354.433594 713.285156 354.535156 L 535.402344 356.902344 C 532.757812 356.953125 530.335938 355.910156 528.566406 354.195312 C 534.585938 350.953125 538.683594 343.9375 538.523438 335.875 " fill-opacity="1" fill-rule="nonzero"/><path fill="rgb(79.219055%, 58.81958%, 10.5896%)" d="M 720.117188 312.917969 L 720.117188 312.921875 L 720.121094 312.921875 Z M 720.117188 312.917969 " fill-opacity="1" fill-rule="nonzero"/><path fill="rgb(79.219055%, 58.81958%, 10.5896%)" d="M 720.933594 354.515625 L 720.929688 354.519531 Z M 720.933594 354.515625 " fill-opacity="1" fill-rule="nonzero"/><path fill="rgb(96.859741%, 61.178589%, 24.308777%)" d="M 524.355469 358.597656 C 524.949219 359.582031 525.902344 360.363281 527.058594 360.726562 C 529.667969 361.539062 707.335938 358.890625 715.890625 357.632812 C 719.476562 356.53125 722.539062 353.664062 723.910156 350.160156 C 724.996094 347.378906 724.875 320.589844 723.132812 316.90625 C 720.832031 312.058594 715.363281 309.132812 710.097656 309.234375 C 702.011719 309.394531 546.292969 311.324219 530.453125 311.613281 C 528.207031 311.652344 525.714844 311.792969 524.140625 313.398438 C 522.722656 314.839844 523.21875 317.660156 525.832031 319.230469 C 529.113281 321.199219 710.5625 317.480469 713.277344 319.824219 C 715.742188 321.953125 715.539062 340.074219 715.085938 344.523438 C 714.714844 348.160156 711.8125 349.070312 708.546875 349.132812 C 676.585938 349.292969 530.242188 352.234375 526.78125 352.898438 C 525.683594 353.105469 524.183594 354.074219 523.972656 354.617188 C 523.4375 355.988281 523.648438 357.433594 524.355469 358.597656 " fill-opacity="1" fill-rule="nonzero"/><path fill="rgb(83.139038%, 83.139038%, 76.078796%)" d="M 545.054688 347.316406 L 706.164062 344.441406 C 706.5625 344.429688 706.878906 344.09375 706.867188 343.695312 C 706.855469 343.292969 706.523438 342.976562 706.121094 342.988281 L 545.015625 345.863281 C 544.613281 345.878906 544.300781 346.210938 544.308594 346.613281 C 544.320312 347.015625 544.652344 347.328125 545.054688 347.316406 " fill-opacity="1" fill-rule="nonzero"/><path fill="rgb(83.139038%, 83.139038%, 76.078796%)" d="M 544.542969 338.320312 L 705.648438 335.445312 C 706.050781 335.433594 706.367188 335.097656 706.355469 334.699219 C 706.34375 334.296875 706.007812 333.980469 705.609375 333.992188 L 544.503906 336.867188 C 544.101562 336.878906 543.785156 337.210938 543.796875 337.613281 C 543.808594 338.015625 544.140625 338.332031 544.542969 338.320312 " fill-opacity="1" fill-rule="nonzero"/><path fill="rgb(83.139038%, 83.139038%, 76.078796%)" d="M 556.492188 341.792969 L 705.609375 339.878906 C 706.011719 339.867188 706.328125 339.53125 706.316406 339.132812 C 706.304688 338.730469 705.972656 338.414062 705.570312 338.425781 L 556.453125 340.339844 C 556.050781 340.351562 555.734375 340.6875 555.746094 341.085938 C 555.757812 341.488281 556.09375 341.804688 556.492188 341.792969 " fill-opacity="1" fill-rule="nonzero"/><path fill="rgb(83.139038%, 83.139038%, 76.078796%)" d="M 544.28125 331.046875 L 705.390625 328.171875 C 705.789062 328.160156 706.105469 327.824219 706.09375 327.425781 C 706.082031 327.023438 705.75 326.707031 705.347656 326.71875 L 544.242188 329.59375 C 543.84375 329.609375 543.527344 329.941406 543.539062 330.34375 C 543.550781 330.742188 543.882812 331.058594 544.28125 331.046875 " fill-opacity="1" fill-rule="nonzero"/><path fill="rgb(83.139038%, 83.139038%, 76.078796%)" d="M 543.015625 326.863281 L 705.289062 323.8125 C 705.691406 323.800781 706.011719 323.46875 706 323.066406 C 705.988281 322.664062 705.652344 322.351562 705.25 322.359375 L 542.976562 325.410156 C 542.570312 325.421875 542.253906 325.757812 542.265625 326.15625 C 542.273438 326.558594 542.609375 326.875 543.015625 326.863281 " fill-opacity="1" fill-rule="nonzero"/><path fill="rgb(98.039246%, 98.429871%, 92.549133%)" d="M 719.042969 204.570312 C 718.941406 196.839844 722.742188 190.089844 728.382812 186.726562 C 726.710938 185.394531 724.597656 184.609375 722.3125 184.640625 L 544.445312 188.160156 C 539.183594 188.230469 534.941406 192.59375 535.011719 197.855469 L 535.300781 219.558594 C 535.371094 224.824219 539.734375 229.070312 544.992188 229 L 722.855469 225.480469 C 725.5 225.445312 727.886719 224.324219 729.601562 222.546875 C 723.476562 219.507812 719.152344 212.632812 719.042969 204.570312 " fill-opacity="1" fill-rule="nonzero"/><g clip-path="url(#clip-6)"><path fill="rgb(51.759338%, 73.728943%, 66.268921%)" d="M 733.953125 226.8125 C 733.390625 227.816406 732.464844 228.628906 731.324219 229.027344 C 728.742188 229.925781 551.082031 233.15625 542.492188 232.183594 C 538.867188 231.199219 535.71875 228.433594 534.230469 224.980469 C 533.050781 222.234375 532.289062 195.453125 533.914062 191.714844 C 536.050781 186.792969 541.417969 183.6875 546.683594 183.617188 C 554.773438 183.507812 710.472656 180.289062 726.308594 180.050781 C 728.554688 180.019531 731.050781 180.078125 732.679688 181.628906 C 734.144531 183.023438 733.742188 185.855469 731.179688 187.511719 C 727.964844 189.589844 546.492188 191.875 543.859375 194.304688 C 541.464844 196.515625 542.261719 214.621094 542.863281 219.050781 C 543.355469 222.671875 546.285156 223.488281 549.550781 223.445312 C 581.496094 222.546875 727.863281 220.644531 731.34375 221.195312 C 732.445312 221.367188 733.972656 222.285156 734.203125 222.820312 C 734.785156 224.171875 734.621094 225.625 733.953125 226.8125 " fill-opacity="1" fill-rule="nonzero"/></g><path fill="rgb(83.139038%, 83.139038%, 76.078796%)" d="M 712.890625 216.222656 L 551.777344 218.675781 C 551.378906 218.675781 551.050781 218.351562 551.050781 217.953125 C 551.046875 217.550781 551.371094 217.222656 551.769531 217.222656 L 712.882812 214.769531 C 713.285156 214.765625 713.613281 215.089844 713.613281 215.492188 C 713.617188 215.894531 713.292969 216.21875 712.890625 216.222656 " fill-opacity="1" fill-rule="nonzero"/><path fill="rgb(83.139038%, 83.139038%, 76.078796%)" d="M 713.109375 207.214844 L 551.996094 209.664062 C 551.59375 209.667969 551.269531 209.34375 551.265625 208.941406 C 551.261719 208.539062 551.585938 208.214844 551.988281 208.214844 L 713.101562 205.757812 C 713.503906 205.757812 713.828125 206.082031 713.828125 206.480469 C 713.832031 206.882812 713.511719 207.210938 713.109375 207.214844 " fill-opacity="1" fill-rule="nonzero"/><path fill="rgb(83.139038%, 83.139038%, 76.078796%)" d="M 701.28125 211.078125 L 552.179688 214.097656 C 551.777344 214.097656 551.453125 213.773438 551.449219 213.375 C 551.449219 212.972656 551.769531 212.644531 552.171875 212.640625 L 701.273438 209.625 C 701.671875 209.621094 702 209.949219 702.003906 210.347656 C 702.003906 210.75 701.679688 211.078125 701.28125 211.078125 " fill-opacity="1" fill-rule="nonzero"/><path fill="rgb(83.139038%, 83.139038%, 76.078796%)" d="M 713.128906 199.9375 L 552.015625 202.386719 C 551.613281 202.390625 551.289062 202.066406 551.285156 201.664062 C 551.285156 201.265625 551.605469 200.9375 552.007812 200.9375 L 713.121094 198.484375 C 713.523438 198.480469 713.847656 198.804688 713.851562 199.207031 C 713.851562 199.605469 713.53125 199.933594 713.128906 199.9375 " fill-opacity="1" fill-rule="nonzero"/><path fill="rgb(83.139038%, 83.139038%, 76.078796%)" d="M 714.261719 195.710938 L 551.972656 198.027344 C 551.570312 198.03125 551.238281 197.707031 551.238281 197.308594 C 551.234375 196.90625 551.558594 196.578125 551.964844 196.578125 L 714.25 194.257812 C 714.652344 194.253906 714.984375 194.578125 714.984375 194.980469 C 714.988281 195.382812 714.664062 195.707031 714.261719 195.710938 " fill-opacity="1" fill-rule="nonzero"/><g clip-path="url(#clip-7)"><path fill="rgb(98.039246%, 77.648926%, 3.138733%)" d="M 704.726562 255.609375 C 704.789062 261.914062 699.738281 267.066406 693.457031 267.136719 L 681.410156 267.257812 L 668.855469 267.382812 L 654.667969 267.523438 L 642.113281 267.644531 L 529.074219 268.777344 C 522.78125 268.839844 517.640625 263.78125 517.578125 257.488281 L 517.425781 242.265625 C 517.355469 235.964844 522.40625 230.8125 528.699219 230.75 L 642.113281 229.609375 L 654.667969 229.484375 L 668.855469 229.34375 L 681.410156 229.210938 L 693.070312 229.097656 C 699.363281 229.039062 704.503906 234.097656 704.578125 240.390625 L 704.726562 255.609375 " fill-opacity="1" fill-rule="nonzero"/></g><path fill="rgb(96.469116%, 55.288696%, 6.669617%)" d="M 654.667969 229.484375 L 654.667969 267.523438 L 642.113281 267.644531 L 642.113281 229.609375 L 654.667969 229.484375 " fill-opacity="1" fill-rule="nonzero"/><path fill="rgb(96.469116%, 55.288696%, 6.669617%)" d="M 681.410156 229.210938 L 681.410156 267.257812 L 668.855469 267.382812 L 668.855469 229.34375 L 681.410156 229.210938 " fill-opacity="1" fill-rule="nonzero"/><path fill="rgb(92.939758%, 34.509277%, 43.139648%)" d="M 536.265625 296.730469 C 536.203125 304.070312 541.414062 310.070312 547.894531 310.152344 L 560.324219 310.292969 L 573.273438 310.4375 L 587.910156 310.601562 L 600.863281 310.746094 L 717.480469 312.0625 C 723.972656 312.136719 729.277344 306.242188 729.339844 298.914062 L 729.5 281.191406 C 729.570312 273.851562 724.359375 267.851562 717.867188 267.78125 L 600.863281 266.449219 L 587.910156 266.308594 L 573.273438 266.140625 L 560.324219 265.988281 L 548.292969 265.855469 C 541.800781 265.785156 536.496094 271.675781 536.421875 279.003906 L 536.265625 296.730469 " fill-opacity="1" fill-rule="nonzero"/><path fill="rgb(96.078491%, 77.249146%, 21.958923%)" d="M 558.019531 302.0625 L 620.867188 302.0625 C 623.8125 302.0625 626.203125 299.667969 626.203125 296.714844 L 626.203125 278.007812 C 626.203125 275.054688 623.8125 272.664062 620.867188 272.664062 L 558.019531 272.664062 C 555.074219 272.664062 552.683594 275.054688 552.683594 278.007812 L 552.683594 296.714844 C 552.683594 299.667969 555.074219 302.0625 558.019531 302.0625 " fill-opacity="1" fill-rule="nonzero"/><path fill="rgb(92.939758%, 34.509277%, 43.139648%)" d="M 681.410156 339.46875 L 681.664062 372.003906 L 687.769531 361.851562 L 695.109375 371.175781 L 694.582031 339.265625 C 694.582031 339.265625 685.882812 339.226562 681.410156 339.46875 " fill-opacity="1" fill-rule="nonzero"/><path fill="rgb(97.648621%, 67.059326%, 4.708862%)" d="M 701.148438 129.984375 L 693.789062 132.457031 L 673.222656 71.394531 L 680.582031 68.925781 L 701.148438 129.984375 " fill-opacity="1" fill-rule="nonzero"/><path fill="rgb(96.859741%, 73.329163%, 63.919067%)" d="M 673.28125 59.417969 L 673.222656 71.394531 L 680.582031 68.925781 L 673.28125 59.417969 " fill-opacity="1" fill-rule="nonzero"/><path fill="rgb(97.648621%, 67.059326%, 4.708862%)" d="M 677.117188 64.421875 L 673.277344 59.417969 L 673.246094 65.722656 L 677.117188 64.421875 " fill-opacity="1" fill-rule="nonzero"/><path fill="rgb(100%, 100%, 100%)" d="M 673.222656 71.394531 L 673.25 65.722656 L 673.222656 71.394531 " fill-opacity="1" fill-rule="nonzero"/><path fill="rgb(98.81897%, 79.60968%, 2.349854%)" d="M 693.371094 131.210938 L 673.222656 71.394531 L 676.882812 70.164062 L 694.40625 122.1875 L 693.371094 131.210938 " fill-opacity="1" fill-rule="nonzero"/><path fill="rgb(98.039246%, 85.488892%, 79.219055%)" d="M 673.222656 71.394531 L 673.25 65.722656 L 675.167969 65.078125 L 676.882812 70.164062 L 673.222656 71.394531 " fill-opacity="1" fill-rule="nonzero"/><path fill="rgb(98.81897%, 79.60968%, 2.349854%)" d="M 673.25 65.722656 L 673.28125 59.476562 L 675.167969 65.078125 L 673.25 65.722656 " fill-opacity="1" fill-rule="nonzero"/><path fill="rgb(50.19989%, 79.998779%, 15.689087%)" d="M 705.496094 130.601562 L 697.90625 132.238281 L 684.300781 69.265625 L 691.890625 67.628906 L 705.496094 130.601562 " fill-opacity="1" fill-rule="nonzero"/><path fill="rgb(96.859741%, 73.329163%, 63.919067%)" d="M 685.699219 57.367188 L 684.300781 69.265625 L 691.890625 67.628906 L 685.699219 57.367188 " fill-opacity="1" fill-rule="nonzero"/><path fill="rgb(50.19989%, 79.998779%, 15.689087%)" d="M 688.953125 62.769531 L 685.695312 57.371094 L 684.957031 63.632812 L 688.953125 62.769531 " fill-opacity="1" fill-rule="nonzero"/><path fill="rgb(70.588684%, 86.268616%, 9.408569%)" d="M 694.867188 118.167969 L 684.300781 69.265625 L 688.074219 68.453125 L 696.238281 106.222656 L 694.867188 118.167969 " fill-opacity="1" fill-rule="nonzero"/><path fill="rgb(98.039246%, 85.488892%, 79.219055%)" d="M 684.300781 69.265625 L 684.960938 63.632812 L 686.941406 63.203125 L 688.074219 68.453125 L 684.300781 69.265625 " fill-opacity="1" fill-rule="nonzero"/><path fill="rgb(70.588684%, 86.268616%, 9.408569%)" d="M 684.960938 63.632812 L 685.695312 57.425781 L 686.941406 63.203125 L 684.960938 63.632812 " fill-opacity="1" fill-rule="nonzero"/><path fill="rgb(96.078491%, 46.269226%, 8.239746%)" d="M 700.945312 133.324219 L 693.230469 132.4375 L 700.570312 68.4375 L 708.285156 69.316406 L 700.945312 133.324219 " fill-opacity="1" fill-rule="nonzero"/><path fill="rgb(96.859741%, 73.329163%, 63.919067%)" d="M 705.71875 57.617188 L 700.570312 68.4375 L 708.285156 69.316406 L 705.71875 57.617188 " fill-opacity="1" fill-rule="nonzero"/><path fill="rgb(96.078491%, 46.269226%, 8.239746%)" d="M 707.066406 63.773438 L 705.714844 57.617188 L 703.007812 63.308594 L 707.066406 63.773438 " fill-opacity="1" fill-rule="nonzero"/><path fill="rgb(100%, 100%, 100%)" d="M 700.570312 68.4375 L 703.011719 63.3125 L 700.570312 68.4375 " fill-opacity="1" fill-rule="nonzero"/><path fill="rgb(97.648621%, 65.098572%, 5.099487%)" d="M 697.070312 132.859375 L 693.234375 132.421875 L 700.570312 68.4375 L 704.410156 68.875 L 697.335938 130.535156 L 697.046875 131.824219 L 697.1875 131.855469 L 697.070312 132.859375 " fill-opacity="1" fill-rule="nonzero"/><path fill="rgb(98.039246%, 85.488892%, 79.219055%)" d="M 704.410156 68.875 L 700.570312 68.4375 L 703.011719 63.3125 L 705.023438 63.542969 L 704.410156 68.875 " fill-opacity="1" fill-rule="nonzero"/><path fill="rgb(97.648621%, 65.098572%, 5.099487%)" d="M 705.023438 63.542969 L 703.011719 63.3125 L 705.695312 57.667969 L 705.023438 63.542969 " fill-opacity="1" fill-rule="nonzero"/><path fill="rgb(92.939758%, 7.058716%, 48.629761%)" d="M 704.617188 133.539062 L 697.046875 131.824219 L 711.308594 68.996094 L 718.882812 70.710938 L 704.617188 133.539062 " fill-opacity="1" fill-rule="nonzero"/><path fill="rgb(96.859741%, 73.329163%, 63.919067%)" d="M 717.605469 58.800781 L 711.308594 68.996094 L 718.882812 70.710938 L 717.605469 58.800781 " fill-opacity="1" fill-rule="nonzero"/><path fill="rgb(92.939758%, 7.058716%, 48.629761%)" d="M 718.269531 65.070312 L 717.597656 58.800781 L 714.285156 64.167969 L 718.269531 65.070312 " fill-opacity="1" fill-rule="nonzero"/><path fill="rgb(100%, 100%, 100%)" d="M 711.308594 68.996094 L 714.292969 64.167969 L 711.308594 68.996094 " fill-opacity="1" fill-rule="nonzero"/><path fill="rgb(93.728638%, 18.429565%, 57.249451%)" d="M 700.816406 132.660156 L 697.050781 131.804688 L 711.308594 68.996094 L 715.078125 69.851562 L 700.816406 132.660156 " fill-opacity="1" fill-rule="nonzero"/><path fill="rgb(98.039246%, 85.488892%, 79.219055%)" d="M 715.078125 69.851562 L 711.308594 68.996094 L 714.292969 64.167969 L 716.265625 64.613281 L 715.078125 69.851562 " fill-opacity="1" fill-rule="nonzero"/><path fill="rgb(93.728638%, 18.429565%, 57.249451%)" d="M 716.265625 64.613281 L 714.292969 64.167969 L 717.574219 58.851562 L 716.265625 64.613281 " fill-opacity="1" fill-rule="nonzero"/><g clip-path="url(#clip-8)"><path fill="rgb(92.549133%, 0%, 54.899597%)" d="M 654.085938 59.515625 L 648.390625 61.429688 L 644.398438 49.5625 L 650.09375 47.652344 L 654.085938 59.515625 " fill-opacity="1" fill-rule="nonzero"/></g><path fill="rgb(52.549744%, 51.759338%, 51.759338%)" d="M 687.449219 109.949219 L 688.246094 122.507812 L 650.785156 68.269531 L 657.121094 64.023438 L 687.449219 109.949219 " fill-opacity="1" fill-rule="nonzero"/><path fill="rgb(74.119568%, 73.728943%, 73.728943%)" d="M 652.304688 121.75 L 659.265625 132.238281 L 656.3125 66.410156 L 648.699219 66.855469 L 652.304688 121.75 " fill-opacity="1" fill-rule="nonzero"/><path fill="rgb(74.119568%, 73.728943%, 73.728943%)" d="M 655.195312 57.996094 L 646.585938 60.886719 L 650.175781 71.546875 L 658.785156 68.65625 L 655.195312 57.996094 " fill-opacity="1" fill-rule="nonzero"/><path fill="rgb(92.549133%, 0%, 54.899597%)" d="M 663.035156 68.621094 C 664.546875 73.105469 662.128906 77.964844 657.636719 79.476562 C 653.144531 80.984375 648.277344 78.570312 646.765625 74.082031 C 645.253906 69.59375 647.671875 64.734375 652.164062 63.226562 C 656.660156 61.714844 661.523438 64.128906 663.035156 68.621094 " fill-opacity="1" fill-rule="nonzero"/><path fill="rgb(100%, 100%, 100%)" d="M 658.816406 70.035156 C 659.542969 72.195312 658.378906 74.535156 656.214844 75.261719 C 654.050781 75.988281 651.710938 74.824219 650.984375 72.667969 C 650.253906 70.503906 651.417969 68.164062 653.582031 67.4375 C 655.746094 66.710938 658.089844 67.875 658.816406 70.035156 " fill-opacity="1" fill-rule="nonzero"/><g clip-path="url(#clip-9)"><path fill="rgb(39.219666%, 78.819275%, 87.059021%)" d="M 704.726562 175.535156 L 657.554688 175.535156 L 645.683594 98.046875 L 716.59375 98.046875 L 704.726562 175.535156 " fill-opacity="1" fill-rule="nonzero"/></g><g clip-path="url(#clip-10)"><path fill="rgb(32.548523%, 64.709473%, 72.158813%)" d="M 720.140625 92.890625 L 642.140625 92.890625 L 642.140625 98.046875 L 720.140625 98.046875 L 720.140625 92.890625 " fill-opacity="1" fill-rule="nonzero"/></g><path fill="rgb(97.648621%, 67.059326%, 4.708862%)" d="M 198.765625 129.984375 L 191.410156 132.457031 L 170.839844 71.394531 L 178.199219 68.925781 L 198.765625 129.984375 " fill-opacity="1" fill-rule="nonzero"/><path fill="rgb(96.859741%, 73.329163%, 63.919067%)" d="M 170.902344 59.417969 L 170.839844 71.394531 L 178.199219 68.925781 L 170.902344 59.417969 " fill-opacity="1" fill-rule="nonzero"/><path fill="rgb(97.648621%, 67.059326%, 4.708862%)" d="M 174.738281 64.421875 L 170.894531 59.417969 L 170.863281 65.722656 L 174.738281 64.421875 " fill-opacity="1" fill-rule="nonzero"/><path fill="rgb(100%, 100%, 100%)" d="M 170.839844 71.394531 L 170.867188 65.722656 L 170.839844 71.394531 " fill-opacity="1" fill-rule="nonzero"/><path fill="rgb(98.81897%, 79.60968%, 2.349854%)" d="M 190.988281 131.210938 L 170.839844 71.394531 L 174.503906 70.164062 L 192.023438 122.1875 L 190.988281 131.210938 " fill-opacity="1" fill-rule="nonzero"/><path fill="rgb(98.039246%, 85.488892%, 79.219055%)" d="M 170.839844 71.394531 L 170.867188 65.722656 L 172.789062 65.078125 L 174.503906 70.164062 L 170.839844 71.394531 " fill-opacity="1" fill-rule="nonzero"/><path fill="rgb(98.81897%, 79.60968%, 2.349854%)" d="M 170.867188 65.722656 L 170.898438 59.476562 L 172.789062 65.078125 L 170.867188 65.722656 " fill-opacity="1" fill-rule="nonzero"/><path fill="rgb(50.19989%, 79.998779%, 15.689087%)" d="M 203.117188 130.601562 L 195.527344 132.238281 L 181.917969 69.265625 L 189.507812 67.628906 L 203.117188 130.601562 " fill-opacity="1" fill-rule="nonzero"/><path fill="rgb(96.859741%, 73.329163%, 63.919067%)" d="M 183.316406 57.367188 L 181.917969 69.265625 L 189.507812 67.628906 L 183.316406 57.367188 " fill-opacity="1" fill-rule="nonzero"/><path fill="rgb(50.19989%, 79.998779%, 15.689087%)" d="M 186.570312 62.769531 L 183.3125 57.371094 L 182.574219 63.632812 L 186.570312 62.769531 " fill-opacity="1" fill-rule="nonzero"/><path fill="rgb(70.588684%, 86.268616%, 9.408569%)" d="M 192.488281 118.167969 L 181.917969 69.265625 L 185.695312 68.453125 L 193.855469 106.222656 L 192.488281 118.167969 " fill-opacity="1" fill-rule="nonzero"/><path fill="rgb(98.039246%, 85.488892%, 79.219055%)" d="M 181.917969 69.265625 L 182.582031 63.632812 L 184.558594 63.203125 L 185.695312 68.453125 L 181.917969 69.265625 " fill-opacity="1" fill-rule="nonzero"/><path fill="rgb(70.588684%, 86.268616%, 9.408569%)" d="M 182.582031 63.632812 L 183.3125 57.425781 L 184.558594 63.203125 L 182.582031 63.632812 " fill-opacity="1" fill-rule="nonzero"/><path fill="rgb(96.078491%, 46.269226%, 8.239746%)" d="M 198.5625 133.324219 L 190.847656 132.4375 L 198.191406 68.4375 L 205.902344 69.316406 L 198.5625 133.324219 " fill-opacity="1" fill-rule="nonzero"/><path fill="rgb(96.859741%, 73.329163%, 63.919067%)" d="M 203.339844 57.617188 L 198.191406 68.4375 L 205.902344 69.316406 L 203.339844 57.617188 " fill-opacity="1" fill-rule="nonzero"/><path fill="rgb(96.078491%, 46.269226%, 8.239746%)" d="M 204.683594 63.773438 L 203.332031 57.617188 L 200.625 63.308594 L 204.683594 63.773438 " fill-opacity="1" fill-rule="nonzero"/><path fill="rgb(100%, 100%, 100%)" d="M 198.191406 68.4375 L 200.628906 63.3125 L 198.191406 68.4375 " fill-opacity="1" fill-rule="nonzero"/><path fill="rgb(97.648621%, 65.098572%, 5.099487%)" d="M 194.691406 132.859375 L 190.851562 132.421875 L 198.191406 68.4375 L 202.027344 68.875 L 194.957031 130.535156 L 194.664062 131.824219 L 194.804688 131.855469 L 194.691406 132.859375 " fill-opacity="1" fill-rule="nonzero"/><path fill="rgb(98.039246%, 85.488892%, 79.219055%)" d="M 202.027344 68.875 L 198.191406 68.4375 L 200.628906 63.3125 L 202.640625 63.542969 L 202.027344 68.875 " fill-opacity="1" fill-rule="nonzero"/><path fill="rgb(97.648621%, 65.098572%, 5.099487%)" d="M 202.640625 63.542969 L 200.628906 63.3125 L 203.316406 57.667969 L 202.640625 63.542969 " fill-opacity="1" fill-rule="nonzero"/><path fill="rgb(92.939758%, 7.058716%, 48.629761%)" d="M 202.234375 133.539062 L 194.664062 131.824219 L 208.925781 68.996094 L 216.5 70.710938 L 202.234375 133.539062 " fill-opacity="1" fill-rule="nonzero"/><path fill="rgb(96.859741%, 73.329163%, 63.919067%)" d="M 215.222656 58.800781 L 208.925781 68.996094 L 216.5 70.710938 L 215.222656 58.800781 " fill-opacity="1" fill-rule="nonzero"/><path fill="rgb(92.939758%, 7.058716%, 48.629761%)" d="M 215.890625 65.070312 L 215.21875 58.800781 L 211.90625 64.167969 L 215.890625 65.070312 " fill-opacity="1" fill-rule="nonzero"/><path fill="rgb(100%, 100%, 100%)" d="M 208.925781 68.996094 L 211.910156 64.167969 L 208.925781 68.996094 " fill-opacity="1" fill-rule="nonzero"/><path fill="rgb(93.728638%, 18.429565%, 57.249451%)" d="M 198.433594 132.660156 L 194.667969 131.804688 L 208.925781 68.996094 L 212.695312 69.851562 L 198.433594 132.660156 " fill-opacity="1" fill-rule="nonzero"/><path fill="rgb(98.039246%, 85.488892%, 79.219055%)" d="M 212.695312 69.851562 L 208.925781 68.996094 L 211.910156 64.167969 L 213.882812 64.613281 L 212.695312 69.851562 " fill-opacity="1" fill-rule="nonzero"/><path fill="rgb(93.728638%, 18.429565%, 57.249451%)" d="M 213.882812 64.613281 L 211.910156 64.167969 L 215.191406 58.851562 L 213.882812 64.613281 " fill-opacity="1" fill-rule="nonzero"/><g clip-path="url(#clip-11)"><path fill="rgb(92.549133%, 0%, 54.899597%)" d="M 151.707031 59.515625 L 146.007812 61.429688 L 142.015625 49.5625 L 147.710938 47.652344 L 151.707031 59.515625 " fill-opacity="1" fill-rule="nonzero"/></g><path fill="rgb(52.549744%, 51.759338%, 51.759338%)" d="M 185.066406 109.949219 L 185.863281 122.507812 L 148.402344 68.269531 L 154.742188 64.023438 L 185.066406 109.949219 " fill-opacity="1" fill-rule="nonzero"/><path fill="rgb(74.119568%, 73.728943%, 73.728943%)" d="M 149.925781 121.75 L 156.886719 132.238281 L 153.929688 66.410156 L 146.316406 66.855469 L 149.925781 121.75 " fill-opacity="1" fill-rule="nonzero"/><path fill="rgb(74.119568%, 73.728943%, 73.728943%)" d="M 152.8125 57.996094 L 144.203125 60.886719 L 147.792969 71.546875 L 156.402344 68.65625 L 152.8125 57.996094 " fill-opacity="1" fill-rule="nonzero"/><path fill="rgb(92.549133%, 0%, 54.899597%)" d="M 160.65625 68.621094 C 162.164062 73.105469 159.746094 77.964844 155.253906 79.476562 C 150.761719 80.984375 145.894531 78.570312 144.382812 74.082031 C 142.871094 69.59375 145.292969 64.734375 149.78125 63.226562 C 154.277344 61.714844 159.144531 64.128906 160.65625 68.621094 " fill-opacity="1" fill-rule="nonzero"/><path fill="rgb(100%, 100%, 100%)" d="M 156.4375 70.035156 C 157.164062 72.195312 155.996094 74.535156 153.835938 75.261719 C 151.671875 75.988281 149.328125 74.824219 148.601562 72.667969 C 147.875 70.503906 149.035156 68.164062 151.199219 67.4375 C 153.363281 66.710938 155.707031 67.875 156.4375 70.035156 " fill-opacity="1" fill-rule="nonzero"/><g clip-path="url(#clip-12)"><path fill="rgb(39.219666%, 78.819275%, 87.059021%)" d="M 202.34375 175.535156 L 155.171875 175.535156 L 143.304688 98.046875 L 214.210938 98.046875 L 202.34375 175.535156 " fill-opacity="1" fill-rule="nonzero"/></g><g clip-path="url(#clip-13)"><path fill="rgb(32.548523%, 64.709473%, 72.158813%)" d="M 217.757812 92.890625 L 139.757812 92.890625 L 139.757812 98.046875 L 217.757812 98.046875 L 217.757812 92.890625 " fill-opacity="1" fill-rule="nonzero"/></g><g clip-path="url(#clip-14)"><path fill="rgb(94.898987%, 50.19989%, 17.649841%)" d="M 887.136719 368.179688 L 925.582031 368.179688 C 932.640625 368.179688 938.359375 362.457031 938.359375 355.398438 L 938.359375 141.066406 C 938.359375 134.007812 932.640625 128.285156 925.582031 128.285156 L 887.136719 128.285156 C 880.082031 128.285156 874.363281 134.007812 874.363281 141.066406 L 874.363281 355.394531 C 874.363281 362.457031 880.082031 368.179688 887.136719 368.179688 " fill-opacity="1" fill-rule="nonzero"/></g><path fill="rgb(96.078491%, 77.249146%, 21.958923%)" d="M 889.574219 315.347656 L 923.148438 315.347656 C 926.40625 315.347656 929.046875 312.707031 929.046875 309.449219 L 929.046875 151.175781 C 929.046875 147.914062 926.40625 145.273438 923.148438 145.273438 L 889.574219 145.273438 C 886.316406 145.273438 883.675781 147.914062 883.675781 151.175781 L 883.675781 309.449219 C 883.675781 312.707031 886.316406 315.347656 889.574219 315.347656 " fill-opacity="1" fill-rule="nonzero"/><path fill="rgb(96.078491%, 77.249146%, 21.958923%)" d="M 836.480469 71.457031 L 836.480469 344.820312 C 836.480469 353.824219 839.34375 361.136719 842.871094 361.136719 L 862.097656 361.136719 C 865.621094 361.136719 868.488281 353.824219 868.488281 344.820312 L 868.488281 71.457031 C 868.488281 62.453125 865.621094 55.167969 862.097656 55.167969 L 842.871094 55.167969 C 839.34375 55.167969 836.480469 62.453125 836.480469 71.457031 " fill-opacity="1" fill-rule="nonzero"/><path fill="rgb(51.759338%, 73.728943%, 66.268921%)" d="M 836.480469 76.097656 L 836.480469 98.777344 L 868.488281 98.777344 L 868.488281 76.097656 L 836.480469 76.097656 " fill-opacity="1" fill-rule="nonzero"/><path fill="rgb(51.759338%, 73.728943%, 66.268921%)" d="M 836.480469 321.253906 L 836.480469 343.933594 L 868.488281 343.933594 L 868.488281 321.253906 L 836.480469 321.253906 " fill-opacity="1" fill-rule="nonzero"/><path fill="rgb(94.898987%, 50.19989%, 17.649841%)" d="M 801.660156 72.5 L 737.210938 338.148438 C 735.085938 346.898438 736.148438 354.679688 739.574219 355.511719 L 758.257812 360.050781 C 761.679688 360.882812 766.191406 354.457031 768.3125 345.707031 L 832.765625 80.054688 C 834.886719 71.304688 833.820312 63.550781 830.394531 62.71875 L 811.710938 58.179688 C 808.285156 57.347656 803.785156 63.75 801.660156 72.5 " fill-opacity="1" fill-rule="nonzero"/><path fill="rgb(96.078491%, 77.249146%, 21.958923%)" d="M 800.566406 77.011719 L 798.261719 86.5 L 829.367188 94.054688 L 831.667969 84.570312 L 800.566406 77.011719 " fill-opacity="1" fill-rule="nonzero"/><path fill="rgb(96.078491%, 77.249146%, 21.958923%)" d="M 795.664062 97.214844 L 793.363281 106.703125 L 824.46875 114.257812 L 826.769531 104.769531 L 795.664062 97.214844 " fill-opacity="1" fill-rule="nonzero"/><g clip-path="url(#clip-15)"><path fill="rgb(94.898987%, 50.19989%, 17.649841%)" d="M 351.648438 398.179688 L 390.09375 398.179688 C 397.148438 398.179688 402.871094 392.457031 402.871094 385.398438 L 402.871094 171.066406 C 402.871094 164.007812 397.148438 158.285156 390.09375 158.285156 L 351.648438 158.285156 C 344.59375 158.285156 338.871094 164.007812 338.871094 171.066406 L 338.871094 385.394531 C 338.871094 392.457031 344.59375 398.179688 351.648438 398.179688 " fill-opacity="1" fill-rule="nonzero"/></g><path fill="rgb(96.078491%, 77.249146%, 21.958923%)" d="M 354.082031 345.347656 L 387.660156 345.347656 C 390.917969 345.347656 393.558594 342.707031 393.558594 339.449219 L 393.558594 181.175781 C 393.558594 177.914062 390.917969 175.273438 387.660156 175.273438 L 354.082031 175.273438 C 350.824219 175.273438 348.183594 177.914062 348.183594 181.175781 L 348.183594 339.449219 C 348.183594 342.707031 350.824219 345.347656 354.082031 345.347656 " fill-opacity="1" fill-rule="nonzero"/><path fill="rgb(96.078491%, 77.249146%, 21.958923%)" d="M 300.988281 101.457031 L 300.988281 374.820312 C 300.988281 383.824219 303.851562 391.136719 307.378906 391.136719 L 326.609375 391.136719 C 330.132812 391.136719 332.996094 383.824219 332.996094 374.820312 L 332.996094 101.457031 C 332.996094 92.453125 330.132812 85.167969 326.609375 85.167969 L 307.378906 85.167969 C 303.851562 85.167969 300.988281 92.453125 300.988281 101.457031 " fill-opacity="1" fill-rule="nonzero"/><path fill="rgb(51.759338%, 73.728943%, 66.268921%)" d="M 300.988281 106.097656 L 300.988281 128.777344 L 332.996094 128.777344 L 332.996094 106.097656 L 300.988281 106.097656 " fill-opacity="1" fill-rule="nonzero"/><path fill="rgb(51.759338%, 73.728943%, 66.268921%)" d="M 300.988281 351.253906 L 300.988281 373.933594 L 332.996094 373.933594 L 332.996094 351.253906 L 300.988281 351.253906 " fill-opacity="1" fill-rule="nonzero"/><path fill="rgb(94.898987%, 50.19989%, 17.649841%)" d="M 266.171875 102.5 L 201.71875 368.148438 C 199.59375 376.898438 200.65625 384.679688 204.082031 385.511719 L 222.769531 390.050781 C 226.191406 390.882812 230.699219 384.457031 232.824219 375.707031 L 297.277344 110.054688 C 299.398438 101.304688 298.332031 93.550781 294.90625 92.71875 L 276.21875 88.179688 C 272.796875 87.347656 268.292969 93.75 266.171875 102.5 " fill-opacity="1" fill-rule="nonzero"/><path fill="rgb(96.078491%, 77.249146%, 21.958923%)" d="M 265.074219 107.011719 L 262.773438 116.5 L 293.878906 124.054688 L 296.179688 114.570312 L 265.074219 107.011719 " fill-opacity="1" fill-rule="nonzero"/><path fill="rgb(96.078491%, 77.249146%, 21.958923%)" d="M 260.175781 127.214844 L 257.871094 136.703125 L 288.976562 144.257812 L 291.28125 134.769531 L 260.175781 127.214844 " fill-opacity="1" fill-rule="nonzero"/></svg>