<?xml version="1.0" encoding="UTF-8"?><svg xmlns="http://www.w3.org/2000/svg" xmlns:xlink="http://www.w3.org/1999/xlink" contentScriptType="text/ecmascript" width="1440" zoomAndPan="magnify" contentStyleType="text/css" viewBox="0 0 1440 359.999987" height="359.999987" preserveAspectRatio="xMidYMid meet" version="1.0"><defs><clipPath id="clip-0"><path d="M 1367 128 L 1431.441406 128 L 1431.441406 360 L 1367 360 Z M 1367 128 " clip-rule="nonzero"/></clipPath><clipPath id="clip-1"><path d="M 1010.574219 229 L 1198 229 L 1198 269 L 1010.574219 269 Z M 1010.574219 229 " clip-rule="nonzero"/></clipPath><clipPath id="clip-2"><path d="M 1102 47.46875 L 1113 47.46875 L 1113 62 L 1102 62 Z M 1102 47.46875 " clip-rule="nonzero"/></clipPath><clipPath id="clip-3"><path d="M 1104 98 L 1176 98 L 1176 175.71875 L 1104 175.71875 Z M 1104 98 " clip-rule="nonzero"/></clipPath><clipPath id="clip-4"><path d="M 1100.550781 92 L 1178.550781 92 L 1178.550781 99 L 1100.550781 99 Z M 1100.550781 92 " clip-rule="nonzero"/></clipPath><clipPath id="clip-5"><path d="M 15 180 L 217.5 180 L 217.5 233 L 15 233 Z M 15 180 " clip-rule="nonzero"/></clipPath><clipPath id="clip-6"><path d="M 746 314 L 942 314 L 942 357 L 746 357 Z M 746 314 " clip-rule="nonzero"/></clipPath><clipPath id="clip-7"><path d="M 739.136719 177.828125 L 956.59375 182.207031 L 952.726562 374.167969 L 735.269531 369.789062 Z M 739.136719 177.828125 " clip-rule="nonzero"/></clipPath><clipPath id="clip-8"><path d="M 739.136719 177.828125 L 956.59375 182.207031 L 952.726562 374.167969 L 735.269531 369.789062 Z M 739.136719 177.828125 " clip-rule="nonzero"/></clipPath><clipPath id="clip-9"><path d="M 739.136719 177.828125 L 956.59375 182.207031 L 952.726562 374.167969 L 735.269531 369.789062 Z M 739.136719 177.828125 " clip-rule="nonzero"/></clipPath><clipPath id="clip-10"><path d="M 741 309 L 944 309 L 944 360 L 741 360 Z M 741 309 " clip-rule="nonzero"/></clipPath><clipPath id="clip-11"><path d="M 739.136719 177.828125 L 956.59375 182.207031 L 952.726562 374.167969 L 735.269531 369.789062 Z M 739.136719 177.828125 " clip-rule="nonzero"/></clipPath><clipPath id="clip-12"><path d="M 739.136719 177.828125 L 956.59375 182.207031 L 952.726562 374.167969 L 735.269531 369.789062 Z M 739.136719 177.828125 " clip-rule="nonzero"/></clipPath><clipPath id="clip-13"><path d="M 739.136719 177.828125 L 956.59375 182.207031 L 952.726562 374.167969 L 735.269531 369.789062 Z M 739.136719 177.828125 " clip-rule="nonzero"/></clipPath><clipPath id="clip-14"><path d="M 762 344 L 926 344 L 926 347 L 762 347 Z M 762 344 " clip-rule="nonzero"/></clipPath><clipPath id="clip-15"><path d="M 739.136719 177.828125 L 956.59375 182.207031 L 952.726562 374.167969 L 735.269531 369.789062 Z M 739.136719 177.828125 " clip-rule="nonzero"/></clipPath><clipPath id="clip-16"><path d="M 739.136719 177.828125 L 956.59375 182.207031 L 952.726562 374.167969 L 735.269531 369.789062 Z M 739.136719 177.828125 " clip-rule="nonzero"/></clipPath><clipPath id="clip-17"><path d="M 739.136719 177.828125 L 956.59375 182.207031 L 952.726562 374.167969 L 735.269531 369.789062 Z M 739.136719 177.828125 " clip-rule="nonzero"/></clipPath><clipPath id="clip-18"><path d="M 762 335 L 925 335 L 925 338 L 762 338 Z M 762 335 " clip-rule="nonzero"/></clipPath><clipPath id="clip-19"><path d="M 739.136719 177.828125 L 956.59375 182.207031 L 952.726562 374.167969 L 735.269531 369.789062 Z M 739.136719 177.828125 " clip-rule="nonzero"/></clipPath><clipPath id="clip-20"><path d="M 739.136719 177.828125 L 956.59375 182.207031 L 952.726562 374.167969 L 735.269531 369.789062 Z M 739.136719 177.828125 " clip-rule="nonzero"/></clipPath><clipPath id="clip-21"><path d="M 739.136719 177.828125 L 956.59375 182.207031 L 952.726562 374.167969 L 735.269531 369.789062 Z M 739.136719 177.828125 " clip-rule="nonzero"/></clipPath><clipPath id="clip-22"><path d="M 774 338 L 925 338 L 925 342 L 774 342 Z M 774 338 " clip-rule="nonzero"/></clipPath><clipPath id="clip-23"><path d="M 739.136719 177.828125 L 956.59375 182.207031 L 952.726562 374.167969 L 735.269531 369.789062 Z M 739.136719 177.828125 " clip-rule="nonzero"/></clipPath><clipPath id="clip-24"><path d="M 739.136719 177.828125 L 956.59375 182.207031 L 952.726562 374.167969 L 735.269531 369.789062 Z M 739.136719 177.828125 " clip-rule="nonzero"/></clipPath><clipPath id="clip-25"><path d="M 739.136719 177.828125 L 956.59375 182.207031 L 952.726562 374.167969 L 735.269531 369.789062 Z M 739.136719 177.828125 " clip-rule="nonzero"/></clipPath><clipPath id="clip-26"><path d="M 762 327 L 925 327 L 925 330 L 762 330 Z M 762 327 " clip-rule="nonzero"/></clipPath><clipPath id="clip-27"><path d="M 739.136719 177.828125 L 956.59375 182.207031 L 952.726562 374.167969 L 735.269531 369.789062 Z M 739.136719 177.828125 " clip-rule="nonzero"/></clipPath><clipPath id="clip-28"><path d="M 739.136719 177.828125 L 956.59375 182.207031 L 952.726562 374.167969 L 735.269531 369.789062 Z M 739.136719 177.828125 " clip-rule="nonzero"/></clipPath><clipPath id="clip-29"><path d="M 739.136719 177.828125 L 956.59375 182.207031 L 952.726562 374.167969 L 735.269531 369.789062 Z M 739.136719 177.828125 " clip-rule="nonzero"/></clipPath><clipPath id="clip-30"><path d="M 761 323 L 925 323 L 925 326 L 761 326 Z M 761 323 " clip-rule="nonzero"/></clipPath><clipPath id="clip-31"><path d="M 739.136719 177.828125 L 956.59375 182.207031 L 952.726562 374.167969 L 735.269531 369.789062 Z M 739.136719 177.828125 " clip-rule="nonzero"/></clipPath><clipPath id="clip-32"><path d="M 739.136719 177.828125 L 956.59375 182.207031 L 952.726562 374.167969 L 735.269531 369.789062 Z M 739.136719 177.828125 " clip-rule="nonzero"/></clipPath><clipPath id="clip-33"><path d="M 739.136719 177.828125 L 956.59375 182.207031 L 952.726562 374.167969 L 735.269531 369.789062 Z M 739.136719 177.828125 " clip-rule="nonzero"/></clipPath><clipPath id="clip-34"><path d="M 756 186 L 951 186 L 951 228 L 756 228 Z M 756 186 " clip-rule="nonzero"/></clipPath><clipPath id="clip-35"><path d="M 739.136719 177.828125 L 956.59375 182.207031 L 952.726562 374.167969 L 735.269531 369.789062 Z M 739.136719 177.828125 " clip-rule="nonzero"/></clipPath><clipPath id="clip-36"><path d="M 739.136719 177.828125 L 956.59375 182.207031 L 952.726562 374.167969 L 735.269531 369.789062 Z M 739.136719 177.828125 " clip-rule="nonzero"/></clipPath><clipPath id="clip-37"><path d="M 739.136719 177.828125 L 956.59375 182.207031 L 952.726562 374.167969 L 735.269531 369.789062 Z M 739.136719 177.828125 " clip-rule="nonzero"/></clipPath><clipPath id="clip-38"><path d="M 758 227 L 759 227 L 759 228 L 758 228 Z M 758 227 " clip-rule="nonzero"/></clipPath><clipPath id="clip-39"><path d="M 739.136719 177.828125 L 956.59375 182.207031 L 952.726562 374.167969 L 735.269531 369.789062 Z M 739.136719 177.828125 " clip-rule="nonzero"/></clipPath><clipPath id="clip-40"><path d="M 739.136719 177.828125 L 956.59375 182.207031 L 952.726562 374.167969 L 735.269531 369.789062 Z M 739.136719 177.828125 " clip-rule="nonzero"/></clipPath><clipPath id="clip-41"><path d="M 739.136719 177.828125 L 956.59375 182.207031 L 952.726562 374.167969 L 735.269531 369.789062 Z M 739.136719 177.828125 " clip-rule="nonzero"/></clipPath><clipPath id="clip-42"><path d="M 754 182 L 956 182 L 956 232 L 754 232 Z M 754 182 " clip-rule="nonzero"/></clipPath><clipPath id="clip-43"><path d="M 739.136719 177.828125 L 956.59375 182.207031 L 952.726562 374.167969 L 735.269531 369.789062 Z M 739.136719 177.828125 " clip-rule="nonzero"/></clipPath><clipPath id="clip-44"><path d="M 739.136719 177.828125 L 956.59375 182.207031 L 952.726562 374.167969 L 735.269531 369.789062 Z M 739.136719 177.828125 " clip-rule="nonzero"/></clipPath><clipPath id="clip-45"><path d="M 739.136719 177.828125 L 956.59375 182.207031 L 952.726562 374.167969 L 735.269531 369.789062 Z M 739.136719 177.828125 " clip-rule="nonzero"/></clipPath><clipPath id="clip-46"><path d="M 772 215 L 935 215 L 935 218 L 772 218 Z M 772 215 " clip-rule="nonzero"/></clipPath><clipPath id="clip-47"><path d="M 739.136719 177.828125 L 956.59375 182.207031 L 952.726562 374.167969 L 735.269531 369.789062 Z M 739.136719 177.828125 " clip-rule="nonzero"/></clipPath><clipPath id="clip-48"><path d="M 739.136719 177.828125 L 956.59375 182.207031 L 952.726562 374.167969 L 735.269531 369.789062 Z M 739.136719 177.828125 " clip-rule="nonzero"/></clipPath><clipPath id="clip-49"><path d="M 739.136719 177.828125 L 956.59375 182.207031 L 952.726562 374.167969 L 735.269531 369.789062 Z M 739.136719 177.828125 " clip-rule="nonzero"/></clipPath><clipPath id="clip-50"><path d="M 772 206 L 936 206 L 936 209 L 772 209 Z M 772 206 " clip-rule="nonzero"/></clipPath><clipPath id="clip-51"><path d="M 739.136719 177.828125 L 956.59375 182.207031 L 952.726562 374.167969 L 735.269531 369.789062 Z M 739.136719 177.828125 " clip-rule="nonzero"/></clipPath><clipPath id="clip-52"><path d="M 739.136719 177.828125 L 956.59375 182.207031 L 952.726562 374.167969 L 735.269531 369.789062 Z M 739.136719 177.828125 " clip-rule="nonzero"/></clipPath><clipPath id="clip-53"><path d="M 739.136719 177.828125 L 956.59375 182.207031 L 952.726562 374.167969 L 735.269531 369.789062 Z M 739.136719 177.828125 " clip-rule="nonzero"/></clipPath><clipPath id="clip-54"><path d="M 772 211 L 924 211 L 924 213 L 772 213 Z M 772 211 " clip-rule="nonzero"/></clipPath><clipPath id="clip-55"><path d="M 739.136719 177.828125 L 956.59375 182.207031 L 952.726562 374.167969 L 735.269531 369.789062 Z M 739.136719 177.828125 " clip-rule="nonzero"/></clipPath><clipPath id="clip-56"><path d="M 739.136719 177.828125 L 956.59375 182.207031 L 952.726562 374.167969 L 735.269531 369.789062 Z M 739.136719 177.828125 " clip-rule="nonzero"/></clipPath><clipPath id="clip-57"><path d="M 739.136719 177.828125 L 956.59375 182.207031 L 952.726562 374.167969 L 735.269531 369.789062 Z M 739.136719 177.828125 " clip-rule="nonzero"/></clipPath><clipPath id="clip-58"><path d="M 772 199 L 936 199 L 936 202 L 772 202 Z M 772 199 " clip-rule="nonzero"/></clipPath><clipPath id="clip-59"><path d="M 739.136719 177.828125 L 956.59375 182.207031 L 952.726562 374.167969 L 735.269531 369.789062 Z M 739.136719 177.828125 " clip-rule="nonzero"/></clipPath><clipPath id="clip-60"><path d="M 739.136719 177.828125 L 956.59375 182.207031 L 952.726562 374.167969 L 735.269531 369.789062 Z M 739.136719 177.828125 " clip-rule="nonzero"/></clipPath><clipPath id="clip-61"><path d="M 739.136719 177.828125 L 956.59375 182.207031 L 952.726562 374.167969 L 735.269531 369.789062 Z M 739.136719 177.828125 " clip-rule="nonzero"/></clipPath><clipPath id="clip-62"><path d="M 772 195 L 937 195 L 937 198 L 772 198 Z M 772 195 " clip-rule="nonzero"/></clipPath><clipPath id="clip-63"><path d="M 739.136719 177.828125 L 956.59375 182.207031 L 952.726562 374.167969 L 735.269531 369.789062 Z M 739.136719 177.828125 " clip-rule="nonzero"/></clipPath><clipPath id="clip-64"><path d="M 739.136719 177.828125 L 956.59375 182.207031 L 952.726562 374.167969 L 735.269531 369.789062 Z M 739.136719 177.828125 " clip-rule="nonzero"/></clipPath><clipPath id="clip-65"><path d="M 739.136719 177.828125 L 956.59375 182.207031 L 952.726562 374.167969 L 735.269531 369.789062 Z M 739.136719 177.828125 " clip-rule="nonzero"/></clipPath><clipPath id="clip-66"><path d="M 737 228 L 926 228 L 926 269 L 737 269 Z M 737 228 " clip-rule="nonzero"/></clipPath><clipPath id="clip-67"><path d="M 739.136719 177.828125 L 956.59375 182.207031 L 952.726562 374.167969 L 735.269531 369.789062 Z M 739.136719 177.828125 " clip-rule="nonzero"/></clipPath><clipPath id="clip-68"><path d="M 739.136719 177.828125 L 956.59375 182.207031 L 952.726562 374.167969 L 735.269531 369.789062 Z M 739.136719 177.828125 " clip-rule="nonzero"/></clipPath><clipPath id="clip-69"><path d="M 739.136719 177.828125 L 956.59375 182.207031 L 952.726562 374.167969 L 735.269531 369.789062 Z M 739.136719 177.828125 " clip-rule="nonzero"/></clipPath><clipPath id="clip-70"><path d="M 862 229 L 876 229 L 876 269 L 862 269 Z M 862 229 " clip-rule="nonzero"/></clipPath><clipPath id="clip-71"><path d="M 739.136719 177.828125 L 956.59375 182.207031 L 952.726562 374.167969 L 735.269531 369.789062 Z M 739.136719 177.828125 " clip-rule="nonzero"/></clipPath><clipPath id="clip-72"><path d="M 739.136719 177.828125 L 956.59375 182.207031 L 952.726562 374.167969 L 735.269531 369.789062 Z M 739.136719 177.828125 " clip-rule="nonzero"/></clipPath><clipPath id="clip-73"><path d="M 739.136719 177.828125 L 956.59375 182.207031 L 952.726562 374.167969 L 735.269531 369.789062 Z M 739.136719 177.828125 " clip-rule="nonzero"/></clipPath><clipPath id="clip-74"><path d="M 888 230 L 903 230 L 903 269 L 888 269 Z M 888 230 " clip-rule="nonzero"/></clipPath><clipPath id="clip-75"><path d="M 739.136719 177.828125 L 956.59375 182.207031 L 952.726562 374.167969 L 735.269531 369.789062 Z M 739.136719 177.828125 " clip-rule="nonzero"/></clipPath><clipPath id="clip-76"><path d="M 739.136719 177.828125 L 956.59375 182.207031 L 952.726562 374.167969 L 735.269531 369.789062 Z M 739.136719 177.828125 " clip-rule="nonzero"/></clipPath><clipPath id="clip-77"><path d="M 739.136719 177.828125 L 956.59375 182.207031 L 952.726562 374.167969 L 735.269531 369.789062 Z M 739.136719 177.828125 " clip-rule="nonzero"/></clipPath><clipPath id="clip-78"><path d="M 755 264 L 950 264 L 950 314 L 755 314 Z M 755 264 " clip-rule="nonzero"/></clipPath><clipPath id="clip-79"><path d="M 739.136719 177.828125 L 956.59375 182.207031 L 952.726562 374.167969 L 735.269531 369.789062 Z M 739.136719 177.828125 " clip-rule="nonzero"/></clipPath><clipPath id="clip-80"><path d="M 739.136719 177.828125 L 956.59375 182.207031 L 952.726562 374.167969 L 735.269531 369.789062 Z M 739.136719 177.828125 " clip-rule="nonzero"/></clipPath><clipPath id="clip-81"><path d="M 739.136719 177.828125 L 956.59375 182.207031 L 952.726562 374.167969 L 735.269531 369.789062 Z M 739.136719 177.828125 " clip-rule="nonzero"/></clipPath><clipPath id="clip-82"><path d="M 772 271 L 847 271 L 847 302 L 772 302 Z M 772 271 " clip-rule="nonzero"/></clipPath><clipPath id="clip-83"><path d="M 739.136719 177.828125 L 956.59375 182.207031 L 952.726562 374.167969 L 735.269531 369.789062 Z M 739.136719 177.828125 " clip-rule="nonzero"/></clipPath><clipPath id="clip-84"><path d="M 739.136719 177.828125 L 956.59375 182.207031 L 952.726562 374.167969 L 735.269531 369.789062 Z M 739.136719 177.828125 " clip-rule="nonzero"/></clipPath><clipPath id="clip-85"><path d="M 739.136719 177.828125 L 956.59375 182.207031 L 952.726562 374.167969 L 735.269531 369.789062 Z M 739.136719 177.828125 " clip-rule="nonzero"/></clipPath><clipPath id="clip-86"><path d="M 899 340 L 914 340 L 914 360 L 899 360 Z M 899 340 " clip-rule="nonzero"/></clipPath><clipPath id="clip-87"><path d="M 739.136719 177.828125 L 956.59375 182.207031 L 952.726562 374.167969 L 735.269531 369.789062 Z M 739.136719 177.828125 " clip-rule="nonzero"/></clipPath><clipPath id="clip-88"><path d="M 739.136719 177.828125 L 956.59375 182.207031 L 952.726562 374.167969 L 735.269531 369.789062 Z M 739.136719 177.828125 " clip-rule="nonzero"/></clipPath><clipPath id="clip-89"><path d="M 739.136719 177.828125 L 956.59375 182.207031 L 952.726562 374.167969 L 735.269531 369.789062 Z M 739.136719 177.828125 " clip-rule="nonzero"/></clipPath><clipPath id="clip-90"><path d="M 848 51.804688 L 858 51.804688 L 858 66 L 848 66 Z M 848 51.804688 " clip-rule="nonzero"/></clipPath><clipPath id="clip-91"><path d="M 846 97 L 923.992188 97 L 923.992188 103 L 846 103 Z M 846 97 " clip-rule="nonzero"/></clipPath><clipPath id="clip-92"><path d="M 142 47.46875 L 152 47.46875 L 152 62 L 142 62 Z M 142 47.46875 " clip-rule="nonzero"/></clipPath><clipPath id="clip-93"><path d="M 143 98 L 215 98 L 215 175.71875 L 143 175.71875 Z M 143 98 " clip-rule="nonzero"/></clipPath><clipPath id="clip-94"><path d="M 139.742188 92 L 217.742188 92 L 217.742188 99 L 139.742188 99 Z M 139.742188 92 " clip-rule="nonzero"/></clipPath><clipPath id="clip-95"><path d="M 338 158 L 402.71875 158 L 402.71875 360 L 338 360 Z M 338 158 " clip-rule="nonzero"/></clipPath></defs><rect x="-144" width="1728" fill="rgb(100%, 100%, 100%)" y="-35.999999" height="431.999984" fill-opacity="1"/><rect x="-144" width="1728" fill="rgb(100%, 100%, 100%)" y="-35.999999" height="431.999984" fill-opacity="1"/><rect x="-144" width="1728" fill="rgb(9.01947%, 22.749329%, 34.118652%)" y="-35.999999" height="431.999984" fill-opacity="1"/><g clip-path="url(#clip-0)"><path fill="rgb(94.898987%, 50.19989%, 17.649841%)" d="M 1380.371094 368.179688 L 1418.816406 368.179688 C 1425.871094 368.179688 1431.59375 362.457031 1431.59375 355.398438 L 1431.59375 141.066406 C 1431.59375 134.007812 1425.871094 128.285156 1418.816406 128.285156 L 1380.371094 128.285156 C 1373.316406 128.285156 1367.59375 134.007812 1367.59375 141.066406 L 1367.59375 355.394531 C 1367.59375 362.457031 1373.316406 368.179688 1380.371094 368.179688 " fill-opacity="1" fill-rule="nonzero"/></g><path fill="rgb(96.078491%, 77.249146%, 21.958923%)" d="M 1382.808594 315.347656 L 1416.382812 315.347656 C 1419.640625 315.347656 1422.28125 312.707031 1422.28125 309.449219 L 1422.28125 151.175781 C 1422.28125 147.914062 1419.640625 145.273438 1416.382812 145.273438 L 1382.808594 145.273438 C 1379.546875 145.273438 1376.90625 147.914062 1376.90625 151.175781 L 1376.90625 309.449219 C 1376.90625 312.707031 1379.546875 315.347656 1382.808594 315.347656 " fill-opacity="1" fill-rule="nonzero"/><path fill="rgb(96.078491%, 77.249146%, 21.958923%)" d="M 1329.710938 71.457031 L 1329.710938 344.820312 C 1329.710938 353.824219 1332.578125 361.136719 1336.101562 361.136719 L 1355.332031 361.136719 C 1358.855469 361.136719 1361.71875 353.824219 1361.71875 344.820312 L 1361.71875 71.457031 C 1361.71875 62.453125 1358.855469 55.167969 1355.332031 55.167969 L 1336.101562 55.167969 C 1332.578125 55.167969 1329.710938 62.453125 1329.710938 71.457031 " fill-opacity="1" fill-rule="nonzero"/><path fill="rgb(51.759338%, 73.728943%, 66.268921%)" d="M 1329.710938 76.097656 L 1329.710938 98.777344 L 1361.71875 98.777344 L 1361.71875 76.097656 L 1329.710938 76.097656 " fill-opacity="1" fill-rule="nonzero"/><path fill="rgb(51.759338%, 73.728943%, 66.268921%)" d="M 1329.710938 321.253906 L 1329.710938 343.933594 L 1361.71875 343.933594 L 1361.71875 321.253906 L 1329.710938 321.253906 " fill-opacity="1" fill-rule="nonzero"/><path fill="rgb(94.898987%, 50.19989%, 17.649841%)" d="M 1294.894531 72.5 L 1230.441406 338.148438 C 1228.320312 346.898438 1229.378906 354.679688 1232.804688 355.511719 L 1251.492188 360.050781 C 1254.914062 360.882812 1259.421875 354.457031 1261.546875 345.707031 L 1326 80.054688 C 1328.121094 71.304688 1327.054688 63.550781 1323.628906 62.71875 L 1304.941406 58.179688 C 1301.519531 57.347656 1297.015625 63.75 1294.894531 72.5 " fill-opacity="1" fill-rule="nonzero"/><path fill="rgb(96.078491%, 77.249146%, 21.958923%)" d="M 1293.796875 77.011719 L 1291.496094 86.5 L 1322.601562 94.054688 L 1324.902344 84.570312 L 1293.796875 77.011719 " fill-opacity="1" fill-rule="nonzero"/><path fill="rgb(96.078491%, 77.249146%, 21.958923%)" d="M 1288.898438 97.214844 L 1286.59375 106.703125 L 1317.699219 114.257812 L 1320.003906 104.769531 L 1288.898438 97.214844 " fill-opacity="1" fill-rule="nonzero"/><path fill="rgb(98.039246%, 98.429871%, 92.549133%)" d="M 1031.757812 335.875 C 1031.605469 328.144531 1027.582031 321.527344 1021.835938 318.347656 C 1023.460938 316.964844 1025.546875 316.109375 1027.832031 316.0625 L 1205.71875 313.699219 C 1210.980469 313.597656 1215.367188 317.816406 1215.46875 323.078125 L 1215.894531 344.78125 C 1215.996094 350.042969 1211.777344 354.433594 1206.519531 354.535156 L 1028.632812 356.902344 C 1025.992188 356.953125 1023.570312 355.910156 1021.796875 354.195312 C 1027.820312 350.953125 1031.914062 343.9375 1031.757812 335.875 " fill-opacity="1" fill-rule="nonzero"/><path fill="rgb(79.219055%, 58.81958%, 10.5896%)" d="M 1214.167969 354.515625 L 1214.164062 354.519531 Z M 1214.167969 354.515625 " fill-opacity="1" fill-rule="nonzero"/><path fill="rgb(96.859741%, 61.178589%, 24.308777%)" d="M 1017.585938 358.597656 C 1018.183594 359.582031 1019.132812 360.363281 1020.289062 360.726562 C 1022.898438 361.539062 1200.570312 358.890625 1209.121094 357.632812 C 1212.710938 356.53125 1215.769531 353.664062 1217.140625 350.160156 C 1218.230469 347.378906 1218.109375 320.589844 1216.363281 316.90625 C 1214.066406 312.058594 1208.597656 309.132812 1203.332031 309.234375 C 1195.246094 309.394531 1039.523438 311.324219 1023.6875 311.613281 C 1021.441406 311.652344 1018.949219 311.792969 1017.371094 313.398438 C 1015.953125 314.839844 1016.449219 317.660156 1019.066406 319.230469 C 1022.347656 321.199219 1203.796875 317.480469 1206.507812 319.824219 C 1208.972656 321.953125 1208.773438 340.074219 1208.316406 344.523438 C 1207.945312 348.160156 1205.046875 349.070312 1201.78125 349.132812 C 1169.820312 349.292969 1023.472656 352.234375 1020.011719 352.898438 C 1018.917969 353.105469 1017.417969 354.074219 1017.207031 354.617188 C 1016.671875 355.988281 1016.882812 357.433594 1017.585938 358.597656 " fill-opacity="1" fill-rule="nonzero"/><path fill="rgb(83.139038%, 83.139038%, 76.078796%)" d="M 1038.289062 347.316406 L 1199.394531 344.441406 C 1199.796875 344.429688 1200.109375 344.09375 1200.101562 343.695312 C 1200.089844 343.292969 1199.753906 342.976562 1199.355469 342.988281 L 1038.246094 345.863281 C 1037.847656 345.878906 1037.53125 346.210938 1037.542969 346.613281 C 1037.554688 347.015625 1037.886719 347.328125 1038.289062 347.316406 " fill-opacity="1" fill-rule="nonzero"/><path fill="rgb(83.139038%, 83.139038%, 76.078796%)" d="M 1037.777344 338.320312 L 1198.882812 335.445312 C 1199.285156 335.433594 1199.597656 335.097656 1199.585938 334.699219 C 1199.578125 334.296875 1199.242188 333.980469 1198.84375 333.992188 L 1037.734375 336.867188 C 1037.335938 336.878906 1037.019531 337.210938 1037.03125 337.613281 C 1037.042969 338.015625 1037.375 338.332031 1037.777344 338.320312 " fill-opacity="1" fill-rule="nonzero"/><path fill="rgb(83.139038%, 83.139038%, 76.078796%)" d="M 1049.726562 341.792969 L 1198.84375 339.878906 C 1199.242188 339.867188 1199.558594 339.53125 1199.546875 339.132812 C 1199.539062 338.730469 1199.203125 338.414062 1198.804688 338.425781 L 1049.6875 340.339844 C 1049.285156 340.351562 1048.96875 340.6875 1048.980469 341.085938 C 1048.992188 341.488281 1049.324219 341.804688 1049.726562 341.792969 " fill-opacity="1" fill-rule="nonzero"/><path fill="rgb(83.139038%, 83.139038%, 76.078796%)" d="M 1037.515625 331.046875 L 1198.625 328.171875 C 1199.023438 328.160156 1199.339844 327.824219 1199.328125 327.425781 C 1199.316406 327.023438 1198.980469 326.707031 1198.582031 326.71875 L 1037.476562 329.59375 C 1037.074219 329.609375 1036.761719 329.941406 1036.769531 330.34375 C 1036.78125 330.742188 1037.117188 331.058594 1037.515625 331.046875 " fill-opacity="1" fill-rule="nonzero"/><path fill="rgb(83.139038%, 83.139038%, 76.078796%)" d="M 1036.246094 326.863281 L 1198.519531 323.8125 C 1198.925781 323.800781 1199.242188 323.46875 1199.234375 323.066406 C 1199.222656 322.664062 1198.886719 322.351562 1198.484375 322.359375 L 1036.207031 325.410156 C 1035.804688 325.421875 1035.484375 325.757812 1035.496094 326.15625 C 1035.507812 326.558594 1035.84375 326.875 1036.246094 326.863281 " fill-opacity="1" fill-rule="nonzero"/><path fill="rgb(98.039246%, 98.429871%, 92.549133%)" d="M 1212.277344 204.570312 C 1212.171875 196.839844 1215.976562 190.089844 1221.613281 186.726562 C 1219.945312 185.394531 1217.832031 184.609375 1215.542969 184.640625 L 1037.679688 188.160156 C 1032.417969 188.230469 1028.171875 192.59375 1028.242188 197.855469 L 1028.535156 219.558594 C 1028.605469 224.824219 1032.964844 229.070312 1038.226562 229 L 1216.089844 225.480469 C 1218.734375 225.445312 1221.121094 224.324219 1222.832031 222.546875 C 1216.710938 219.507812 1212.382812 212.632812 1212.277344 204.570312 " fill-opacity="1" fill-rule="nonzero"/><path fill="rgb(51.759338%, 73.728943%, 66.268921%)" d="M 1227.1875 226.8125 C 1226.625 227.816406 1225.699219 228.628906 1224.554688 229.027344 C 1221.972656 229.925781 1044.316406 233.15625 1035.722656 232.183594 C 1032.101562 231.199219 1028.949219 228.433594 1027.464844 224.980469 C 1026.28125 222.234375 1025.523438 195.453125 1027.144531 191.714844 C 1029.28125 186.792969 1034.652344 183.6875 1039.917969 183.617188 C 1048.007812 183.507812 1203.703125 180.289062 1219.542969 180.050781 C 1221.789062 180.019531 1224.285156 180.078125 1225.914062 181.628906 C 1227.378906 183.023438 1226.972656 185.855469 1224.414062 187.511719 C 1221.199219 189.589844 1039.726562 191.875 1037.089844 194.304688 C 1034.699219 196.515625 1035.496094 214.621094 1036.097656 219.050781 C 1036.589844 222.671875 1039.515625 223.488281 1042.785156 223.445312 C 1074.730469 222.546875 1221.097656 220.644531 1224.578125 221.195312 C 1225.675781 221.367188 1227.207031 222.285156 1227.4375 222.820312 C 1228.015625 224.171875 1227.855469 225.625 1227.1875 226.8125 " fill-opacity="1" fill-rule="nonzero"/><path fill="rgb(83.139038%, 83.139038%, 76.078796%)" d="M 1206.125 216.222656 L 1045.011719 218.675781 C 1044.613281 218.675781 1044.285156 218.351562 1044.285156 217.953125 C 1044.28125 217.550781 1044.605469 217.222656 1045.003906 217.222656 L 1206.117188 214.769531 C 1206.519531 214.765625 1206.84375 215.089844 1206.847656 215.492188 C 1206.847656 215.894531 1206.527344 216.21875 1206.125 216.222656 " fill-opacity="1" fill-rule="nonzero"/><path fill="rgb(83.139038%, 83.139038%, 76.078796%)" d="M 1206.34375 207.214844 L 1045.226562 209.664062 C 1044.828125 209.667969 1044.5 209.34375 1044.5 208.941406 C 1044.496094 208.539062 1044.820312 208.214844 1045.21875 208.214844 L 1206.332031 205.757812 C 1206.734375 205.757812 1207.0625 206.082031 1207.0625 206.480469 C 1207.066406 206.882812 1206.742188 207.210938 1206.34375 207.214844 " fill-opacity="1" fill-rule="nonzero"/><path fill="rgb(83.139038%, 83.139038%, 76.078796%)" d="M 1194.515625 211.078125 L 1045.414062 214.097656 C 1045.011719 214.097656 1044.6875 213.773438 1044.683594 213.375 C 1044.683594 212.972656 1045.003906 212.644531 1045.40625 212.640625 L 1194.503906 209.625 C 1194.90625 209.621094 1195.230469 209.949219 1195.234375 210.347656 C 1195.238281 210.75 1194.914062 211.078125 1194.515625 211.078125 " fill-opacity="1" fill-rule="nonzero"/><path fill="rgb(83.139038%, 83.139038%, 76.078796%)" d="M 1206.359375 199.9375 L 1045.246094 202.386719 C 1044.847656 202.390625 1044.519531 202.066406 1044.519531 201.664062 C 1044.519531 201.265625 1044.839844 200.9375 1045.242188 200.9375 L 1206.355469 198.484375 C 1206.753906 198.480469 1207.082031 198.804688 1207.082031 199.207031 C 1207.085938 199.605469 1206.761719 199.933594 1206.359375 199.9375 " fill-opacity="1" fill-rule="nonzero"/><path fill="rgb(83.139038%, 83.139038%, 76.078796%)" d="M 1207.492188 195.710938 L 1045.207031 198.027344 C 1044.800781 198.03125 1044.472656 197.707031 1044.46875 197.308594 C 1044.46875 196.90625 1044.792969 196.578125 1045.195312 196.578125 L 1207.484375 194.257812 C 1207.886719 194.253906 1208.21875 194.578125 1208.21875 194.980469 C 1208.222656 195.382812 1207.894531 195.707031 1207.492188 195.710938 " fill-opacity="1" fill-rule="nonzero"/><g clip-path="url(#clip-1)"><path fill="rgb(98.039246%, 77.648926%, 3.138733%)" d="M 1197.960938 255.609375 C 1198.023438 261.914062 1192.972656 267.066406 1186.6875 267.136719 L 1174.644531 267.257812 L 1162.089844 267.382812 L 1147.902344 267.523438 L 1135.347656 267.644531 L 1022.308594 268.777344 C 1016.015625 268.839844 1010.875 263.78125 1010.8125 257.488281 L 1010.660156 242.265625 C 1010.589844 235.964844 1015.636719 230.8125 1021.933594 230.75 L 1135.347656 229.609375 L 1147.902344 229.484375 L 1162.089844 229.34375 L 1174.644531 229.210938 L 1186.304688 229.097656 C 1192.59375 229.039062 1197.738281 234.097656 1197.808594 240.390625 L 1197.960938 255.609375 " fill-opacity="1" fill-rule="nonzero"/></g><path fill="rgb(96.469116%, 55.288696%, 6.669617%)" d="M 1147.902344 229.484375 L 1147.902344 267.523438 L 1135.347656 267.644531 L 1135.347656 229.609375 L 1147.902344 229.484375 " fill-opacity="1" fill-rule="nonzero"/><path fill="rgb(96.469116%, 55.288696%, 6.669617%)" d="M 1174.644531 229.210938 L 1174.644531 267.257812 L 1162.089844 267.382812 L 1162.089844 229.34375 L 1174.644531 229.210938 " fill-opacity="1" fill-rule="nonzero"/><path fill="rgb(92.939758%, 34.509277%, 43.139648%)" d="M 1029.5 296.730469 C 1029.4375 304.070312 1034.648438 310.070312 1041.128906 310.152344 L 1053.554688 310.292969 L 1066.507812 310.4375 L 1081.140625 310.601562 L 1094.09375 310.746094 L 1210.714844 312.0625 C 1217.207031 312.136719 1222.511719 306.242188 1222.574219 298.914062 L 1222.730469 281.191406 C 1222.804688 273.851562 1217.59375 267.851562 1211.101562 267.78125 L 1094.09375 266.449219 L 1081.140625 266.308594 L 1066.507812 266.140625 L 1053.554688 265.988281 L 1041.527344 265.855469 C 1035.035156 265.785156 1029.730469 271.675781 1029.65625 279.003906 L 1029.5 296.730469 " fill-opacity="1" fill-rule="nonzero"/><path fill="rgb(96.078491%, 77.249146%, 21.958923%)" d="M 1051.253906 302.0625 L 1114.097656 302.0625 C 1117.046875 302.0625 1119.433594 299.667969 1119.433594 296.714844 L 1119.433594 278.007812 C 1119.433594 275.054688 1117.046875 272.664062 1114.097656 272.664062 L 1051.253906 272.664062 C 1048.304688 272.664062 1045.917969 275.054688 1045.917969 278.007812 L 1045.917969 296.714844 C 1045.917969 299.667969 1048.304688 302.0625 1051.253906 302.0625 " fill-opacity="1" fill-rule="nonzero"/><path fill="rgb(92.939758%, 34.509277%, 43.139648%)" d="M 1174.644531 339.46875 L 1174.898438 372.003906 L 1181.003906 361.851562 L 1188.339844 371.175781 L 1187.816406 339.265625 C 1187.816406 339.265625 1179.113281 339.226562 1174.644531 339.46875 " fill-opacity="1" fill-rule="nonzero"/><path fill="rgb(97.648621%, 67.059326%, 4.708862%)" d="M 1159.574219 129.984375 L 1152.214844 132.457031 L 1131.648438 71.394531 L 1139.007812 68.925781 L 1159.574219 129.984375 " fill-opacity="1" fill-rule="nonzero"/><path fill="rgb(96.859741%, 73.329163%, 63.919067%)" d="M 1131.710938 59.417969 L 1131.648438 71.394531 L 1139.007812 68.925781 L 1131.710938 59.417969 " fill-opacity="1" fill-rule="nonzero"/><path fill="rgb(97.648621%, 67.059326%, 4.708862%)" d="M 1135.546875 64.421875 L 1131.703125 59.417969 L 1131.671875 65.722656 L 1135.546875 64.421875 " fill-opacity="1" fill-rule="nonzero"/><path fill="rgb(100%, 100%, 100%)" d="M 1131.648438 71.394531 L 1131.675781 65.722656 L 1131.648438 71.394531 " fill-opacity="1" fill-rule="nonzero"/><path fill="rgb(98.81897%, 79.60968%, 2.349854%)" d="M 1151.796875 131.210938 L 1131.648438 71.394531 L 1135.308594 70.164062 L 1152.832031 122.1875 L 1151.796875 131.210938 " fill-opacity="1" fill-rule="nonzero"/><path fill="rgb(98.039246%, 85.488892%, 79.219055%)" d="M 1131.648438 71.394531 L 1131.675781 65.722656 L 1133.597656 65.078125 L 1135.308594 70.164062 L 1131.648438 71.394531 " fill-opacity="1" fill-rule="nonzero"/><path fill="rgb(98.81897%, 79.60968%, 2.349854%)" d="M 1131.675781 65.722656 L 1131.707031 59.476562 L 1133.597656 65.078125 L 1131.675781 65.722656 " fill-opacity="1" fill-rule="nonzero"/><path fill="rgb(50.19989%, 79.998779%, 15.689087%)" d="M 1163.925781 130.601562 L 1156.335938 132.238281 L 1142.726562 69.265625 L 1150.316406 67.628906 L 1163.925781 130.601562 " fill-opacity="1" fill-rule="nonzero"/><path fill="rgb(96.859741%, 73.329163%, 63.919067%)" d="M 1144.125 57.367188 L 1142.726562 69.265625 L 1150.316406 67.628906 L 1144.125 57.367188 " fill-opacity="1" fill-rule="nonzero"/><path fill="rgb(50.19989%, 79.998779%, 15.689087%)" d="M 1147.378906 62.769531 L 1144.121094 57.371094 L 1143.382812 63.632812 L 1147.378906 62.769531 " fill-opacity="1" fill-rule="nonzero"/><path fill="rgb(70.588684%, 86.268616%, 9.408569%)" d="M 1153.296875 118.167969 L 1142.726562 69.265625 L 1146.503906 68.453125 L 1154.664062 106.222656 L 1153.296875 118.167969 " fill-opacity="1" fill-rule="nonzero"/><path fill="rgb(98.039246%, 85.488892%, 79.219055%)" d="M 1142.726562 69.265625 L 1143.390625 63.632812 L 1145.367188 63.203125 L 1146.503906 68.453125 L 1142.726562 69.265625 " fill-opacity="1" fill-rule="nonzero"/><path fill="rgb(70.588684%, 86.268616%, 9.408569%)" d="M 1143.390625 63.632812 L 1144.121094 57.425781 L 1145.367188 63.203125 L 1143.390625 63.632812 " fill-opacity="1" fill-rule="nonzero"/><path fill="rgb(96.078491%, 46.269226%, 8.239746%)" d="M 1159.371094 133.324219 L 1151.65625 132.4375 L 1159 68.4375 L 1166.710938 69.316406 L 1159.371094 133.324219 " fill-opacity="1" fill-rule="nonzero"/><path fill="rgb(96.859741%, 73.329163%, 63.919067%)" d="M 1164.148438 57.617188 L 1159 68.4375 L 1166.710938 69.316406 L 1164.148438 57.617188 " fill-opacity="1" fill-rule="nonzero"/><path fill="rgb(96.078491%, 46.269226%, 8.239746%)" d="M 1165.492188 63.773438 L 1164.140625 57.617188 L 1161.433594 63.308594 L 1165.492188 63.773438 " fill-opacity="1" fill-rule="nonzero"/><path fill="rgb(100%, 100%, 100%)" d="M 1159 68.4375 L 1161.4375 63.3125 L 1159 68.4375 " fill-opacity="1" fill-rule="nonzero"/><path fill="rgb(97.648621%, 65.098572%, 5.099487%)" d="M 1155.5 132.859375 L 1151.660156 132.421875 L 1159 68.4375 L 1162.835938 68.875 L 1155.765625 130.535156 L 1155.472656 131.824219 L 1155.613281 131.855469 L 1155.5 132.859375 " fill-opacity="1" fill-rule="nonzero"/><path fill="rgb(98.039246%, 85.488892%, 79.219055%)" d="M 1162.835938 68.875 L 1159 68.4375 L 1161.4375 63.3125 L 1163.449219 63.542969 L 1162.835938 68.875 " fill-opacity="1" fill-rule="nonzero"/><path fill="rgb(97.648621%, 65.098572%, 5.099487%)" d="M 1163.449219 63.542969 L 1161.4375 63.3125 L 1164.125 57.667969 L 1163.449219 63.542969 " fill-opacity="1" fill-rule="nonzero"/><path fill="rgb(92.939758%, 7.058716%, 48.629761%)" d="M 1163.042969 133.539062 L 1155.472656 131.824219 L 1169.734375 68.996094 L 1177.308594 70.710938 L 1163.042969 133.539062 " fill-opacity="1" fill-rule="nonzero"/><path fill="rgb(96.859741%, 73.329163%, 63.919067%)" d="M 1176.03125 58.800781 L 1169.734375 68.996094 L 1177.308594 70.710938 L 1176.03125 58.800781 " fill-opacity="1" fill-rule="nonzero"/><path fill="rgb(92.939758%, 7.058716%, 48.629761%)" d="M 1176.699219 65.070312 L 1176.027344 58.800781 L 1172.714844 64.167969 L 1176.699219 65.070312 " fill-opacity="1" fill-rule="nonzero"/><path fill="rgb(100%, 100%, 100%)" d="M 1169.734375 68.996094 L 1172.71875 64.167969 L 1169.734375 68.996094 " fill-opacity="1" fill-rule="nonzero"/><path fill="rgb(93.728638%, 18.429565%, 57.249451%)" d="M 1159.242188 132.660156 L 1155.476562 131.804688 L 1169.734375 68.996094 L 1173.503906 69.851562 L 1159.242188 132.660156 " fill-opacity="1" fill-rule="nonzero"/><path fill="rgb(98.039246%, 85.488892%, 79.219055%)" d="M 1173.503906 69.851562 L 1169.734375 68.996094 L 1172.71875 64.167969 L 1174.691406 64.613281 L 1173.503906 69.851562 " fill-opacity="1" fill-rule="nonzero"/><path fill="rgb(93.728638%, 18.429565%, 57.249451%)" d="M 1174.691406 64.613281 L 1172.71875 64.167969 L 1176 58.851562 L 1174.691406 64.613281 " fill-opacity="1" fill-rule="nonzero"/><g clip-path="url(#clip-2)"><path fill="rgb(92.549133%, 0%, 54.899597%)" d="M 1112.515625 59.515625 L 1106.816406 61.429688 L 1102.824219 49.5625 L 1108.519531 47.652344 L 1112.515625 59.515625 " fill-opacity="1" fill-rule="nonzero"/></g><path fill="rgb(52.549744%, 51.759338%, 51.759338%)" d="M 1145.875 109.949219 L 1146.671875 122.507812 L 1109.210938 68.269531 L 1115.550781 64.023438 L 1145.875 109.949219 " fill-opacity="1" fill-rule="nonzero"/><path fill="rgb(74.119568%, 73.728943%, 73.728943%)" d="M 1110.734375 121.75 L 1117.695312 132.238281 L 1114.738281 66.410156 L 1107.125 66.855469 L 1110.734375 121.75 " fill-opacity="1" fill-rule="nonzero"/><path fill="rgb(74.119568%, 73.728943%, 73.728943%)" d="M 1113.621094 57.996094 L 1105.011719 60.886719 L 1108.601562 71.546875 L 1117.210938 68.65625 L 1113.621094 57.996094 " fill-opacity="1" fill-rule="nonzero"/><path fill="rgb(92.549133%, 0%, 54.899597%)" d="M 1121.464844 68.621094 C 1122.972656 73.105469 1120.554688 77.964844 1116.0625 79.476562 C 1111.570312 80.984375 1106.703125 78.570312 1105.191406 74.082031 C 1103.679688 69.59375 1106.101562 64.734375 1110.589844 63.226562 C 1115.085938 61.714844 1119.953125 64.128906 1121.464844 68.621094 " fill-opacity="1" fill-rule="nonzero"/><path fill="rgb(100%, 100%, 100%)" d="M 1117.246094 70.035156 C 1117.972656 72.195312 1116.804688 74.535156 1114.644531 75.261719 C 1112.480469 75.988281 1110.136719 74.824219 1109.410156 72.667969 C 1108.683594 70.503906 1109.84375 68.164062 1112.007812 67.4375 C 1114.171875 66.710938 1116.515625 67.875 1117.246094 70.035156 " fill-opacity="1" fill-rule="nonzero"/><g clip-path="url(#clip-3)"><path fill="rgb(39.219666%, 78.819275%, 87.059021%)" d="M 1163.152344 175.535156 L 1115.980469 175.535156 L 1104.113281 98.046875 L 1175.019531 98.046875 L 1163.152344 175.535156 " fill-opacity="1" fill-rule="nonzero"/></g><g clip-path="url(#clip-4)"><path fill="rgb(32.548523%, 64.709473%, 72.158813%)" d="M 1178.566406 92.890625 L 1100.566406 92.890625 L 1100.566406 98.046875 L 1178.566406 98.046875 L 1178.566406 92.890625 " fill-opacity="1" fill-rule="nonzero"/></g><path fill="rgb(98.039246%, 98.429871%, 92.549133%)" d="M 21.183594 335.875 C 21.035156 328.144531 17.007812 321.527344 11.261719 318.347656 C 12.886719 316.964844 14.972656 316.109375 17.261719 316.0625 L 195.144531 313.699219 C 200.40625 313.597656 204.792969 317.816406 204.894531 323.078125 L 205.320312 344.78125 C 205.425781 350.042969 201.207031 354.433594 195.945312 354.535156 L 18.0625 356.902344 C 15.417969 356.953125 12.996094 355.910156 11.226562 354.195312 C 17.246094 350.953125 21.34375 343.9375 21.183594 335.875 " fill-opacity="1" fill-rule="nonzero"/><path fill="rgb(79.219055%, 58.81958%, 10.5896%)" d="M 202.777344 312.917969 L 202.777344 312.921875 L 202.78125 312.921875 Z M 202.777344 312.917969 " fill-opacity="1" fill-rule="nonzero"/><path fill="rgb(79.219055%, 58.81958%, 10.5896%)" d="M 203.59375 354.515625 L 203.589844 354.519531 Z M 203.59375 354.515625 " fill-opacity="1" fill-rule="nonzero"/><path fill="rgb(96.859741%, 61.178589%, 24.308777%)" d="M 7.015625 358.597656 C 7.609375 359.582031 8.5625 360.363281 9.71875 360.726562 C 12.328125 361.539062 189.996094 358.890625 198.550781 357.632812 C 202.136719 356.53125 205.199219 353.664062 206.570312 350.160156 C 207.65625 347.378906 207.535156 320.589844 205.789062 316.90625 C 203.492188 312.058594 198.023438 309.132812 192.757812 309.234375 C 184.671875 309.394531 28.949219 311.324219 13.113281 311.613281 C 10.867188 311.652344 8.375 311.792969 6.800781 313.398438 C 5.382812 314.839844 5.878906 317.660156 8.492188 319.230469 C 11.773438 321.199219 193.222656 317.480469 195.933594 319.824219 C 198.398438 321.953125 198.199219 340.074219 197.746094 344.523438 C 197.375 348.160156 194.472656 349.070312 191.207031 349.132812 C 159.246094 349.292969 12.898438 352.234375 9.4375 352.898438 C 8.34375 353.105469 6.84375 354.074219 6.632812 354.617188 C 6.097656 355.988281 6.308594 357.433594 7.015625 358.597656 " fill-opacity="1" fill-rule="nonzero"/><path fill="rgb(83.139038%, 83.139038%, 76.078796%)" d="M 27.714844 347.316406 L 188.824219 344.441406 C 189.222656 344.429688 189.539062 344.09375 189.527344 343.695312 C 189.515625 343.292969 189.183594 342.976562 188.78125 342.988281 L 27.675781 345.863281 C 27.273438 345.878906 26.960938 346.210938 26.96875 346.613281 C 26.980469 347.015625 27.3125 347.328125 27.714844 347.316406 " fill-opacity="1" fill-rule="nonzero"/><path fill="rgb(83.139038%, 83.139038%, 76.078796%)" d="M 27.203125 338.320312 L 188.308594 335.445312 C 188.710938 335.433594 189.023438 335.097656 189.015625 334.699219 C 189.003906 334.296875 188.667969 333.980469 188.269531 333.992188 L 27.160156 336.867188 C 26.761719 336.878906 26.445312 337.210938 26.457031 337.613281 C 26.46875 338.015625 26.800781 338.332031 27.203125 338.320312 " fill-opacity="1" fill-rule="nonzero"/><path fill="rgb(83.139038%, 83.139038%, 76.078796%)" d="M 39.152344 341.792969 L 188.269531 339.878906 C 188.671875 339.867188 188.988281 339.53125 188.976562 339.132812 C 188.964844 338.730469 188.632812 338.414062 188.230469 338.425781 L 39.113281 340.339844 C 38.710938 340.351562 38.394531 340.6875 38.40625 341.085938 C 38.417969 341.488281 38.75 341.804688 39.152344 341.792969 " fill-opacity="1" fill-rule="nonzero"/><path fill="rgb(83.139038%, 83.139038%, 76.078796%)" d="M 26.941406 331.046875 L 188.050781 328.171875 C 188.449219 328.160156 188.765625 327.824219 188.753906 327.425781 C 188.742188 327.023438 188.410156 326.707031 188.007812 326.71875 L 26.902344 329.59375 C 26.5 329.609375 26.1875 329.941406 26.199219 330.34375 C 26.210938 330.742188 26.542969 331.058594 26.941406 331.046875 " fill-opacity="1" fill-rule="nonzero"/><path fill="rgb(83.139038%, 83.139038%, 76.078796%)" d="M 25.675781 326.863281 L 187.949219 323.8125 C 188.351562 323.800781 188.671875 323.46875 188.660156 323.066406 C 188.648438 322.664062 188.3125 322.351562 187.910156 322.359375 L 25.632812 325.410156 C 25.230469 325.421875 24.910156 325.757812 24.925781 326.15625 C 24.933594 326.558594 25.269531 326.875 25.675781 326.863281 " fill-opacity="1" fill-rule="nonzero"/><path fill="rgb(98.039246%, 98.429871%, 92.549133%)" d="M 201.703125 204.570312 C 201.597656 196.839844 205.402344 190.089844 211.042969 186.726562 C 209.371094 185.394531 207.257812 184.609375 204.972656 184.640625 L 27.105469 188.160156 C 21.84375 188.230469 17.601562 192.59375 17.667969 197.855469 L 17.960938 219.558594 C 18.03125 224.824219 22.390625 229.070312 27.652344 229 L 205.515625 225.480469 C 208.160156 225.445312 210.546875 224.324219 212.261719 222.546875 C 206.136719 219.507812 201.8125 212.632812 201.703125 204.570312 " fill-opacity="1" fill-rule="nonzero"/><g clip-path="url(#clip-5)"><path fill="rgb(51.759338%, 73.728943%, 66.268921%)" d="M 216.613281 226.8125 C 216.050781 227.816406 215.125 228.628906 213.980469 229.027344 C 211.402344 229.925781 33.742188 233.15625 25.152344 232.183594 C 21.527344 231.199219 18.378906 228.433594 16.890625 224.980469 C 15.707031 222.234375 14.949219 195.453125 16.574219 191.714844 C 18.710938 186.792969 24.078125 183.6875 29.34375 183.617188 C 37.433594 183.507812 193.132812 180.289062 208.96875 180.050781 C 211.214844 180.019531 213.710938 180.078125 215.339844 181.628906 C 216.804688 183.023438 216.402344 185.855469 213.839844 187.511719 C 210.625 189.589844 29.152344 191.875 26.519531 194.304688 C 24.125 196.515625 24.921875 214.621094 25.523438 219.050781 C 26.015625 222.671875 28.945312 223.488281 32.210938 223.445312 C 64.15625 222.546875 210.523438 220.644531 214.003906 221.195312 C 215.101562 221.367188 216.632812 222.285156 216.863281 222.820312 C 217.445312 224.171875 217.28125 225.625 216.613281 226.8125 " fill-opacity="1" fill-rule="nonzero"/></g><path fill="rgb(83.139038%, 83.139038%, 76.078796%)" d="M 195.550781 216.222656 L 34.4375 218.675781 C 34.039062 218.675781 33.710938 218.351562 33.710938 217.953125 C 33.707031 217.550781 34.03125 217.222656 34.429688 217.222656 L 195.542969 214.769531 C 195.945312 214.765625 196.273438 215.089844 196.273438 215.492188 C 196.277344 215.894531 195.953125 216.21875 195.550781 216.222656 " fill-opacity="1" fill-rule="nonzero"/><path fill="rgb(83.139038%, 83.139038%, 76.078796%)" d="M 195.769531 207.214844 L 34.65625 209.664062 C 34.253906 209.667969 33.925781 209.34375 33.925781 208.941406 C 33.921875 208.539062 34.246094 208.214844 34.648438 208.214844 L 195.761719 205.757812 C 196.160156 205.757812 196.488281 206.082031 196.488281 206.480469 C 196.492188 206.882812 196.167969 207.210938 195.769531 207.214844 " fill-opacity="1" fill-rule="nonzero"/><path fill="rgb(83.139038%, 83.139038%, 76.078796%)" d="M 183.941406 211.078125 L 34.839844 214.097656 C 34.4375 214.097656 34.113281 213.773438 34.109375 213.375 C 34.109375 212.972656 34.429688 212.644531 34.832031 212.640625 L 183.929688 209.625 C 184.332031 209.621094 184.660156 209.949219 184.660156 210.347656 C 184.664062 210.75 184.339844 211.078125 183.941406 211.078125 " fill-opacity="1" fill-rule="nonzero"/><path fill="rgb(83.139038%, 83.139038%, 76.078796%)" d="M 195.789062 199.9375 L 34.675781 202.386719 C 34.273438 202.390625 33.949219 202.066406 33.945312 201.664062 C 33.945312 201.265625 34.265625 200.9375 34.667969 200.9375 L 195.78125 198.484375 C 196.183594 198.480469 196.507812 198.804688 196.511719 199.207031 C 196.511719 199.605469 196.1875 199.933594 195.789062 199.9375 " fill-opacity="1" fill-rule="nonzero"/><path fill="rgb(83.139038%, 83.139038%, 76.078796%)" d="M 196.917969 195.710938 L 34.632812 198.027344 C 34.230469 198.03125 33.898438 197.707031 33.898438 197.308594 C 33.894531 196.90625 34.21875 196.578125 34.621094 196.578125 L 196.910156 194.257812 C 197.3125 194.253906 197.644531 194.578125 197.644531 194.980469 C 197.648438 195.382812 197.324219 195.707031 196.917969 195.710938 " fill-opacity="1" fill-rule="nonzero"/><path fill="rgb(98.039246%, 77.648926%, 3.138733%)" d="M 187.386719 255.609375 C 187.449219 261.914062 182.398438 267.066406 176.117188 267.136719 L 164.070312 267.257812 L 151.515625 267.382812 L 137.328125 267.523438 L 124.773438 267.644531 L 11.734375 268.777344 C 5.441406 268.839844 0.300781 263.78125 0.238281 257.488281 L 0.0859375 242.265625 C 0.015625 235.964844 5.066406 230.8125 11.359375 230.75 L 124.773438 229.609375 L 137.328125 229.484375 L 151.515625 229.34375 L 164.070312 229.210938 L 175.730469 229.097656 C 182.023438 229.039062 187.164062 234.097656 187.234375 240.390625 L 187.386719 255.609375 " fill-opacity="1" fill-rule="nonzero"/><path fill="rgb(96.469116%, 55.288696%, 6.669617%)" d="M 137.328125 229.484375 L 137.328125 267.523438 L 124.773438 267.644531 L 124.773438 229.609375 L 137.328125 229.484375 " fill-opacity="1" fill-rule="nonzero"/><path fill="rgb(96.469116%, 55.288696%, 6.669617%)" d="M 164.070312 229.210938 L 164.070312 267.257812 L 151.515625 267.382812 L 151.515625 229.34375 L 164.070312 229.210938 " fill-opacity="1" fill-rule="nonzero"/><path fill="rgb(92.939758%, 34.509277%, 43.139648%)" d="M 18.925781 296.730469 C 18.863281 304.070312 24.074219 310.070312 30.554688 310.152344 L 42.984375 310.292969 L 55.933594 310.4375 L 70.570312 310.601562 L 83.523438 310.746094 L 200.140625 312.0625 C 206.632812 312.136719 211.9375 306.242188 212 298.914062 L 212.15625 281.191406 C 212.230469 273.851562 207.019531 267.851562 200.527344 267.78125 L 83.523438 266.449219 L 70.570312 266.308594 L 55.933594 266.140625 L 42.984375 265.988281 L 30.953125 265.855469 C 24.460938 265.785156 19.15625 271.675781 19.082031 279.003906 L 18.925781 296.730469 " fill-opacity="1" fill-rule="nonzero"/><path fill="rgb(96.078491%, 77.249146%, 21.958923%)" d="M 40.679688 302.0625 L 103.527344 302.0625 C 106.472656 302.0625 108.859375 299.667969 108.859375 296.714844 L 108.859375 278.007812 C 108.859375 275.054688 106.472656 272.664062 103.527344 272.664062 L 40.679688 272.664062 C 37.734375 272.664062 35.34375 275.054688 35.34375 278.007812 L 35.34375 296.714844 C 35.34375 299.667969 37.734375 302.0625 40.679688 302.0625 " fill-opacity="1" fill-rule="nonzero"/><path fill="rgb(92.939758%, 34.509277%, 43.139648%)" d="M 164.070312 339.46875 L 164.324219 372.003906 L 170.429688 361.851562 L 177.769531 371.175781 L 177.242188 339.265625 C 177.242188 339.265625 168.542969 339.226562 164.070312 339.46875 " fill-opacity="1" fill-rule="nonzero"/><g clip-path="url(#clip-6)"><g clip-path="url(#clip-7)"><g clip-path="url(#clip-8)"><g clip-path="url(#clip-9)"><path fill="rgb(98.039246%, 98.429871%, 92.549133%)" d="M 757.179688 334.097656 C 757.183594 326.367188 753.292969 319.667969 747.613281 316.375 C 749.261719 315.023438 751.367188 314.210938 753.652344 314.210938 L 931.550781 315.429688 C 936.8125 315.433594 941.113281 319.742188 941.109375 325.003906 L 941.097656 346.710938 C 941.09375 351.972656 936.789062 356.277344 931.527344 356.277344 L 753.632812 355.058594 C 750.988281 355.054688 748.589844 353.964844 746.851562 352.214844 C 752.9375 349.09375 757.175781 342.160156 757.179688 334.097656 " fill-opacity="1" fill-rule="nonzero"/></g></g></g></g><g clip-path="url(#clip-10)"><g clip-path="url(#clip-11)"><g clip-path="url(#clip-12)"><g clip-path="url(#clip-13)"><path fill="rgb(96.859741%, 61.178589%, 24.308777%)" d="M 742.554688 356.53125 C 743.128906 357.527344 744.0625 358.328125 745.214844 358.714844 C 747.804688 359.578125 925.492188 360.507812 934.070312 359.425781 C 937.679688 358.394531 940.796875 355.589844 942.238281 352.113281 C 943.382812 349.355469 943.800781 322.566406 942.128906 318.851562 C 939.929688 313.957031 934.519531 310.921875 929.253906 310.917969 C 921.164062 310.914062 765.4375 309.710938 749.597656 309.675781 C 747.351562 309.671875 744.855469 309.765625 743.25 311.335938 C 741.800781 312.75 742.242188 315.578125 744.824219 317.199219 C 748.066406 319.234375 929.550781 319.171875 932.21875 321.570312 C 934.636719 323.75 934.074219 341.859375 933.527344 346.300781 C 933.082031 349.925781 930.167969 350.78125 926.898438 350.777344 C 894.941406 350.292969 748.566406 350.289062 745.09375 350.878906 C 743.996094 351.066406 742.476562 352.007812 742.253906 352.542969 C 741.691406 353.902344 741.871094 355.355469 742.554688 356.53125 " fill-opacity="1" fill-rule="nonzero"/></g></g></g></g><g clip-path="url(#clip-14)"><g clip-path="url(#clip-15)"><g clip-path="url(#clip-16)"><g clip-path="url(#clip-17)"><path fill="rgb(83.139038%, 83.139038%, 76.078796%)" d="M 763.476562 345.667969 L 924.609375 346.039062 C 925.011719 346.035156 925.332031 345.707031 925.328125 345.304688 C 925.324219 344.90625 925 344.582031 924.597656 344.585938 L 763.464844 344.21875 C 763.066406 344.222656 762.742188 344.546875 762.746094 344.949219 C 762.75 345.351562 763.074219 345.675781 763.476562 345.667969 " fill-opacity="1" fill-rule="nonzero"/></g></g></g></g><g clip-path="url(#clip-18)"><g clip-path="url(#clip-19)"><g clip-path="url(#clip-20)"><g clip-path="url(#clip-21)"><path fill="rgb(83.139038%, 83.139038%, 76.078796%)" d="M 763.144531 336.664062 L 924.277344 337.03125 C 924.679688 337.03125 925 336.703125 924.996094 336.300781 C 924.996094 335.898438 924.667969 335.578125 924.265625 335.578125 L 763.132812 335.210938 C 762.734375 335.214844 762.414062 335.542969 762.414062 335.941406 C 762.417969 336.34375 762.746094 336.667969 763.144531 336.664062 " fill-opacity="1" fill-rule="nonzero"/></g></g></g></g><g clip-path="url(#clip-22)"><g clip-path="url(#clip-23)"><g clip-path="url(#clip-24)"><g clip-path="url(#clip-25)"><path fill="rgb(83.139038%, 83.139038%, 76.078796%)" d="M 775.023438 340.378906 L 924.148438 341.464844 C 924.550781 341.460938 924.875 341.132812 924.867188 340.734375 C 924.867188 340.332031 924.539062 340.007812 924.140625 340.011719 L 775.011719 338.925781 C 774.613281 338.925781 774.289062 339.253906 774.292969 339.65625 C 774.296875 340.058594 774.621094 340.378906 775.023438 340.378906 " fill-opacity="1" fill-rule="nonzero"/></g></g></g></g><g clip-path="url(#clip-26)"><g clip-path="url(#clip-27)"><g clip-path="url(#clip-28)"><g clip-path="url(#clip-29)"><path fill="rgb(83.139038%, 83.139038%, 76.078796%)" d="M 763.03125 329.386719 L 924.164062 329.757812 C 924.566406 329.753906 924.886719 329.425781 924.882812 329.023438 C 924.882812 328.625 924.554688 328.300781 924.152344 328.304688 L 763.019531 327.933594 C 762.621094 327.9375 762.300781 328.265625 762.300781 328.667969 C 762.304688 329.070312 762.632812 329.390625 763.03125 329.386719 " fill-opacity="1" fill-rule="nonzero"/></g></g></g></g><g clip-path="url(#clip-30)"><g clip-path="url(#clip-31)"><g clip-path="url(#clip-32)"><g clip-path="url(#clip-33)"><path fill="rgb(83.139038%, 83.139038%, 76.078796%)" d="M 761.847656 325.179688 L 924.152344 325.398438 C 924.554688 325.394531 924.878906 325.066406 924.878906 324.664062 C 924.875 324.265625 924.546875 323.941406 924.140625 323.945312 L 761.839844 323.726562 C 761.433594 323.726562 761.109375 324.054688 761.113281 324.457031 C 761.113281 324.859375 761.445312 325.179688 761.847656 325.179688 " fill-opacity="1" fill-rule="nonzero"/></g></g></g></g><g clip-path="url(#clip-34)"><g clip-path="url(#clip-35)"><g clip-path="url(#clip-36)"><g clip-path="url(#clip-37)"><path fill="rgb(98.039246%, 98.429871%, 92.549133%)" d="M 940.304688 206.453125 C 940.355469 198.722656 944.296875 192.054688 950 188.800781 C 948.359375 187.4375 946.261719 186.609375 943.972656 186.59375 L 766.074219 186.53125 C 760.8125 186.496094 756.480469 190.773438 756.445312 196.039062 L 756.296875 217.742188 C 756.261719 223.003906 760.535156 227.339844 765.796875 227.375 L 943.695312 227.4375 C 946.339844 227.457031 948.75 226.382812 950.496094 224.644531 C 944.4375 221.480469 940.25 214.515625 940.304688 206.453125 " fill-opacity="1" fill-rule="nonzero"/></g></g></g></g><g clip-path="url(#clip-38)"><g clip-path="url(#clip-39)"><g clip-path="url(#clip-40)"><g clip-path="url(#clip-41)"><path fill="rgb(79.219055%, 58.81958%, 10.5896%)" d="M 758.148438 227.453125 L 758.148438 227.457031 L 758.152344 227.457031 Z M 758.148438 227.453125 " fill-opacity="1" fill-rule="nonzero"/></g></g></g></g><g clip-path="url(#clip-42)"><g clip-path="url(#clip-43)"><g clip-path="url(#clip-44)"><g clip-path="url(#clip-45)"><path fill="rgb(51.759338%, 73.728943%, 66.268921%)" d="M 954.765625 228.992188 C 954.179688 229.984375 953.242188 230.777344 952.089844 231.15625 C 949.488281 232.003906 771.800781 231.652344 763.230469 230.507812 C 759.628906 229.449219 756.535156 226.625 755.117188 223.140625 C 753.992188 220.371094 753.773438 193.578125 755.472656 189.875 C 757.707031 184.996094 763.136719 182 768.402344 182.035156 C 776.492188 182.089844 932.222656 182.007812 948.0625 182.089844 C 950.308594 182.097656 952.804688 182.210938 954.398438 183.792969 C 955.835938 185.21875 955.375 188.042969 952.78125 189.644531 C 949.527344 191.660156 768.046875 190.289062 765.363281 192.664062 C 762.925781 194.828125 763.355469 212.945312 763.867188 217.386719 C 764.289062 221.015625 767.199219 221.890625 770.464844 221.914062 C 802.425781 221.65625 948.796875 222.703125 952.269531 223.324219 C 953.363281 223.519531 954.875 224.46875 955.09375 225.003906 C 955.648438 226.367188 955.457031 227.820312 954.765625 228.992188 " fill-opacity="1" fill-rule="nonzero"/></g></g></g></g><g clip-path="url(#clip-46)"><g clip-path="url(#clip-47)"><g clip-path="url(#clip-48)"><g clip-path="url(#clip-49)"><path fill="rgb(83.139038%, 83.139038%, 76.078796%)" d="M 933.921875 217.980469 L 772.789062 217.1875 C 772.390625 217.183594 772.070312 216.851562 772.074219 216.453125 C 772.082031 216.050781 772.410156 215.730469 772.8125 215.734375 L 933.941406 216.527344 C 934.34375 216.535156 934.664062 216.863281 934.65625 217.265625 C 934.652344 217.667969 934.320312 217.988281 933.921875 217.980469 " fill-opacity="1" fill-rule="nonzero"/></g></g></g></g><g clip-path="url(#clip-50)"><g clip-path="url(#clip-51)"><g clip-path="url(#clip-52)"><g clip-path="url(#clip-53)"><path fill="rgb(83.139038%, 83.139038%, 76.078796%)" d="M 934.320312 208.980469 L 773.1875 208.1875 C 772.789062 208.179688 772.46875 207.847656 772.472656 207.449219 C 772.476562 207.046875 772.808594 206.726562 773.210938 206.734375 L 934.339844 207.523438 C 934.742188 207.53125 935.058594 207.859375 935.054688 208.261719 C 935.046875 208.664062 934.71875 208.984375 934.320312 208.980469 " fill-opacity="1" fill-rule="nonzero"/></g></g></g></g><g clip-path="url(#clip-54)"><g clip-path="url(#clip-55)"><g clip-path="url(#clip-56)"><g clip-path="url(#clip-57)"><path fill="rgb(83.139038%, 83.139038%, 76.078796%)" d="M 922.414062 212.605469 L 773.28125 212.617188 C 772.882812 212.613281 772.5625 212.28125 772.566406 211.882812 C 772.574219 211.480469 772.902344 211.160156 773.304688 211.164062 L 922.433594 211.152344 C 922.835938 211.15625 923.15625 211.488281 923.148438 211.890625 C 923.144531 212.292969 922.816406 212.609375 922.414062 212.605469 " fill-opacity="1" fill-rule="nonzero"/></g></g></g></g><g clip-path="url(#clip-58)"><g clip-path="url(#clip-59)"><g clip-path="url(#clip-60)"><g clip-path="url(#clip-61)"><path fill="rgb(83.139038%, 83.139038%, 76.078796%)" d="M 934.484375 201.703125 L 773.355469 200.910156 C 772.953125 200.90625 772.632812 200.574219 772.640625 200.171875 C 772.644531 199.773438 772.976562 199.453125 773.375 199.457031 L 934.503906 200.25 C 934.90625 200.253906 935.226562 200.585938 935.222656 200.988281 C 935.214844 201.386719 934.886719 201.710938 934.484375 201.703125 " fill-opacity="1" fill-rule="nonzero"/></g></g></g></g><g clip-path="url(#clip-62)"><g clip-path="url(#clip-63)"><g clip-path="url(#clip-64)"><g clip-path="url(#clip-65)"><path fill="rgb(83.139038%, 83.139038%, 76.078796%)" d="M 935.699219 197.5 L 773.398438 196.550781 C 772.996094 196.542969 772.671875 196.214844 772.679688 195.8125 C 772.683594 195.410156 773.015625 195.09375 773.417969 195.097656 L 935.722656 196.046875 C 936.125 196.054688 936.449219 196.382812 936.441406 196.785156 C 936.4375 197.1875 936.105469 197.507812 935.699219 197.5 " fill-opacity="1" fill-rule="nonzero"/></g></g></g></g><g clip-path="url(#clip-66)"><g clip-path="url(#clip-67)"><g clip-path="url(#clip-68)"><g clip-path="url(#clip-69)"><path fill="rgb(98.039246%, 77.648926%, 3.138733%)" d="M 924.964844 257.195312 C 924.898438 263.5 919.746094 268.550781 913.460938 268.496094 L 901.417969 268.375 L 888.863281 268.242188 L 874.675781 268.101562 L 862.121094 267.96875 L 749.082031 266.824219 C 742.789062 266.761719 737.75 261.597656 737.816406 255.304688 L 737.96875 240.085938 C 738.027344 233.78125 743.179688 228.730469 749.472656 228.796875 L 862.886719 229.9375 L 875.441406 230.070312 L 889.628906 230.210938 L 902.183594 230.332031 L 913.84375 230.453125 C 920.136719 230.523438 925.175781 235.683594 925.117188 241.976562 L 924.964844 257.195312 " fill-opacity="1" fill-rule="nonzero"/></g></g></g></g><g clip-path="url(#clip-70)"><g clip-path="url(#clip-71)"><g clip-path="url(#clip-72)"><g clip-path="url(#clip-73)"><path fill="rgb(96.469116%, 55.288696%, 6.669617%)" d="M 875.441406 230.070312 L 874.675781 268.101562 L 862.121094 267.96875 L 862.886719 229.9375 L 875.441406 230.070312 " fill-opacity="1" fill-rule="nonzero"/></g></g></g></g><g clip-path="url(#clip-74)"><g clip-path="url(#clip-75)"><g clip-path="url(#clip-76)"><g clip-path="url(#clip-77)"><path fill="rgb(96.469116%, 55.288696%, 6.669617%)" d="M 902.183594 230.332031 L 901.417969 268.375 L 888.863281 268.242188 L 889.628906 230.210938 L 902.183594 230.332031 " fill-opacity="1" fill-rule="nonzero"/></g></g></g></g><g clip-path="url(#clip-78)"><g clip-path="url(#clip-79)"><g clip-path="url(#clip-80)"><g clip-path="url(#clip-81)"><path fill="rgb(92.939758%, 34.509277%, 43.139648%)" d="M 755.707031 294.914062 C 755.496094 302.253906 760.585938 308.355469 767.066406 308.570312 L 779.488281 308.960938 L 792.433594 309.363281 L 807.0625 309.824219 L 820.007812 310.230469 L 936.578125 313.894531 C 943.066406 314.097656 948.488281 308.3125 948.699219 300.988281 L 949.214844 283.273438 C 949.433594 275.933594 944.347656 269.832031 937.855469 269.628906 L 820.902344 265.941406 L 807.953125 265.539062 L 793.324219 265.078125 L 780.378906 264.664062 L 768.355469 264.292969 C 761.867188 264.089844 756.441406 269.871094 756.222656 277.199219 L 755.707031 294.914062 " fill-opacity="1" fill-rule="nonzero"/></g></g></g></g><g clip-path="url(#clip-82)"><g clip-path="url(#clip-83)"><g clip-path="url(#clip-84)"><g clip-path="url(#clip-85)"><path fill="rgb(96.078491%, 77.249146%, 21.958923%)" d="M 777.351562 300.683594 L 840.183594 301.949219 C 843.128906 302.007812 845.566406 299.664062 845.625 296.714844 L 846.003906 278.007812 C 846.0625 275.058594 843.722656 272.617188 840.777344 272.558594 L 777.941406 271.292969 C 774.996094 271.234375 772.558594 273.578125 772.5 276.527344 L 772.125 295.234375 C 772.0625 298.183594 774.402344 300.625 777.351562 300.683594 " fill-opacity="1" fill-rule="nonzero"/></g></g></g></g><g clip-path="url(#clip-86)"><g clip-path="url(#clip-87)"><g clip-path="url(#clip-88)"><g clip-path="url(#clip-89)"><path fill="rgb(92.939758%, 34.509277%, 43.139648%)" d="M 899.960938 340.566406 L 899.5625 373.101562 L 905.871094 363.074219 L 913.019531 372.542969 L 913.136719 340.632812 C 913.136719 340.632812 904.4375 340.414062 899.960938 340.566406 " fill-opacity="1" fill-rule="nonzero"/></g></g></g></g><path fill="rgb(97.648621%, 67.059326%, 4.708862%)" d="M 905.019531 134.324219 L 897.660156 136.796875 L 877.09375 75.734375 L 884.453125 73.261719 L 905.019531 134.324219 " fill-opacity="1" fill-rule="nonzero"/><path fill="rgb(96.859741%, 73.329163%, 63.919067%)" d="M 877.152344 63.757812 L 877.09375 75.734375 L 884.453125 73.261719 L 877.152344 63.757812 " fill-opacity="1" fill-rule="nonzero"/><path fill="rgb(97.648621%, 67.059326%, 4.708862%)" d="M 880.988281 68.761719 L 877.148438 63.757812 L 877.117188 70.0625 L 880.988281 68.761719 " fill-opacity="1" fill-rule="nonzero"/><path fill="rgb(100%, 100%, 100%)" d="M 877.09375 75.734375 L 877.121094 70.0625 L 877.09375 75.734375 " fill-opacity="1" fill-rule="nonzero"/><path fill="rgb(98.81897%, 79.60968%, 2.349854%)" d="M 897.242188 135.550781 L 877.09375 75.734375 L 880.753906 74.503906 L 898.277344 126.523438 L 897.242188 135.550781 " fill-opacity="1" fill-rule="nonzero"/><path fill="rgb(98.039246%, 85.488892%, 79.219055%)" d="M 877.09375 75.734375 L 877.121094 70.0625 L 879.039062 69.417969 L 880.753906 74.503906 L 877.09375 75.734375 " fill-opacity="1" fill-rule="nonzero"/><path fill="rgb(98.81897%, 79.60968%, 2.349854%)" d="M 877.121094 70.0625 L 877.152344 63.816406 L 879.039062 69.417969 L 877.121094 70.0625 " fill-opacity="1" fill-rule="nonzero"/><path fill="rgb(50.19989%, 79.998779%, 15.689087%)" d="M 909.367188 134.941406 L 901.777344 136.578125 L 888.171875 73.605469 L 895.761719 71.96875 L 909.367188 134.941406 " fill-opacity="1" fill-rule="nonzero"/><path fill="rgb(96.859741%, 73.329163%, 63.919067%)" d="M 889.570312 61.707031 L 888.171875 73.605469 L 895.761719 71.96875 L 889.570312 61.707031 " fill-opacity="1" fill-rule="nonzero"/><path fill="rgb(50.19989%, 79.998779%, 15.689087%)" d="M 892.824219 67.109375 L 889.566406 61.710938 L 888.828125 67.96875 L 892.824219 67.109375 " fill-opacity="1" fill-rule="nonzero"/><path fill="rgb(70.588684%, 86.268616%, 9.408569%)" d="M 898.738281 122.507812 L 888.171875 73.605469 L 891.945312 72.789062 L 900.109375 110.5625 L 898.738281 122.507812 " fill-opacity="1" fill-rule="nonzero"/><path fill="rgb(98.039246%, 85.488892%, 79.219055%)" d="M 888.171875 73.605469 L 888.832031 67.96875 L 890.8125 67.542969 L 891.945312 72.789062 L 888.171875 73.605469 " fill-opacity="1" fill-rule="nonzero"/><path fill="rgb(70.588684%, 86.268616%, 9.408569%)" d="M 888.832031 67.96875 L 889.566406 61.765625 L 890.8125 67.542969 L 888.832031 67.96875 " fill-opacity="1" fill-rule="nonzero"/><path fill="rgb(96.078491%, 46.269226%, 8.239746%)" d="M 904.816406 137.660156 L 897.101562 136.777344 L 904.441406 72.773438 L 912.15625 73.65625 L 904.816406 137.660156 " fill-opacity="1" fill-rule="nonzero"/><path fill="rgb(96.859741%, 73.329163%, 63.919067%)" d="M 909.589844 61.957031 L 904.441406 72.773438 L 912.15625 73.65625 L 909.589844 61.957031 " fill-opacity="1" fill-rule="nonzero"/><path fill="rgb(96.078491%, 46.269226%, 8.239746%)" d="M 910.9375 68.113281 L 909.585938 61.957031 L 906.878906 67.648438 L 910.9375 68.113281 " fill-opacity="1" fill-rule="nonzero"/><path fill="rgb(100%, 100%, 100%)" d="M 904.441406 72.773438 L 906.882812 67.648438 L 904.441406 72.773438 " fill-opacity="1" fill-rule="nonzero"/><path fill="rgb(97.648621%, 65.098572%, 5.099487%)" d="M 900.941406 137.199219 L 897.105469 136.761719 L 904.441406 72.773438 L 908.28125 73.214844 L 901.207031 134.875 L 900.917969 136.164062 L 901.058594 136.195312 L 900.941406 137.199219 " fill-opacity="1" fill-rule="nonzero"/><path fill="rgb(98.039246%, 85.488892%, 79.219055%)" d="M 908.28125 73.214844 L 904.441406 72.773438 L 906.882812 67.648438 L 908.894531 67.878906 L 908.28125 73.214844 " fill-opacity="1" fill-rule="nonzero"/><path fill="rgb(97.648621%, 65.098572%, 5.099487%)" d="M 908.894531 67.878906 L 906.882812 67.648438 L 909.566406 62.007812 L 908.894531 67.878906 " fill-opacity="1" fill-rule="nonzero"/><path fill="rgb(92.939758%, 7.058716%, 48.629761%)" d="M 908.488281 137.878906 L 900.917969 136.164062 L 915.179688 73.335938 L 922.753906 75.050781 L 908.488281 137.878906 " fill-opacity="1" fill-rule="nonzero"/><path fill="rgb(96.859741%, 73.329163%, 63.919067%)" d="M 921.476562 63.140625 L 915.179688 73.335938 L 922.753906 75.050781 L 921.476562 63.140625 " fill-opacity="1" fill-rule="nonzero"/><path fill="rgb(92.939758%, 7.058716%, 48.629761%)" d="M 922.140625 69.410156 L 921.46875 63.140625 L 918.15625 68.503906 L 922.140625 69.410156 " fill-opacity="1" fill-rule="nonzero"/><path fill="rgb(100%, 100%, 100%)" d="M 915.179688 73.335938 L 918.164062 68.507812 L 915.179688 73.335938 " fill-opacity="1" fill-rule="nonzero"/><path fill="rgb(93.728638%, 18.429565%, 57.249451%)" d="M 904.6875 137 L 900.921875 136.144531 L 915.179688 73.335938 L 918.949219 74.1875 L 904.6875 137 " fill-opacity="1" fill-rule="nonzero"/><path fill="rgb(98.039246%, 85.488892%, 79.219055%)" d="M 918.949219 74.1875 L 915.179688 73.335938 L 918.164062 68.507812 L 920.136719 68.953125 L 918.949219 74.1875 " fill-opacity="1" fill-rule="nonzero"/><path fill="rgb(93.728638%, 18.429565%, 57.249451%)" d="M 920.136719 68.953125 L 918.164062 68.507812 L 921.445312 63.1875 L 920.136719 68.953125 " fill-opacity="1" fill-rule="nonzero"/><g clip-path="url(#clip-90)"><path fill="rgb(92.549133%, 0%, 54.899597%)" d="M 857.957031 63.855469 L 852.261719 65.769531 L 848.269531 53.902344 L 853.964844 51.988281 L 857.957031 63.855469 " fill-opacity="1" fill-rule="nonzero"/></g><path fill="rgb(52.549744%, 51.759338%, 51.759338%)" d="M 891.320312 114.285156 L 892.117188 126.847656 L 854.65625 72.609375 L 860.992188 68.363281 L 891.320312 114.285156 " fill-opacity="1" fill-rule="nonzero"/><path fill="rgb(74.119568%, 73.728943%, 73.728943%)" d="M 856.175781 126.089844 L 863.136719 136.578125 L 860.183594 70.75 L 852.570312 71.195312 L 856.175781 126.089844 " fill-opacity="1" fill-rule="nonzero"/><path fill="rgb(74.119568%, 73.728943%, 73.728943%)" d="M 859.066406 62.332031 L 850.457031 65.226562 L 854.046875 75.886719 L 862.65625 72.996094 L 859.066406 62.332031 " fill-opacity="1" fill-rule="nonzero"/><path fill="rgb(92.549133%, 0%, 54.899597%)" d="M 866.90625 72.960938 C 868.417969 77.445312 866 82.304688 861.507812 83.816406 C 857.015625 85.324219 852.148438 82.910156 850.636719 78.421875 C 849.125 73.933594 851.542969 69.070312 856.035156 67.566406 C 860.53125 66.054688 865.394531 68.46875 866.90625 72.960938 " fill-opacity="1" fill-rule="nonzero"/><path fill="rgb(100%, 100%, 100%)" d="M 862.6875 74.375 C 863.414062 76.535156 862.25 78.875 860.085938 79.601562 C 857.921875 80.328125 855.582031 79.164062 854.855469 77.003906 C 854.125 74.84375 855.289062 72.503906 857.453125 71.777344 C 859.617188 71.050781 861.960938 72.214844 862.6875 74.375 " fill-opacity="1" fill-rule="nonzero"/><path fill="rgb(39.219666%, 78.819275%, 87.059021%)" d="M 908.597656 179.875 L 861.425781 179.875 L 849.554688 102.386719 L 920.464844 102.386719 L 908.597656 179.875 " fill-opacity="1" fill-rule="nonzero"/><g clip-path="url(#clip-91)"><path fill="rgb(32.548523%, 64.709473%, 72.158813%)" d="M 924.011719 97.230469 L 846.011719 97.230469 L 846.011719 102.386719 L 924.011719 102.386719 L 924.011719 97.230469 " fill-opacity="1" fill-rule="nonzero"/></g><path fill="rgb(97.648621%, 67.059326%, 4.708862%)" d="M 198.765625 129.984375 L 191.410156 132.457031 L 170.839844 71.394531 L 178.199219 68.925781 L 198.765625 129.984375 " fill-opacity="1" fill-rule="nonzero"/><path fill="rgb(96.859741%, 73.329163%, 63.919067%)" d="M 170.902344 59.417969 L 170.839844 71.394531 L 178.199219 68.925781 L 170.902344 59.417969 " fill-opacity="1" fill-rule="nonzero"/><path fill="rgb(97.648621%, 67.059326%, 4.708862%)" d="M 174.738281 64.421875 L 170.894531 59.417969 L 170.863281 65.722656 L 174.738281 64.421875 " fill-opacity="1" fill-rule="nonzero"/><path fill="rgb(100%, 100%, 100%)" d="M 170.839844 71.394531 L 170.867188 65.722656 L 170.839844 71.394531 " fill-opacity="1" fill-rule="nonzero"/><path fill="rgb(98.81897%, 79.60968%, 2.349854%)" d="M 190.988281 131.210938 L 170.839844 71.394531 L 174.503906 70.164062 L 192.023438 122.1875 L 190.988281 131.210938 " fill-opacity="1" fill-rule="nonzero"/><path fill="rgb(98.039246%, 85.488892%, 79.219055%)" d="M 170.839844 71.394531 L 170.867188 65.722656 L 172.789062 65.078125 L 174.503906 70.164062 L 170.839844 71.394531 " fill-opacity="1" fill-rule="nonzero"/><path fill="rgb(98.81897%, 79.60968%, 2.349854%)" d="M 170.867188 65.722656 L 170.898438 59.476562 L 172.789062 65.078125 L 170.867188 65.722656 " fill-opacity="1" fill-rule="nonzero"/><path fill="rgb(50.19989%, 79.998779%, 15.689087%)" d="M 203.117188 130.601562 L 195.527344 132.238281 L 181.917969 69.265625 L 189.507812 67.628906 L 203.117188 130.601562 " fill-opacity="1" fill-rule="nonzero"/><path fill="rgb(96.859741%, 73.329163%, 63.919067%)" d="M 183.316406 57.367188 L 181.917969 69.265625 L 189.507812 67.628906 L 183.316406 57.367188 " fill-opacity="1" fill-rule="nonzero"/><path fill="rgb(50.19989%, 79.998779%, 15.689087%)" d="M 186.570312 62.769531 L 183.3125 57.371094 L 182.574219 63.632812 L 186.570312 62.769531 " fill-opacity="1" fill-rule="nonzero"/><path fill="rgb(70.588684%, 86.268616%, 9.408569%)" d="M 192.488281 118.167969 L 181.917969 69.265625 L 185.695312 68.453125 L 193.855469 106.222656 L 192.488281 118.167969 " fill-opacity="1" fill-rule="nonzero"/><path fill="rgb(98.039246%, 85.488892%, 79.219055%)" d="M 181.917969 69.265625 L 182.582031 63.632812 L 184.558594 63.203125 L 185.695312 68.453125 L 181.917969 69.265625 " fill-opacity="1" fill-rule="nonzero"/><path fill="rgb(70.588684%, 86.268616%, 9.408569%)" d="M 182.582031 63.632812 L 183.3125 57.425781 L 184.558594 63.203125 L 182.582031 63.632812 " fill-opacity="1" fill-rule="nonzero"/><path fill="rgb(96.078491%, 46.269226%, 8.239746%)" d="M 198.5625 133.324219 L 190.847656 132.4375 L 198.191406 68.4375 L 205.902344 69.316406 L 198.5625 133.324219 " fill-opacity="1" fill-rule="nonzero"/><path fill="rgb(96.859741%, 73.329163%, 63.919067%)" d="M 203.339844 57.617188 L 198.191406 68.4375 L 205.902344 69.316406 L 203.339844 57.617188 " fill-opacity="1" fill-rule="nonzero"/><path fill="rgb(96.078491%, 46.269226%, 8.239746%)" d="M 204.683594 63.773438 L 203.332031 57.617188 L 200.625 63.308594 L 204.683594 63.773438 " fill-opacity="1" fill-rule="nonzero"/><path fill="rgb(100%, 100%, 100%)" d="M 198.191406 68.4375 L 200.628906 63.3125 L 198.191406 68.4375 " fill-opacity="1" fill-rule="nonzero"/><path fill="rgb(97.648621%, 65.098572%, 5.099487%)" d="M 194.691406 132.859375 L 190.851562 132.421875 L 198.191406 68.4375 L 202.027344 68.875 L 194.957031 130.535156 L 194.664062 131.824219 L 194.804688 131.855469 L 194.691406 132.859375 " fill-opacity="1" fill-rule="nonzero"/><path fill="rgb(98.039246%, 85.488892%, 79.219055%)" d="M 202.027344 68.875 L 198.191406 68.4375 L 200.628906 63.3125 L 202.640625 63.542969 L 202.027344 68.875 " fill-opacity="1" fill-rule="nonzero"/><path fill="rgb(97.648621%, 65.098572%, 5.099487%)" d="M 202.640625 63.542969 L 200.628906 63.3125 L 203.316406 57.667969 L 202.640625 63.542969 " fill-opacity="1" fill-rule="nonzero"/><path fill="rgb(92.939758%, 7.058716%, 48.629761%)" d="M 202.234375 133.539062 L 194.664062 131.824219 L 208.925781 68.996094 L 216.5 70.710938 L 202.234375 133.539062 " fill-opacity="1" fill-rule="nonzero"/><path fill="rgb(96.859741%, 73.329163%, 63.919067%)" d="M 215.222656 58.800781 L 208.925781 68.996094 L 216.5 70.710938 L 215.222656 58.800781 " fill-opacity="1" fill-rule="nonzero"/><path fill="rgb(92.939758%, 7.058716%, 48.629761%)" d="M 215.890625 65.070312 L 215.21875 58.800781 L 211.90625 64.167969 L 215.890625 65.070312 " fill-opacity="1" fill-rule="nonzero"/><path fill="rgb(100%, 100%, 100%)" d="M 208.925781 68.996094 L 211.910156 64.167969 L 208.925781 68.996094 " fill-opacity="1" fill-rule="nonzero"/><path fill="rgb(93.728638%, 18.429565%, 57.249451%)" d="M 198.433594 132.660156 L 194.667969 131.804688 L 208.925781 68.996094 L 212.695312 69.851562 L 198.433594 132.660156 " fill-opacity="1" fill-rule="nonzero"/><path fill="rgb(98.039246%, 85.488892%, 79.219055%)" d="M 212.695312 69.851562 L 208.925781 68.996094 L 211.910156 64.167969 L 213.882812 64.613281 L 212.695312 69.851562 " fill-opacity="1" fill-rule="nonzero"/><path fill="rgb(93.728638%, 18.429565%, 57.249451%)" d="M 213.882812 64.613281 L 211.910156 64.167969 L 215.191406 58.851562 L 213.882812 64.613281 " fill-opacity="1" fill-rule="nonzero"/><g clip-path="url(#clip-92)"><path fill="rgb(92.549133%, 0%, 54.899597%)" d="M 151.707031 59.515625 L 146.007812 61.429688 L 142.015625 49.5625 L 147.710938 47.652344 L 151.707031 59.515625 " fill-opacity="1" fill-rule="nonzero"/></g><path fill="rgb(52.549744%, 51.759338%, 51.759338%)" d="M 185.066406 109.949219 L 185.863281 122.507812 L 148.402344 68.269531 L 154.742188 64.023438 L 185.066406 109.949219 " fill-opacity="1" fill-rule="nonzero"/><path fill="rgb(74.119568%, 73.728943%, 73.728943%)" d="M 149.925781 121.75 L 156.886719 132.238281 L 153.929688 66.410156 L 146.316406 66.855469 L 149.925781 121.75 " fill-opacity="1" fill-rule="nonzero"/><path fill="rgb(74.119568%, 73.728943%, 73.728943%)" d="M 152.8125 57.996094 L 144.203125 60.886719 L 147.792969 71.546875 L 156.402344 68.65625 L 152.8125 57.996094 " fill-opacity="1" fill-rule="nonzero"/><path fill="rgb(92.549133%, 0%, 54.899597%)" d="M 160.65625 68.621094 C 162.164062 73.105469 159.746094 77.964844 155.253906 79.476562 C 150.761719 80.984375 145.894531 78.570312 144.382812 74.082031 C 142.871094 69.59375 145.292969 64.734375 149.78125 63.226562 C 154.277344 61.714844 159.144531 64.128906 160.65625 68.621094 " fill-opacity="1" fill-rule="nonzero"/><path fill="rgb(100%, 100%, 100%)" d="M 156.4375 70.035156 C 157.164062 72.195312 155.996094 74.535156 153.835938 75.261719 C 151.671875 75.988281 149.328125 74.824219 148.601562 72.667969 C 147.875 70.503906 149.035156 68.164062 151.199219 67.4375 C 153.363281 66.710938 155.707031 67.875 156.4375 70.035156 " fill-opacity="1" fill-rule="nonzero"/><g clip-path="url(#clip-93)"><path fill="rgb(39.219666%, 78.819275%, 87.059021%)" d="M 202.34375 175.535156 L 155.171875 175.535156 L 143.304688 98.046875 L 214.210938 98.046875 L 202.34375 175.535156 " fill-opacity="1" fill-rule="nonzero"/></g><g clip-path="url(#clip-94)"><path fill="rgb(32.548523%, 64.709473%, 72.158813%)" d="M 217.757812 92.890625 L 139.757812 92.890625 L 139.757812 98.046875 L 217.757812 98.046875 L 217.757812 92.890625 " fill-opacity="1" fill-rule="nonzero"/></g><g clip-path="url(#clip-95)"><path fill="rgb(94.898987%, 50.19989%, 17.649841%)" d="M 351.648438 398.179688 L 390.09375 398.179688 C 397.148438 398.179688 402.871094 392.457031 402.871094 385.398438 L 402.871094 171.066406 C 402.871094 164.007812 397.148438 158.285156 390.09375 158.285156 L 351.648438 158.285156 C 344.59375 158.285156 338.871094 164.007812 338.871094 171.066406 L 338.871094 385.394531 C 338.871094 392.457031 344.59375 398.179688 351.648438 398.179688 " fill-opacity="1" fill-rule="nonzero"/></g><path fill="rgb(96.078491%, 77.249146%, 21.958923%)" d="M 354.082031 345.347656 L 387.660156 345.347656 C 390.917969 345.347656 393.558594 342.707031 393.558594 339.449219 L 393.558594 181.175781 C 393.558594 177.914062 390.917969 175.273438 387.660156 175.273438 L 354.082031 175.273438 C 350.824219 175.273438 348.183594 177.914062 348.183594 181.175781 L 348.183594 339.449219 C 348.183594 342.707031 350.824219 345.347656 354.082031 345.347656 " fill-opacity="1" fill-rule="nonzero"/><path fill="rgb(96.078491%, 77.249146%, 21.958923%)" d="M 300.988281 101.457031 L 300.988281 374.820312 C 300.988281 383.824219 303.851562 391.136719 307.378906 391.136719 L 326.609375 391.136719 C 330.132812 391.136719 332.996094 383.824219 332.996094 374.820312 L 332.996094 101.457031 C 332.996094 92.453125 330.132812 85.167969 326.609375 85.167969 L 307.378906 85.167969 C 303.851562 85.167969 300.988281 92.453125 300.988281 101.457031 " fill-opacity="1" fill-rule="nonzero"/><path fill="rgb(51.759338%, 73.728943%, 66.268921%)" d="M 300.988281 106.097656 L 300.988281 128.777344 L 332.996094 128.777344 L 332.996094 106.097656 L 300.988281 106.097656 " fill-opacity="1" fill-rule="nonzero"/><path fill="rgb(51.759338%, 73.728943%, 66.268921%)" d="M 300.988281 351.253906 L 300.988281 373.933594 L 332.996094 373.933594 L 332.996094 351.253906 L 300.988281 351.253906 " fill-opacity="1" fill-rule="nonzero"/><path fill="rgb(94.898987%, 50.19989%, 17.649841%)" d="M 266.171875 102.5 L 201.71875 368.148438 C 199.59375 376.898438 200.65625 384.679688 204.082031 385.511719 L 222.769531 390.050781 C 226.191406 390.882812 230.699219 384.457031 232.824219 375.707031 L 297.277344 110.054688 C 299.398438 101.304688 298.332031 93.550781 294.90625 92.71875 L 276.21875 88.179688 C 272.796875 87.347656 268.292969 93.75 266.171875 102.5 " fill-opacity="1" fill-rule="nonzero"/><path fill="rgb(96.078491%, 77.249146%, 21.958923%)" d="M 265.074219 107.011719 L 262.773438 116.5 L 293.878906 124.054688 L 296.179688 114.570312 L 265.074219 107.011719 " fill-opacity="1" fill-rule="nonzero"/><path fill="rgb(96.078491%, 77.249146%, 21.958923%)" d="M 260.175781 127.214844 L 257.871094 136.703125 L 288.976562 144.257812 L 291.28125 134.769531 L 260.175781 127.214844 " fill-opacity="1" fill-rule="nonzero"/></svg>