<?xml version="1.0" encoding="UTF-8"?><svg xmlns="http://www.w3.org/2000/svg" xmlns:xlink="http://www.w3.org/1999/xlink" contentScriptType="text/ecmascript" width="1440" zoomAndPan="magnify" contentStyleType="text/css" viewBox="0 0 1440 809.999993" height="809.999993" preserveAspectRatio="xMidYMid meet" version="1.0"><defs><filter x="0%" y="0%" width="100%" xmlns:xlink="http://www.w3.org/1999/xlink" xlink:type="simple" xlink:actuate="onLoad" height="100%" id="filter-remove-color" xlink:show="other"><feColorMatrix values="0 0 0 0 1 0 0 0 0 1 0 0 0 0 1 0 0 0 1 0" color-interpolation-filters="sRGB"/></filter><mask id="mask-0"><g filter="url(#filter-remove-color)"><rect x="-144" width="1728" fill="rgb(0%, 0%, 0%)" y="-80.999999" height="971.999992" fill-opacity="0.098"/></g></mask><clipPath id="clip-0"><path d="M 2 2 L 434 2 L 434 678 L 2 678 Z M 2 2 " clip-rule="nonzero"/></clipPath><clipPath id="clip-1"><rect x="0" width="434" y="0" height="678"/></clipPath><mask id="mask-1"><g filter="url(#filter-remove-color)"><rect x="-144" width="1728" fill="rgb(0%, 0%, 0%)" y="-80.999999" height="971.999992" fill-opacity="0.098"/></g></mask><clipPath id="clip-2"><path d="M 1 0 L 376 0 L 376 233 L 1 233 Z M 1 0 " clip-rule="nonzero"/></clipPath><clipPath id="clip-3"><rect x="0" width="376" y="0" height="234"/></clipPath><mask id="mask-2"><g filter="url(#filter-remove-color)"><rect x="-144" width="1728" fill="rgb(0%, 0%, 0%)" y="-80.999999" height="971.999992" fill-opacity="0.098"/></g></mask><clipPath id="clip-4"><path d="M 0 0 L 518 0 L 518 541 L 0 541 Z M 0 0 " clip-rule="nonzero"/></clipPath><clipPath id="clip-5"><path d="M 341.152344 642.6875 L -311.507812 416.472656 L -76.941406 -260.277344 L 575.71875 -34.0625 Z M 341.152344 642.6875 " clip-rule="nonzero"/></clipPath><clipPath id="clip-6"><path d="M 341.152344 642.6875 L -311.507812 416.472656 L -76.941406 -260.277344 L 575.71875 -34.0625 Z M 341.152344 642.6875 " clip-rule="nonzero"/></clipPath><clipPath id="clip-7"><rect x="0" width="572" y="0" height="641"/></clipPath><mask id="mask-3"><g filter="url(#filter-remove-color)"><rect x="-144" width="1728" fill="rgb(0%, 0%, 0%)" y="-80.999999" height="971.999992" fill-opacity="0.098"/></g></mask><clipPath id="clip-8"><path d="M 0 65 L 406 65 L 406 517 L 0 517 Z M 0 65 " clip-rule="nonzero"/></clipPath><clipPath id="clip-9"><path d="M -174.960938 133.386719 L 327.203125 -0.667969 L 466.09375 519.613281 L -36.070312 653.667969 Z M -174.960938 133.386719 " clip-rule="nonzero"/></clipPath><clipPath id="clip-10"><path d="M -174.960938 133.386719 L 327.203125 -0.667969 L 466.09375 519.613281 L -36.070312 653.667969 Z M -174.960938 133.386719 " clip-rule="nonzero"/></clipPath><clipPath id="clip-11"><rect x="0" width="464" y="0" height="517"/></clipPath><clipPath id="clip-12"><path d="M 88 0 L 306 0 L 306 114 L 88 114 Z M 88 0 " clip-rule="nonzero"/></clipPath><clipPath id="clip-13"><path d="M 186.460938 166.683594 L 34.46875 26.160156 L 180.085938 -131.339844 L 332.078125 9.183594 Z M 186.460938 166.683594 " clip-rule="nonzero"/></clipPath><clipPath id="clip-14"><path d="M 186.460938 166.683594 L 34.46875 26.160156 L 180.085938 -131.339844 L 332.078125 9.183594 Z M 186.460938 166.683594 " clip-rule="nonzero"/></clipPath><clipPath id="clip-15"><path d="M 1346 523 L 1440 523 L 1440 662 L 1346 662 Z M 1346 523 " clip-rule="nonzero"/></clipPath><clipPath id="clip-16"><path d="M 1314 549.183594 L 1434.894531 500.046875 L 1485.726562 625.113281 L 1364.832031 674.25 Z M 1314 549.183594 " clip-rule="nonzero"/></clipPath><clipPath id="clip-17"><path d="M 1314 549.183594 L 1434.894531 500.046875 L 1485.726562 625.113281 L 1364.832031 674.25 Z M 1314 549.183594 " clip-rule="nonzero"/></clipPath></defs><rect x="-144" width="1728" fill="rgb(100%, 100%, 100%)" y="-80.999999" height="971.999992" fill-opacity="1"/><rect x="-144" width="1728" fill="rgb(41.958618%, 83.139038%, 80.389404%)" y="-80.999999" height="971.999992" fill-opacity="1"/><g mask="url(#mask-0)"><g transform="matrix(1, 0, 0, 1, 1006, 132)"><g id="source-5" clip-path="url(#clip-1)"><g clip-path="url(#clip-0)"><path fill="rgb(1.568604%, 20.388794%, 36.079407%)" d="M 699.488281 350.636719 C 685.519531 277.210938 644.785156 212.757812 598.171875 155.519531 C 556.996094 105.046875 508.175781 59.875 449.210938 31.179688 C 420.683594 17.199219 388.480469 4.398438 356.570312 2.632812 C 324.804688 0.867188 292.75 7.195312 263.632812 19.996094 C 234.078125 32.796875 207.167969 52.808594 187.019531 77.824219 C 164.082031 106.078125 151.289062 140.070312 137.90625 173.617188 C 107.613281 249.839844 61.144531 318.117188 30.265625 394.339844 C 2.914062 461.730469 -10.46875 538.542969 17.472656 608.289062 C 44.234375 674.800781 106.585938 713.058594 175.109375 726.007812 C 253.488281 740.574219 334.511719 724.683594 407.449219 694.519531 C 444.0625 679.511719 479.0625 660.824219 513.175781 640.664062 C 546.851562 620.652344 580.671875 600.199219 612.140625 576.949219 C 640.667969 555.90625 665.667969 531.039062 681.402344 498.960938 C 696.402344 468.5 703.605469 434.363281 703.898438 400.371094 C 704.046875 383.449219 702.28125 366.824219 699.488281 350.636719 " fill-opacity="1" fill-rule="nonzero"/></g></g></g></g><g mask="url(#mask-1)"><g transform="matrix(1, 0, 0, 1, 1064, 0.000000000000039746)"><g id="source-8" clip-path="url(#clip-3)"><g clip-path="url(#clip-2)"><path fill="rgb(1.568604%, 20.388794%, 36.079407%)" d="M 215.210938 -194.910156 C 170.195312 -186.339844 130.6875 -161.351562 95.597656 -132.75 C 64.65625 -107.492188 36.960938 -77.539062 19.371094 -41.363281 C 10.804688 -23.859375 2.957031 -4.101562 1.871094 15.476562 C 0.789062 34.960938 4.667969 54.628906 12.515625 72.492188 C 20.363281 90.625 32.632812 107.136719 47.96875 119.496094 C 65.289062 133.570312 86.125 141.417969 106.691406 149.628906 C 153.417969 168.214844 195.273438 196.722656 242 215.667969 C 283.316406 232.449219 330.402344 240.65625 373.160156 223.515625 C 413.933594 207.097656 437.386719 168.84375 445.324219 126.804688 C 454.253906 78.71875 444.511719 29.007812 426.019531 -15.738281 C 416.820312 -38.203125 405.363281 -59.675781 393.007812 -80.605469 C 380.738281 -101.265625 368.199219 -122.015625 353.945312 -141.324219 C 341.046875 -158.824219 325.800781 -174.160156 306.136719 -183.816406 C 287.464844 -193.015625 266.539062 -197.4375 245.699219 -197.617188 C 235.324219 -197.707031 225.132812 -196.625 215.210938 -194.910156 " fill-opacity="1" fill-rule="nonzero"/></g></g></g></g><g mask="url(#mask-2)"><g transform="matrix(1, 0, 0, 1, 0, 0.000000000000039746)"><g id="source-11" clip-path="url(#clip-7)"><g clip-path="url(#clip-4)"><g clip-path="url(#clip-5)"><g clip-path="url(#clip-6)"><path fill="rgb(1.568604%, 20.388794%, 36.079407%)" d="M -191.964844 96.90625 C -202.511719 168.824219 -185.609375 241.019531 -161.003906 308.464844 C -139.242188 367.957031 -108.769531 425.015625 -63.722656 470.160156 C -41.960938 492.09375 -16.445312 514.113281 12.316406 525.898438 C 40.941406 537.636719 72.414062 542.03125 103.246094 539.542969 C 134.484375 537.195312 165.585938 527.375 192.0625 510.804688 C 222.140625 492.152344 244.722656 464.992188 267.703125 438.425781 C 319.816406 378.035156 384.261719 330.097656 436.914062 269.894531 C 483.511719 216.679688 520.269531 150.359375 516.8125 77.371094 C 513.402344 7.734375 468.292969 -47.28125 409.449219 -81.003906 C 342.066406 -119.351562 262.550781 -130.554688 185.917969 -126.066406 C 147.492188 -123.9375 109.382812 -117.914062 71.613281 -110.253906 C 34.292969 -102.59375 -3.300781 -94.570312 -39.621094 -83.230469 C -72.535156 -72.980469 -103.429688 -58.089844 -128.101562 -33.625 C -151.585938 -10.414062 -169.082031 18.660156 -180.175781 49.796875 C -185.703125 65.300781 -189.375 81.140625 -191.964844 96.90625 " fill-opacity="1" fill-rule="nonzero"/></g></g></g></g></g></g><g mask="url(#mask-3)"><g transform="matrix(1, 0, 0, 1, 0, 293)"><g id="source-14" clip-path="url(#clip-11)"><g clip-path="url(#clip-8)"><g clip-path="url(#clip-9)"><g clip-path="url(#clip-10)"><path fill="rgb(1.568604%, 20.388794%, 36.079407%)" d="M 387.316406 248.710938 C 363.59375 199.476562 322.640625 161.636719 278.886719 129.996094 C 240.257812 102.113281 197.222656 79.417969 150.117188 70.277344 C 127.3125 65.785156 102.128906 62.820312 79.234375 67.597656 C 56.445312 72.34375 34.972656 82.863281 16.800781 97.402344 C -1.679688 112.023438 -16.933594 131.242188 -26.460938 152.714844 C -37.351562 177.003906 -39.984375 203.429688 -43.121094 229.65625 C -50.164062 289.21875 -70.140625 346.222656 -77.597656 405.894531 C -84.226562 458.667969 -79.203125 515.453125 -46.296875 559.453125 C -14.832031 601.386719 36.464844 616.644531 87.355469 612.859375 C 145.519531 608.355469 199.808594 581.835938 245.6875 546.761719 C 268.746094 529.246094 289.964844 509.441406 310.285156 488.757812 C 330.316406 468.265625 350.375 447.433594 368.238281 425.070312 C 384.441406 404.820312 397.425781 382.535156 402.5 356.90625 C 407.359375 332.558594 406.015625 307.082031 399.816406 283.011719 C 396.726562 271.03125 392.34375 259.617188 387.316406 248.710938 " fill-opacity="1" fill-rule="nonzero"/></g></g></g></g></g></g><g clip-path="url(#clip-12)"><g clip-path="url(#clip-13)"><g clip-path="url(#clip-14)"><path fill="rgb(1.568604%, 20.388794%, 36.079407%)" d="M 105.640625 -47.15625 C 94.109375 -28.691406 90.085938 -6.847656 88.742188 14.613281 C 87.574219 33.554688 89.089844 52.875 96.035156 70.675781 C 99.375 79.3125 103.738281 88.421875 110.214844 95.113281 C 116.664062 101.773438 124.777344 106.761719 133.539062 109.785156 C 142.394531 112.894531 152.109375 113.941406 161.367188 112.578125 C 171.863281 111.074219 181.320312 106.335938 190.816406 101.808594 C 212.371094 91.5 235.8125 86.09375 257.492188 75.902344 C 276.671875 66.902344 294.722656 53.125 302.535156 32.679688 C 309.957031 13.160156 304.179688 -7.355469 292.074219 -23.683594 C 278.183594 -42.304688 257.699219 -54.9375 236.128906 -62.917969 C 225.324219 -66.953125 214.140625 -69.882812 202.855469 -72.320312 C 191.691406 -74.703125 180.410156 -77.019531 169.078125 -78.273438 C 158.8125 -79.417969 148.546875 -79.046875 138.835938 -75.300781 C 129.605469 -71.753906 121.3125 -65.878906 114.527344 -58.667969 C 111.152344 -55.078125 108.242188 -51.171875 105.640625 -47.15625 " fill-opacity="1" fill-rule="nonzero"/></g></g></g><g clip-path="url(#clip-15)"><g clip-path="url(#clip-16)"><g clip-path="url(#clip-17)"><path fill="rgb(1.568604%, 20.388794%, 36.079407%)" d="M 1457.652344 560.195312 C 1450.207031 548.695312 1438.824219 540.570312 1426.9375 534.074219 C 1416.445312 528.351562 1405.019531 524.058594 1393 523.265625 C 1387.179688 522.863281 1380.816406 522.917969 1375.261719 524.824219 C 1369.734375 526.722656 1364.714844 530.015625 1360.640625 534.203125 C 1356.496094 538.421875 1353.296875 543.683594 1351.59375 549.324219 C 1349.636719 555.710938 1349.804688 562.367188 1349.84375 568.988281 C 1349.949219 584.027344 1346.75 598.835938 1346.753906 613.917969 C 1346.75 627.253906 1349.773438 641.222656 1359.34375 651.132812 C 1368.492188 660.578125 1381.742188 662.761719 1394.300781 660.21875 C 1408.648438 657.269531 1421.34375 648.964844 1431.675781 638.796875 C 1436.871094 633.714844 1441.539062 628.121094 1445.957031 622.335938 C 1450.304688 616.609375 1454.652344 610.796875 1458.402344 604.671875 C 1461.808594 599.125 1464.347656 593.171875 1464.808594 586.636719 C 1465.261719 580.425781 1464.132812 574.128906 1461.835938 568.335938 C 1460.691406 565.453125 1459.246094 562.753906 1457.652344 560.195312 " fill-opacity="1" fill-rule="nonzero"/></g></g></g><path fill="rgb(1.568604%, 20.388794%, 36.079407%)" d="M 34.5 81 C 8.820312 81 -12 101.820312 -12 127.5 C -12 153.179688 8.820312 174 34.5 174 C 60.179688 174 81 153.179688 81 127.5 C 81 101.820312 60.179688 81 34.5 81 Z M 34.5 81 " fill-opacity="1" fill-rule="nonzero"/><path fill="rgb(1.568604%, 20.388794%, 36.079407%)" d="M 1336.5 684 C 1324.074219 684 1314 694.074219 1314 706.5 C 1314 718.925781 1324.074219 729 1336.5 729 C 1348.925781 729 1359 718.925781 1359 706.5 C 1359 694.074219 1348.925781 684 1336.5 684 Z M 1336.5 684 " fill-opacity="1" fill-rule="nonzero"/></svg>