<?xml version="1.0" encoding="UTF-8"?><svg xmlns="http://www.w3.org/2000/svg" xmlns:xlink="http://www.w3.org/1999/xlink" contentScriptType="text/ecmascript" width="1440" zoomAndPan="magnify" contentStyleType="text/css" viewBox="0 0 1440 359.999987" height="359.999987" preserveAspectRatio="xMidYMid meet" version="1.0"><defs><clipPath id="clip-0"><path d="M 677 0 L 1112 0 L 1112 360 L 677 360 Z M 677 0 " clip-rule="nonzero"/></clipPath><clipPath id="clip-1"><path d="M 637.183594 -102.230469 L 1236.886719 -0.617188 L 1148.558594 520.699219 L 548.855469 419.089844 Z M 637.183594 -102.230469 " clip-rule="nonzero"/></clipPath><clipPath id="clip-2"><path d="M 637.183594 -102.230469 L 1236.886719 -0.617188 L 1148.558594 520.699219 L 548.855469 419.089844 Z M 637.183594 -102.230469 " clip-rule="nonzero"/></clipPath><clipPath id="clip-3"><path d="M 418 0 L 1191 0 L 1191 360 L 418 360 Z M 418 0 " clip-rule="nonzero"/></clipPath><clipPath id="clip-4"><path d="M 487.757812 893.496094 L 242.582031 -135.1875 L 1137.757812 -348.546875 L 1382.933594 680.140625 Z M 487.757812 893.496094 " clip-rule="nonzero"/></clipPath><clipPath id="clip-5"><path d="M 487.757812 893.496094 L 242.582031 -135.1875 L 1137.757812 -348.546875 L 1382.933594 680.140625 Z M 487.757812 893.496094 " clip-rule="nonzero"/></clipPath><clipPath id="clip-6"><path d="M 799.320312 114.429688 L 878 114.429688 L 878 360 L 799.320312 360 Z M 799.320312 114.429688 " clip-rule="nonzero"/></clipPath><clipPath id="clip-7"><path d="M 820 179 L 933.859375 179 L 933.859375 284.484375 L 820 284.484375 Z M 820 179 " clip-rule="nonzero"/></clipPath><clipPath id="clip-8"><path d="M 64 0 L 351 0 L 351 329 L 64 329 Z M 64 0 " clip-rule="nonzero"/></clipPath><clipPath id="clip-9"><path d="M 244.132812 364.589844 L -0.105469 244.308594 L 163.253906 -87.398438 L 407.492188 32.882812 Z M 244.132812 364.589844 " clip-rule="nonzero"/></clipPath><clipPath id="clip-10"><path d="M 244.132812 364.589844 L -0.105469 244.308594 L 163.253906 -87.398438 L 407.492188 32.882812 Z M 244.132812 364.589844 " clip-rule="nonzero"/></clipPath><clipPath id="clip-11"><path d="M 897 74 L 913 74 L 913 99 L 897 99 Z M 897 74 " clip-rule="nonzero"/></clipPath><clipPath id="clip-12"><path d="M 879.242188 72.902344 L 936.65625 55.476562 L 956.695312 121.5 L 899.28125 138.925781 Z M 879.242188 72.902344 " clip-rule="nonzero"/></clipPath><clipPath id="clip-13"><path d="M 879.242188 72.902344 L 936.65625 55.476562 L 956.695312 121.5 L 899.28125 138.925781 Z M 879.242188 72.902344 " clip-rule="nonzero"/></clipPath><clipPath id="clip-14"><path d="M 930 77 L 931 77 L 931 78 L 930 78 Z M 930 77 " clip-rule="nonzero"/></clipPath><clipPath id="clip-15"><path d="M 879.242188 72.902344 L 936.65625 55.476562 L 956.695312 121.5 L 899.28125 138.925781 Z M 879.242188 72.902344 " clip-rule="nonzero"/></clipPath><clipPath id="clip-16"><path d="M 879.242188 72.902344 L 936.65625 55.476562 L 956.695312 121.5 L 899.28125 138.925781 Z M 879.242188 72.902344 " clip-rule="nonzero"/></clipPath><clipPath id="clip-17"><path d="M 895 71 L 939 71 L 939 131 L 895 131 Z M 895 71 " clip-rule="nonzero"/></clipPath><clipPath id="clip-18"><path d="M 879.242188 72.902344 L 936.65625 55.476562 L 956.695312 121.5 L 899.28125 138.925781 Z M 879.242188 72.902344 " clip-rule="nonzero"/></clipPath><clipPath id="clip-19"><path d="M 879.242188 72.902344 L 936.65625 55.476562 L 956.695312 121.5 L 899.28125 138.925781 Z M 879.242188 72.902344 " clip-rule="nonzero"/></clipPath><clipPath id="clip-20"><path d="M 907 64 L 911 64 L 911 70 L 907 70 Z M 907 64 " clip-rule="nonzero"/></clipPath><clipPath id="clip-21"><path d="M 879.242188 72.902344 L 936.65625 55.476562 L 956.695312 121.5 L 899.28125 138.925781 Z M 879.242188 72.902344 " clip-rule="nonzero"/></clipPath><clipPath id="clip-22"><path d="M 879.242188 72.902344 L 936.65625 55.476562 L 956.695312 121.5 L 899.28125 138.925781 Z M 879.242188 72.902344 " clip-rule="nonzero"/></clipPath><clipPath id="clip-23"><path d="M 890 78 L 896 78 L 896 82 L 890 82 Z M 890 78 " clip-rule="nonzero"/></clipPath><clipPath id="clip-24"><path d="M 879.242188 72.902344 L 936.65625 55.476562 L 956.695312 121.5 L 899.28125 138.925781 Z M 879.242188 72.902344 " clip-rule="nonzero"/></clipPath><clipPath id="clip-25"><path d="M 879.242188 72.902344 L 936.65625 55.476562 L 956.695312 121.5 L 899.28125 138.925781 Z M 879.242188 72.902344 " clip-rule="nonzero"/></clipPath><clipPath id="clip-26"><path d="M 887 99 L 894 99 L 894 103 L 887 103 Z M 887 99 " clip-rule="nonzero"/></clipPath><clipPath id="clip-27"><path d="M 879.242188 72.902344 L 936.65625 55.476562 L 956.695312 121.5 L 899.28125 138.925781 Z M 879.242188 72.902344 " clip-rule="nonzero"/></clipPath><clipPath id="clip-28"><path d="M 879.242188 72.902344 L 936.65625 55.476562 L 956.695312 121.5 L 899.28125 138.925781 Z M 879.242188 72.902344 " clip-rule="nonzero"/></clipPath><clipPath id="clip-29"><path d="M 902 114 L 906 114 L 906 120 L 902 120 Z M 902 114 " clip-rule="nonzero"/></clipPath><clipPath id="clip-30"><path d="M 879.242188 72.902344 L 936.65625 55.476562 L 956.695312 121.5 L 899.28125 138.925781 Z M 879.242188 72.902344 " clip-rule="nonzero"/></clipPath><clipPath id="clip-31"><path d="M 879.242188 72.902344 L 936.65625 55.476562 L 956.695312 121.5 L 899.28125 138.925781 Z M 879.242188 72.902344 " clip-rule="nonzero"/></clipPath><clipPath id="clip-32"><path d="M 937 104 L 944 104 L 944 108 L 937 108 Z M 937 104 " clip-rule="nonzero"/></clipPath><clipPath id="clip-33"><path d="M 879.242188 72.902344 L 936.65625 55.476562 L 956.695312 121.5 L 899.28125 138.925781 Z M 879.242188 72.902344 " clip-rule="nonzero"/></clipPath><clipPath id="clip-34"><path d="M 879.242188 72.902344 L 936.65625 55.476562 L 956.695312 121.5 L 899.28125 138.925781 Z M 879.242188 72.902344 " clip-rule="nonzero"/></clipPath><clipPath id="clip-35"><path d="M 939 83 L 946 83 L 946 87 L 939 87 Z M 939 83 " clip-rule="nonzero"/></clipPath><clipPath id="clip-36"><path d="M 879.242188 72.902344 L 936.65625 55.476562 L 956.695312 121.5 L 899.28125 138.925781 Z M 879.242188 72.902344 " clip-rule="nonzero"/></clipPath><clipPath id="clip-37"><path d="M 879.242188 72.902344 L 936.65625 55.476562 L 956.695312 121.5 L 899.28125 138.925781 Z M 879.242188 72.902344 " clip-rule="nonzero"/></clipPath><clipPath id="clip-38"><path d="M 918 68 L 931 68 L 931 92 L 918 92 Z M 918 68 " clip-rule="nonzero"/></clipPath><clipPath id="clip-39"><path d="M 879.242188 72.902344 L 936.65625 55.476562 L 956.695312 121.5 L 899.28125 138.925781 Z M 879.242188 72.902344 " clip-rule="nonzero"/></clipPath><clipPath id="clip-40"><path d="M 879.242188 72.902344 L 936.65625 55.476562 L 956.695312 121.5 L 899.28125 138.925781 Z M 879.242188 72.902344 " clip-rule="nonzero"/></clipPath><clipPath id="clip-41"><path d="M 905 65 L 934 65 L 934 106 L 905 106 Z M 905 65 " clip-rule="nonzero"/></clipPath><clipPath id="clip-42"><path d="M 879.242188 72.902344 L 936.65625 55.476562 L 956.695312 121.5 L 899.28125 138.925781 Z M 879.242188 72.902344 " clip-rule="nonzero"/></clipPath><clipPath id="clip-43"><path d="M 879.242188 72.902344 L 936.65625 55.476562 L 956.695312 121.5 L 899.28125 138.925781 Z M 879.242188 72.902344 " clip-rule="nonzero"/></clipPath></defs><rect x="-144" width="1728" fill="rgb(100%, 100%, 100%)" y="-35.999999" height="431.999984" fill-opacity="1"/><rect x="-144" width="1728" fill="rgb(100%, 100%, 100%)" y="-35.999999" height="431.999984" fill-opacity="1"/><rect x="-144" width="1728" fill="rgb(100%, 100%, 100%)" y="-35.999999" height="431.999984" fill-opacity="1"/><g clip-path="url(#clip-0)"><g clip-path="url(#clip-1)"><g clip-path="url(#clip-2)"><path fill="rgb(37.649536%, 46.269226%, 68.629456%)" d="M 1056.292969 66.089844 C 1124.046875 152.03125 1157.699219 464.40625 981.273438 468.988281 C 861.941406 472.136719 904.039062 374.589844 831.523438 232.695312 C 807.46875 185.730469 604.523438 92.875 706.269531 -8.898438 C 766.582031 -69.195312 967.648438 -46.238281 1056.292969 66.089844 Z M 1056.292969 66.089844 " fill-opacity="1" fill-rule="nonzero"/></g></g></g><g clip-path="url(#clip-3)"><g clip-path="url(#clip-4)"><g clip-path="url(#clip-5)"><path fill="rgb(37.649536%, 46.269226%, 68.629456%)" d="M 472.289062 108.382812 C 563.867188 -58.5 1041.359375 -324.871094 1168.71875 -45.699219 C 1254.933594 143.09375 1070.035156 142.105469 892.070312 354.671875 C 833.199219 425.113281 822.511719 813.011719 590.269531 719.460938 C 452.65625 663.980469 352.652344 326.640625 472.289062 108.382812 Z M 472.289062 108.382812 " fill-opacity="1" fill-rule="nonzero"/></g></g></g><g clip-path="url(#clip-6)"><path fill="rgb(16.079712%, 19.60907%, 25.489807%)" d="M 844.757812 118.691406 C 843.726562 117.757812 838.96875 113.824219 832.785156 114.515625 C 828.714844 114.957031 825.621094 117.265625 824.542969 118.148438 C 822.238281 120.066406 822.433594 120.949219 819.734375 123.113281 C 816.839844 125.425781 815.660156 125.128906 813.40625 126.996094 C 813.40625 126.996094 810.261719 129.601562 808.890625 133.632812 C 806.242188 141.347656 812.570312 149.113281 813.011719 149.65625 C 815.660156 150.636719 818.558594 151.523438 821.746094 152.210938 C 835.632812 155.207031 847.796875 152.898438 855.648438 150.488281 C 859.773438 145.574219 860.113281 142.28125 859.625 140.117188 C 859.132812 137.957031 857.855469 137.367188 857.417969 134.613281 C 856.828125 131.027344 858.644531 130.144531 858.347656 126.996094 C 858.003906 123.210938 854.964844 118.9375 850.695312 118.003906 C 848.042969 117.363281 845.789062 118.199219 844.757812 118.691406 Z M 807.664062 306.4375 L 852.460938 291.347656 L 869.585938 295.328125 L 877.875 326.242188 C 876.894531 336.859375 875.964844 347.523438 874.980469 358.140625 C 869.929688 359.273438 863.304688 360.203125 855.601562 360.007812 C 849.957031 359.859375 845.003906 359.125 840.882812 358.238281 L 838.867188 347.425781 C 837.542969 351.0625 836.21875 354.75 834.847656 358.386719 C 829.105469 359.515625 821.792969 360.402344 813.355469 360.007812 C 808.203125 359.761719 803.640625 359.074219 799.667969 358.289062 L 800.449219 334.253906 L 807.664062 306.4375 " fill-opacity="1" fill-rule="nonzero"/></g><path fill="rgb(87.838745%, 98.429871%, 98.81897%)" d="M 809.628906 207.109375 C 808.9375 204.109375 808.300781 201.113281 807.613281 198.113281 L 816.59375 187.992188 L 819.980469 184.648438 L 848.976562 186.21875 L 850.546875 187.152344 C 854.765625 197.867188 858.886719 210.941406 861.488281 226.128906 C 866.738281 256.648438 863.746094 282.699219 860.164062 300.242188 C 857.222656 301.621094 852.460938 303.386719 846.375 303.878906 C 839.410156 304.421875 833.816406 303.046875 830.527344 301.964844 C 823.804688 271.6875 817.183594 241.363281 810.460938 211.039062 M 810.460938 211.039062 C 810.164062 209.714844 809.871094 208.433594 809.578125 207.109375 " fill-opacity="1" fill-rule="nonzero"/><path fill="rgb(50.979614%, 57.249451%, 73.329163%)" d="M 857.660156 224.308594 C 858.839844 233.945312 859.28125 242.59375 859.820312 262.890625 C 860.210938 277.242188 860.507812 296.3125 860.164062 319.019531 C 861.832031 320.589844 864.777344 322.949219 869.09375 324.570312 C 873.707031 326.292969 877.777344 326.34375 880.085938 326.242188 C 878.023438 308.402344 876.011719 290.5625 873.949219 272.671875 C 874.6875 273.066406 877.828125 274.589844 881.652344 273.652344 C 886.167969 272.523438 888.230469 268.886719 888.574219 268.296875 L 888.574219 247.113281 C 884.304688 231.09375 880.085938 215.121094 875.816406 199.097656 C 875.519531 198.015625 874.835938 197.128906 873.851562 196.589844 C 871.253906 195.164062 868.40625 193.691406 865.265625 192.3125 C 859.917969 189.957031 854.914062 188.332031 850.496094 187.152344 C 852.902344 196.101562 855.75 208.828125 857.660156 224.308594 Z M 830.085938 233.746094 C 831.753906 245.6875 831.65625 255.863281 831.410156 275.769531 C 831.167969 292.820312 830.378906 307.027344 829.695312 317.003906 C 826.847656 320.199219 822.382812 324.472656 816.054688 328.160156 C 808.9375 332.339844 802.316406 334.105469 797.898438 334.941406 C 798.097656 328.800781 798.488281 319.066406 799.667969 307.125 C 801.234375 291.054688 802.804688 284.859375 803.394531 272.722656 C 803.738281 265.644531 803.789062 255.125 802.21875 242.152344 C 789.953125 263.1875 777.097656 276.898438 769.785156 274.441406 C 767.773438 273.753906 765.367188 271.542969 763.945312 269.132812 C 760.609375 263.480469 762.476562 256.796875 763.308594 253.554688 C 765.566406 244.855469 767.722656 233.007812 769.785156 215.660156 L 786.515625 214.824219 C 786.566406 216.152344 786.613281 217.480469 786.664062 218.804688 C 787.15625 217.429688 790 209.171875 793.335938 202.585938 C 794.90625 199.488281 794.808594 199.734375 796.183594 197.328125 C 797.164062 195.609375 798.144531 193.984375 799.175781 192.414062 C 799.617188 191.722656 800.351562 191.234375 801.1875 191.035156 L 816.691406 187.941406 C 825.082031 206.714844 828.515625 222.6875 830.085938 233.746094 " fill-opacity="1" fill-rule="nonzero"/><g clip-path="url(#clip-7)"><path fill="rgb(72.549438%, 32.939148%, 38.038635%)" d="M 881.898438 260.285156 C 882.636719 265.296875 885.679688 268.296875 886.609375 269.183594 C 883.078125 271.542969 879.59375 273.898438 876.0625 276.257812 C 877.484375 278.863281 878.90625 281.46875 880.328125 284.074219 C 898.191406 273.605469 916 263.085938 933.859375 252.621094 C 932.878906 251.488281 929.101562 246.867188 929.101562 239.941406 C 929.101562 233.402344 932.386719 228.980469 933.371094 227.75 L 928.855469 227.109375 L 884.746094 249.324219 C 884.105469 250.113281 881.066406 254.386719 881.898438 260.285156 Z M 844.167969 180.714844 C 844.808594 180.910156 845.886719 181.355469 846.917969 182.289062 C 848.488281 183.761719 848.878906 185.53125 849.023438 186.171875 C 849.269531 187.746094 849.515625 190.101562 848.976562 192.953125 C 848.390625 196.246094 847.0625 198.703125 846.179688 200.128906 L 839.210938 190.9375 C 837.203125 193.789062 835.1875 196.640625 833.226562 199.488281 C 831.410156 198.359375 829.300781 196.785156 827.191406 194.671875 C 823.5625 191.035156 821.351562 187.300781 820.078125 184.597656 C 820.421875 183.8125 820.960938 182.78125 821.894531 181.746094 C 823.121094 180.324219 824.492188 179.535156 825.328125 179.144531 C 831.558594 179.683594 837.839844 180.222656 844.167969 180.714844 " fill-opacity="1" fill-rule="nonzero"/></g><path fill="rgb(86.669922%, 69.40918%, 56.858826%)" d="M 918.207031 261.761719 C 912.273438 259.792969 910.015625 260.433594 909.03125 261.515625 C 908.199219 262.449219 908.542969 263.53125 907.855469 265.398438 C 906.875 267.953125 904.863281 269.578125 903.195312 270.558594 C 906.972656 273.113281 911.828125 272.964844 914.96875 270.3125 C 918.746094 267.214844 918.257812 262.152344 918.207031 261.761719 Z M 853.933594 147.492188 C 853.195312 147.148438 852.363281 147.34375 851.675781 147.640625 C 851.183594 147.933594 850.742188 148.226562 850.25 148.574219 C 850.398438 147.148438 850.449219 144.984375 849.617188 142.675781 C 848.488281 139.53125 846.671875 138.597656 845.492188 135.550781 C 844.953125 134.125 844.414062 131.960938 844.757812 128.863281 C 842.355469 130.535156 838.28125 132.992188 832.636719 134.125 C 829.007812 134.859375 825.867188 134.859375 823.511719 134.664062 C 823.019531 136.777344 822.382812 139.085938 821.449219 141.546875 C 820.222656 144.886719 818.800781 147.738281 817.476562 150.097656 C 817.132812 149.261719 816.789062 148.425781 816.496094 147.589844 C 816.054688 147.492188 815.464844 147.394531 814.875 147.640625 C 812.71875 148.472656 811.488281 152.898438 813.40625 155.503906 C 814.875 157.519531 817.574219 157.617188 818.015625 157.617188 C 818.261719 159.1875 819.144531 163.808594 823.070312 167.691406 C 823.367188 167.984375 824.199219 168.773438 825.425781 169.65625 C 825.769531 171.328125 826.0625 173.6875 825.71875 176.488281 C 825.472656 178.503906 825.03125 180.222656 824.542969 181.550781 C 826.40625 183.371094 828.910156 185.484375 832.097656 187.449219 C 834.652344 189.019531 837.105469 190.152344 839.164062 190.988281 C 840.046875 189.757812 840.929688 188.382812 841.8125 186.90625 C 842.84375 185.238281 843.726562 183.613281 844.464844 182.042969 C 843.921875 180.027344 843.433594 177.421875 843.382812 174.328125 C 843.335938 172.164062 843.53125 170.195312 843.777344 168.578125 C 846.769531 165.875 849.171875 161.988281 850.300781 157.273438 C 851.039062 157.222656 852.851562 157.027344 854.175781 155.648438 C 856.484375 153.242188 855.945312 148.425781 853.933594 147.492188 Z M 785.386719 207.304688 C 785.484375 210.746094 784.0625 213.546875 782.835938 215.265625 C 780.136719 215.367188 777.390625 215.464844 774.691406 215.5625 C 773.515625 214.332031 770.273438 210.746094 769.394531 204.945312 C 768.511719 199.195312 770.421875 194.769531 771.207031 193.296875 C 772.433594 192.511719 774.300781 191.480469 776.800781 191.085938 C 780.53125 190.449219 784.75 191.28125 784.847656 192.363281 C 784.898438 192.90625 783.964844 193.738281 779.550781 195.015625 C 780.1875 195.804688 781.121094 197.03125 782.101562 198.605469 C 783.71875 201.261719 785.289062 203.914062 785.386719 207.304688 " fill-opacity="1" fill-rule="nonzero"/><path fill="rgb(16.079712%, 19.60907%, 25.489807%)" d="M 776.242188 183.203125 L 771.25 175.777344 C 770.511719 174.648438 769.140625 174.207031 768.253906 174.84375 C 767.371094 175.433594 767.273438 176.859375 768.011719 177.988281 L 793.132812 215.34375 L 797.695312 218.535156 L 796.371094 213.128906 L 778.066406 185.917969 M 778.066406 185.917969 L 776.242188 183.203125 " fill-opacity="1" fill-rule="nonzero"/><path fill="rgb(86.669922%, 69.40918%, 56.858826%)" d="M 781.121094 204.894531 C 779.746094 203.125 778.421875 201.359375 777.046875 199.589844 M 777.046875 199.589844 C 775.722656 197.917969 774.398438 196.246094 773.074219 194.574219 C 774.445312 194.28125 776.898438 194.035156 779.597656 195.015625 C 783.769531 196.589844 786.910156 200.71875 786.125 202.09375 C 785.878906 202.535156 785.339844 202.4375 783.71875 203.226562 C 782.589844 203.765625 781.707031 204.40625 781.121094 204.894531 " fill-opacity="1" fill-rule="nonzero"/><path fill="rgb(16.079712%, 19.60907%, 25.489807%)" d="M 839.210938 146.65625 C 838.820312 146.953125 839.164062 147.589844 839.605469 147.296875 C 840.097656 146.953125 840.585938 146.753906 841.125 146.65625 C 840.636719 146.953125 840.339844 147.492188 840.339844 148.128906 C 840.339844 149.113281 841.125 149.902344 842.109375 149.902344 C 843.089844 149.902344 843.875 149.113281 843.875 148.128906 C 843.875 147.6875 843.726562 147.296875 843.480469 147 C 843.53125 147.050781 843.582031 147.050781 843.628906 147.097656 C 844.511719 147.589844 845.199219 148.472656 846.230469 148.671875 C 846.867188 148.769531 847.308594 148.082031 846.867188 147.589844 C 844.90625 145.28125 841.566406 144.886719 839.210938 146.65625 Z M 847.554688 141.546875 C 844.808594 140.414062 841.617188 140.265625 838.917969 141.546875 C 838.28125 141.839844 838.722656 142.773438 839.359375 142.625 C 842.011719 141.988281 844.464844 142.722656 847.0625 143.214844 C 848.242188 143.460938 848.585938 141.988281 847.554688 141.546875 Z M 830.527344 143.117188 C 831.117188 143.117188 831.265625 142.234375 830.675781 142.085938 C 828.957031 141.691406 827.339844 141.59375 825.621094 141.9375 C 824.199219 142.234375 822.238281 142.722656 821.5 144.101562 C 821.253906 144.542969 821.546875 145.082031 822.089844 145.082031 C 823.414062 145.082031 824.59375 144.152344 825.867188 143.757812 C 827.386719 143.363281 828.957031 143.117188 830.527344 143.117188 Z M 825.671875 148.671875 C 825.671875 149.65625 826.457031 150.441406 827.4375 150.441406 C 828.417969 150.441406 829.203125 149.65625 829.203125 148.671875 C 829.203125 148.03125 828.859375 147.441406 828.320312 147.148438 C 828.8125 147.148438 829.253906 147.199219 829.695312 147.441406 C 829.988281 147.589844 830.183594 147.199219 829.941406 147 C 828.859375 146.214844 827.683594 146.015625 826.40625 146.410156 C 825.328125 146.753906 823.660156 147.6875 823.414062 148.867188 C 823.316406 149.210938 823.660156 149.605469 824 149.457031 C 824.738281 149.261719 825.230469 148.621094 825.769531 148.128906 C 825.71875 148.328125 825.671875 148.472656 825.671875 148.671875 Z M 834.257812 154.519531 C 833.765625 154.765625 834.109375 155.648438 834.652344 155.40625 C 835.878906 154.914062 836.5625 153.980469 836.464844 152.605469 C 836.414062 152.015625 836.023438 151.421875 835.878906 150.882812 C 835.679688 150.195312 835.679688 149.457031 835.632812 148.769531 C 835.53125 147.492188 835.679688 146.214844 835.238281 144.984375 C 835.042969 144.445312 834.355469 144.445312 834.160156 144.984375 C 833.667969 146.410156 833.960938 148.082031 834.207031 149.558594 C 834.40625 151.128906 836.121094 153.632812 834.257812 154.519531 Z M 831.507812 160.714844 C 831.460938 160.714844 831.460938 160.714844 831.410156 160.714844 C 831.65625 163.417969 834.699219 164.9375 836.859375 163.121094 C 838.035156 162.136719 838.574219 160.664062 838.917969 159.238281 C 836.511719 159.777344 834.011719 160.515625 831.507812 160.714844 Z M 830.921875 160.125 C 830.921875 159.828125 831.070312 159.53125 831.363281 159.433594 C 833.863281 158.648438 836.710938 158.402344 839.3125 157.960938 C 839.703125 157.566406 840.585938 157.960938 840.4375 158.648438 C 839.898438 161.449219 838.574219 164.742188 835.386719 165.183594 C 832.589844 165.578125 830.429688 163.316406 830.480469 160.613281 C 830.480469 160.320312 830.675781 160.171875 830.921875 160.125 Z M 897.601562 257.335938 C 896.816406 253.847656 897.109375 250.457031 898.335938 247.113281 C 898.679688 246.179688 897.109375 245.492188 896.71875 246.425781 C 895.148438 250.015625 895 253.945312 896.421875 257.632812 C 896.71875 258.371094 897.796875 258.074219 897.601562 257.335938 Z M 910.703125 248.785156 C 910.113281 247.707031 909.769531 246.523438 909.671875 245.347656 C 909.574219 244.3125 909.867188 243.28125 909.820312 242.25 C 909.769531 241.5625 908.835938 241.214844 908.492188 241.90625 C 907.316406 244.164062 908.347656 247.410156 909.574219 249.472656 C 910.015625 250.113281 911.09375 249.472656 910.703125 248.785156 Z M 915.363281 248.195312 C 915.753906 248.539062 916.292969 248 915.902344 247.65625 C 913.449219 244.953125 915.066406 240.96875 915.363281 237.777344 C 915.460938 236.894531 913.988281 236.695312 913.792969 237.578125 C 913.203125 240.921875 912.371094 245.738281 915.363281 248.195312 Z M 930.375 249.523438 C 924.144531 252.816406 917.960938 256.058594 911.78125 259.402344 C 910.996094 259.84375 911.683594 261.074219 912.515625 260.628906 C 918.648438 257.238281 924.734375 253.75 930.71875 250.113281 C 931.0625 249.867188 930.769531 249.324219 930.375 249.523438 Z M 905.007812 263.1875 C 900.152344 265.789062 895.390625 268.59375 890.683594 271.492188 C 886.316406 274.195312 881.507812 276.75 877.679688 280.144531 C 877.191406 280.585938 877.828125 281.320312 878.367188 281.027344 C 883.027344 278.617188 887.347656 275.128906 891.8125 272.328125 C 896.324219 269.476562 900.890625 266.675781 905.449219 263.925781 C 905.894531 263.628906 905.5 262.941406 905.007812 263.1875 Z M 926.5 248.6875 C 926.84375 248.6875 927.140625 248.492188 927.238281 248.195312 C 927.53125 248 927.824219 247.804688 928.121094 247.558594 C 928.660156 247.113281 928.070312 246.230469 927.480469 246.425781 C 927.335938 246.476562 927.140625 246.574219 926.992188 246.621094 C 926.253906 243.773438 926.011719 240.921875 926.207031 237.921875 C 926.402344 234.730469 926.746094 230.503906 928.5625 227.75 C 928.855469 227.308594 928.167969 226.816406 927.875 227.207031 C 925.765625 229.8125 925.273438 233.597656 924.882812 236.792969 C 924.441406 240.28125 924.539062 243.820312 925.46875 247.214844 C 922.820312 248.390625 920.316406 250.015625 917.816406 251.339844 C 914.332031 253.210938 910.847656 255.078125 907.363281 256.945312 C 900.398438 260.679688 893.429688 264.414062 886.558594 268.246094 C 885.925781 268.59375 886.460938 269.527344 887.101562 269.183594 C 894.164062 265.644531 901.132812 261.957031 908.148438 258.273438 C 911.484375 256.503906 914.824219 254.78125 918.160156 253.011719 C 920.859375 251.636719 923.898438 250.359375 926.5 248.6875 Z M 803.59375 218.609375 C 803.789062 209.714844 802.5625 200.914062 800.253906 192.3125 C 800.058594 191.625 799.027344 191.921875 799.175781 192.609375 C 801.234375 201.359375 802.21875 210.351562 801.875 219.296875 C 801.53125 227.847656 800.796875 236.351562 801.285156 244.902344 C 801.675781 251.585938 802.5625 258.222656 802.5625 264.957031 C 802.5625 274.738281 801.628906 284.515625 800.058594 294.148438 C 799.863281 295.425781 801.777344 295.96875 801.972656 294.691406 C 803.691406 285.105469 804.621094 275.425781 804.574219 265.691406 C 804.574219 258.714844 803.59375 251.882812 803.199219 244.902344 C 802.757812 236.15625 803.445312 227.40625 803.59375 218.609375 Z M 872.332031 247.707031 C 871.742188 238.808594 871.203125 229.910156 870.761719 220.96875 C 870.367188 212.90625 869.585938 204.109375 873.609375 196.738281 C 873.902344 196.246094 873.117188 195.753906 872.820312 196.296875 C 868.945312 202.878906 868.652344 210.304688 868.847656 217.773438 C 869.140625 227.011719 869.683594 236.253906 870.320312 245.445312 C 871.546875 263.972656 873.167969 282.5 875.375 300.980469 C 875.519531 302.0625 877.238281 302.113281 877.09375 300.980469 C 875.226562 283.289062 873.558594 265.542969 872.332031 247.707031 Z M 786.125 219 C 785.832031 230.058594 783.277344 240.234375 780.480469 250.800781 C 780.1875 251.980469 781.804688 252.375 782.25 251.292969 C 786.269531 241.265625 787.300781 229.667969 787.253906 219 C 787.300781 218.214844 786.125 218.214844 786.125 219 Z M 845.101562 224.851562 C 844.019531 214.382812 842.402344 203.964844 840.097656 193.640625 C 839.949219 193.050781 839.113281 193.296875 839.210938 193.886719 C 841.175781 204.503906 842.792969 215.167969 843.679688 225.933594 C 844.117188 231.042969 844.414062 236.203125 844.5625 241.363281 C 844.710938 246.671875 844.414062 252.027344 844.710938 257.335938 C 844.757812 258.417969 846.277344 258.417969 846.375 257.335938 C 846.867188 251.882812 846.472656 246.230469 846.230469 240.773438 C 846.035156 235.464844 845.640625 230.15625 845.101562 224.851562 Z M 852.167969 148.671875 C 851.722656 148.820312 851.871094 149.558594 852.363281 149.410156 C 852.851562 149.261719 853.195312 149.703125 853.394531 150.144531 C 853.589844 150.636719 853.441406 151.226562 853.933594 151.523438 C 854.175781 151.667969 854.472656 151.570312 854.621094 151.324219 C 855.0625 150.734375 854.421875 149.605469 853.980469 149.164062 C 853.539062 148.71875 852.753906 148.472656 852.167969 148.671875 Z M 813.550781 152.652344 C 813.894531 152.945312 814.289062 152.800781 814.433594 152.40625 C 814.582031 152.015625 814.335938 151.570312 814.335938 151.175781 C 814.335938 150.882812 814.433594 149.949219 814.976562 150.292969 C 815.316406 150.539062 815.613281 150 815.316406 149.753906 C 813.992188 148.769531 812.570312 151.816406 813.550781 152.652344 Z M 842.402344 168.871094 C 837.203125 171.425781 831.410156 172.214844 826.0625 169.65625 C 825.621094 169.460938 825.230469 170.097656 825.671875 170.34375 C 831.167969 173.046875 837.738281 173.492188 843.089844 170.050781 C 843.824219 169.558594 843.1875 168.476562 842.402344 168.871094 Z M 784.898438 200.375 C 785.339844 200.421875 785.386719 199.734375 784.996094 199.636719 C 782.296875 199.046875 779.058594 198.851562 776.507812 200.03125 C 776.015625 200.277344 776.261719 201.113281 776.800781 201.0625 C 778.175781 200.867188 779.453125 200.472656 780.824219 200.324219 C 782.152344 200.226562 783.523438 200.226562 784.898438 200.375 Z M 783.476562 198.066406 C 783.769531 198.164062 783.867188 197.71875 783.621094 197.621094 C 780.136719 196.34375 776.066406 196.050781 772.628906 197.574219 C 772.09375 197.820312 772.484375 198.605469 773.023438 198.457031 C 776.605469 197.472656 779.796875 197.03125 783.476562 198.066406 Z M 779.5 195.261719 C 779.84375 195.363281 779.992188 194.820312 779.648438 194.722656 C 777.292969 193.984375 774.003906 193.25 771.796875 194.820312 C 771.207031 195.214844 771.699219 196.101562 772.335938 195.804688 C 774.546875 194.722656 777.195312 194.671875 779.5 195.261719 Z M 786.074219 202.832031 C 783.082031 203.371094 781.460938 206.371094 778.617188 207.109375 C 777.929688 207.257812 777.683594 206.421875 778.175781 206.074219 C 779.402344 205.140625 780.824219 204.257812 782.152344 203.472656 C 783.328125 202.78125 784.554688 202.292969 785.929688 202.191406 C 786.367188 202.09375 786.46875 202.734375 786.074219 202.832031 " fill-opacity="1" fill-rule="nonzero"/><path fill="rgb(16.079712%, 19.60907%, 25.489807%)" d="M 942.648438 177.042969 C 930.71875 179.273438 918.230469 176.933594 906.523438 169.914062 C 884.003906 156.320312 872.1875 129.804688 877.648438 105.515625 C 889.132812 55.382812 895.933594 11.484375 863.378906 -17.816406 C 851.671875 -28.402344 846.769531 -43.332031 849.332031 -60.933594 C 853.011719 -86.894531 871.628906 -112.074219 886.792969 -119.3125 L 887.238281 -118.3125 L 886.792969 -119.3125 C 916.222656 -133.464844 925.8125 -130.007812 941.867188 -124.328125 C 950.117188 -121.207031 958.699219 -118.757812 967.398438 -117.199219 C 986.238281 -113.742188 993.484375 -103.714844 1003.628906 -89.679688 C 1014 -75.304688 1026.820312 -57.480469 1057.367188 -37.089844 C 1068.960938 -29.292969 1075.316406 -18.152344 1076.097656 -4.003906 C 1077.769531 25.746094 1055.023438 63.515625 1035.738281 89.917969 C 1013.105469 120.78125 985.234375 149.746094 967.507812 164.789062 C 960.375 171.027344 951.789062 175.261719 942.648438 177.042969 Z M 912.433594 -126.222656 C 905.96875 -124.996094 898.050781 -122.320312 887.796875 -117.308594 C 869.957031 -108.730469 854.347656 -80.542969 851.5625 -60.710938 C 849.890625 -49.011719 850.894531 -32.300781 864.941406 -19.488281 C 898.386719 10.59375 891.472656 55.15625 879.878906 105.960938 C 874.527344 129.359375 886.011719 154.761719 907.640625 167.90625 C 926.925781 179.605469 948.667969 177.824219 965.949219 163.117188 C 995.9375 137.605469 1076.988281 50.703125 1073.867188 -3.890625 C 1073.085938 -17.371094 1067.066406 -27.84375 1056.140625 -35.199219 C 1025.257812 -55.808594 1011.769531 -74.636719 1001.847656 -88.339844 C 991.699219 -102.378906 985.011719 -111.738281 967.0625 -114.96875 C 958.253906 -116.640625 949.558594 -118.980469 941.199219 -122.210938 C 931.273438 -125.664062 923.917969 -128.339844 912.433594 -126.222656 Z M 912.433594 -126.222656 " fill-opacity="1" fill-rule="nonzero"/><g clip-path="url(#clip-8)"><g clip-path="url(#clip-9)"><g clip-path="url(#clip-10)"><path fill="rgb(16.079712%, 19.60907%, 25.489807%)" d="M 304.671875 -14.105469 C 318.445312 -10.25 330.429688 -1.273438 339.148438 12.25 C 355.878906 38.355469 354.554688 72.566406 336.125 95.421875 C 297.855469 142.488281 267.792969 185.394531 286.945312 233.351562 C 293.804688 250.644531 291.210938 268.996094 279.328125 286.285156 C 261.910156 311.835938 229.105469 328.785156 209.300781 328.550781 L 209.351562 327.257812 L 209.300781 328.550781 C 170.808594 328.199219 162.472656 319.550781 148.457031 305.179688 C 141.359375 297.582031 133.5625 290.519531 125.179688 284.339844 C 107.058594 270.875 104.621094 256.492188 101.210938 236.355469 C 97.738281 215.75 93.46875 190.214844 71.796875 152.734375 C 63.601562 138.445312 62.6875 123.347656 69.234375 107.96875 C 82.96875 75.625 126.695312 47.503906 160.847656 29.609375 C 200.859375 8.738281 245.421875 -7.398438 272 -14.082031 C 282.796875 -16.96875 294.078125 -16.976562 304.671875 -14.105469 Z M 178.589844 322.507812 C 186.066406 324.578125 195.828125 325.871094 209.285156 325.90625 C 232.617188 326.117188 263.804688 304.421875 277.085938 284.890625 C 284.949219 273.382812 292.597656 255.175781 284.421875 234.304688 C 264.734375 185.0625 295.265625 141.507812 333.996094 93.789062 C 351.847656 71.820312 352.941406 38.960938 336.925781 13.789062 C 322.628906 -8.628906 298.714844 -18.0625 272.78125 -11.5 C 227.777344 -0.121094 96.796875 49.625 71.652344 109.015625 C 65.453125 123.683594 66.359375 137.898438 74.078125 151.371094 C 95.992188 189.257812 100.441406 216.203125 103.792969 235.871094 C 107.203125 256.007812 109.398438 269.394531 126.695312 282.15625 C 135.136719 288.511719 143.109375 295.515625 150.269531 303.289062 C 158.960938 312.109375 165.347656 318.769531 178.589844 322.507812 Z M 178.589844 322.507812 " fill-opacity="1" fill-rule="nonzero"/></g></g></g><g clip-path="url(#clip-11)"><g clip-path="url(#clip-12)"><g clip-path="url(#clip-13)"><path fill="rgb(16.079712%, 19.60907%, 25.489807%)" d="M 899.488281 98.734375 C 899.167969 98.832031 898.832031 98.652344 898.734375 98.332031 C 896.058594 89.515625 900.304688 79.890625 908.609375 75.941406 C 908.878906 75.808594 909.136719 75.703125 909.410156 75.589844 C 909.671875 75.480469 909.945312 75.382812 910.222656 75.285156 L 910.414062 75.210938 C 910.628906 75.125 910.929688 75.03125 911.222656 74.945312 C 911.542969 74.847656 911.878906 75.027344 911.976562 75.347656 C 912.074219 75.667969 911.894531 76.007812 911.574219 76.105469 C 911.316406 76.183594 911.050781 76.261719 910.863281 76.339844 L 910.628906 76.425781 C 910.371094 76.519531 910.117188 76.609375 909.871094 76.707031 C 909.625 76.8125 909.386719 76.910156 909.132812 77.035156 C 901.359375 80.730469 897.390625 89.734375 899.890625 97.980469 C 899.988281 98.296875 899.808594 98.636719 899.488281 98.734375 Z M 899.488281 98.734375 " fill-opacity="1" fill-rule="nonzero"/></g></g></g><g clip-path="url(#clip-14)"><g clip-path="url(#clip-15)"><g clip-path="url(#clip-16)"><path fill="rgb(16.079712%, 19.60907%, 25.489807%)" d="M 930.621094 77.117188 C 930.617188 77.117188 930.617188 77.117188 930.617188 77.117188 C 930.625 77.121094 930.625 77.128906 930.632812 77.125 C 930.625 77.121094 930.625 77.121094 930.621094 77.117188 Z M 930.621094 77.117188 " fill-opacity="1" fill-rule="nonzero"/></g></g></g><g clip-path="url(#clip-17)"><g clip-path="url(#clip-18)"><g clip-path="url(#clip-19)"><path fill="rgb(16.079712%, 19.60907%, 25.489807%)" d="M 931.484375 77.082031 C 931.238281 76.851562 930.855469 76.867188 930.625 77.109375 C 930.625 77.109375 930.621094 77.109375 930.621094 77.117188 C 930.625 77.121094 930.625 77.121094 930.632812 77.125 C 930.625 77.128906 930.625 77.121094 930.617188 77.117188 C 930.402344 77.367188 930.414062 77.742188 930.660156 77.964844 C 933.261719 80.40625 935.191406 83.511719 936.234375 86.945312 C 938.214844 93.476562 936.824219 100.535156 932.515625 105.832031 C 931.683594 106.851562 931.296875 108.203125 931.457031 109.523438 L 932.039062 115.839844 C 931.929688 115.921875 931.820312 116 931.710938 116.078125 C 931.585938 116.164062 931.460938 116.253906 931.332031 116.34375 C 931.171875 116.449219 931.007812 116.558594 930.847656 116.65625 C 930.714844 116.742188 930.589844 116.828125 930.457031 116.90625 C 930.289062 117.007812 930.125 117.109375 929.953125 117.207031 C 929.824219 117.285156 929.695312 117.359375 929.558594 117.433594 C 929.386719 117.53125 929.210938 117.621094 929.035156 117.710938 C 928.90625 117.785156 928.773438 117.855469 928.636719 117.921875 C 928.457031 118.015625 928.273438 118.101562 928.089844 118.183594 C 927.957031 118.25 927.832031 118.3125 927.699219 118.371094 C 927.503906 118.457031 927.304688 118.542969 927.109375 118.621094 C 926.988281 118.675781 926.855469 118.730469 926.734375 118.777344 C 926.511719 118.871094 926.292969 118.949219 926.070312 119.03125 C 925.960938 119.070312 925.851562 119.117188 925.742188 119.148438 C 925.414062 119.269531 925.078125 119.375 924.734375 119.480469 C 924.386719 119.585938 924.039062 119.683594 923.6875 119.773438 C 923.566406 119.804688 923.449219 119.828125 923.332031 119.855469 C 923.09375 119.914062 922.867188 119.972656 922.628906 120.019531 C 922.484375 120.050781 922.339844 120.074219 922.199219 120.105469 C 921.988281 120.144531 921.773438 120.183594 921.5625 120.222656 C 921.402344 120.246094 921.253906 120.265625 921.101562 120.285156 C 920.894531 120.316406 920.6875 120.347656 920.488281 120.371094 C 920.328125 120.394531 920.167969 120.402344 920.007812 120.421875 C 919.804688 120.4375 919.609375 120.460938 919.40625 120.476562 C 919.375 120.480469 919.347656 120.480469 919.316406 120.484375 C 919.1875 120.492188 919.050781 120.496094 918.914062 120.507812 C 918.71875 120.515625 918.523438 120.53125 918.324219 120.53125 C 918.15625 120.539062 917.992188 120.539062 917.820312 120.539062 C 917.625 120.542969 917.429688 120.542969 917.234375 120.542969 C 917.070312 120.539062 916.894531 120.535156 916.730469 120.53125 C 916.589844 120.523438 916.453125 120.519531 916.3125 120.511719 L 913.238281 114.832031 C 912.648438 113.65625 911.605469 112.757812 910.378906 112.355469 C 904.003906 110.28125 899.042969 105.21875 897.101562 98.824219 C 894.183594 89.207031 898.8125 78.707031 907.882812 74.398438 C 908.164062 74.261719 908.453125 74.136719 908.75 74.011719 C 909.074219 73.882812 909.398438 73.765625 909.753906 73.640625 C 910.359375 73.390625 911.042969 73.179688 911.742188 73.035156 C 912.082031 72.953125 912.417969 72.867188 912.75 72.796875 C 913.074219 72.734375 913.378906 72.679688 913.695312 72.632812 C 914.773438 72.476562 915.871094 72.402344 916.960938 72.425781 C 919.207031 72.460938 921.445312 72.863281 923.5625 73.628906 C 923.875 73.734375 924.222656 73.574219 924.335938 73.261719 C 924.449219 72.945312 924.28125 72.597656 923.96875 72.484375 C 920.628906 71.28125 917.019531 70.921875 913.527344 71.429688 C 913.191406 71.476562 912.863281 71.542969 912.515625 71.609375 C 912.152344 71.683594 911.800781 71.769531 911.476562 71.855469 C 910.71875 72.007812 909.976562 72.234375 909.320312 72.503906 C 908.976562 72.628906 908.628906 72.75 908.292969 72.890625 C 907.964844 73.027344 907.65625 73.15625 907.359375 73.300781 C 897.753906 77.871094 892.851562 88.992188 895.941406 99.175781 C 898 105.953125 903.253906 111.3125 910.003906 113.507812 C 910.925781 113.8125 911.710938 114.492188 912.171875 115.394531 L 915.398438 121.363281 L 916.660156 124.324219 C 916.664062 124.34375 916.671875 124.359375 916.679688 124.375 L 917.386719 126.03125 C 917.8125 127.039062 918.808594 127.695312 919.929688 127.695312 C 920.5625 127.695312 921.210938 127.660156 921.859375 127.609375 C 922.976562 129.8125 925.578125 130.949219 927.980469 130.21875 C 930.382812 129.488281 931.90625 127.101562 931.617188 124.65625 C 932.082031 124.394531 932.550781 124.121094 933.015625 123.8125 C 933.949219 123.199219 934.417969 122.101562 934.210938 121.011719 L 933.878906 119.234375 L 933.875 119.226562 L 933.273438 116.046875 L 932.660156 109.398438 C 932.539062 108.382812 932.828125 107.367188 933.457031 106.597656 C 938.019531 100.988281 939.492188 93.511719 937.390625 86.59375 C 936.289062 82.957031 934.246094 79.671875 931.484375 77.082031 Z M 927.628906 129.058594 C 925.945312 129.570312 924.140625 128.886719 923.1875 127.480469 C 923.230469 127.472656 923.277344 127.464844 923.328125 127.457031 C 923.449219 127.445312 923.574219 127.417969 923.695312 127.402344 C 923.925781 127.371094 924.15625 127.324219 924.390625 127.285156 C 924.527344 127.257812 924.671875 127.234375 924.808594 127.203125 C 925.027344 127.15625 925.246094 127.109375 925.464844 127.054688 C 925.601562 127.019531 925.738281 126.992188 925.878906 126.953125 C 926.152344 126.882812 926.433594 126.804688 926.714844 126.726562 C 926.777344 126.707031 926.84375 126.695312 926.90625 126.675781 C 926.964844 126.65625 927.027344 126.632812 927.089844 126.613281 C 927.367188 126.523438 927.644531 126.433594 927.917969 126.335938 C 928.050781 126.289062 928.179688 126.238281 928.3125 126.191406 C 928.523438 126.113281 928.730469 126.03125 928.941406 125.949219 C 929.074219 125.894531 929.203125 125.835938 929.339844 125.785156 C 929.550781 125.6875 929.757812 125.601562 929.960938 125.5 C 930.078125 125.445312 930.195312 125.398438 930.3125 125.335938 C 930.355469 125.316406 930.402344 125.296875 930.441406 125.277344 C 930.4375 126.976562 929.3125 128.546875 927.628906 129.058594 Z M 932.613281 119.089844 C 932.226562 119.359375 931.824219 119.617188 931.394531 119.878906 L 930.898438 120.179688 C 930.617188 120.355469 930.535156 120.730469 930.707031 121.011719 C 930.855469 121.25 931.140625 121.355469 931.398438 121.277344 C 931.449219 121.261719 931.496094 121.234375 931.539062 121.207031 L 932.023438 120.910156 C 932.304688 120.742188 932.582031 120.570312 932.863281 120.390625 L 933.023438 121.238281 C 933.136719 121.84375 932.867188 122.457031 932.347656 122.800781 C 931.785156 123.167969 931.222656 123.503906 930.660156 123.800781 C 929.066406 124.671875 927.285156 125.355469 925.46875 125.8125 C 925.101562 125.90625 924.734375 125.984375 924.371094 126.058594 C 923.640625 126.203125 922.910156 126.3125 922.179688 126.375 C 921.417969 126.445312 920.664062 126.484375 919.929688 126.480469 C 919.296875 126.484375 918.738281 126.121094 918.496094 125.558594 L 918.160156 124.769531 C 920.816406 124.796875 923.453125 124.429688 926.003906 123.65625 C 926.75 123.429688 927.492188 123.164062 928.222656 122.875 C 928.222656 122.875 928.628906 122.707031 929.144531 122.472656 C 929.453125 122.335938 929.589844 121.976562 929.453125 121.675781 C 929.324219 121.367188 928.960938 121.226562 928.65625 121.367188 C 928.15625 121.589844 927.761719 121.746094 927.761719 121.746094 C 927.070312 122.027344 926.363281 122.277344 925.652344 122.496094 C 923.046875 123.285156 920.355469 123.632812 917.644531 123.539062 L 916.878906 121.75 C 916.917969 121.75 916.949219 121.75 916.984375 121.75 C 917.113281 121.753906 917.246094 121.753906 917.375 121.753906 C 917.613281 121.753906 917.855469 121.757812 918.09375 121.75 C 918.238281 121.75 918.382812 121.742188 918.527344 121.738281 C 918.75 121.726562 918.976562 121.714844 919.199219 121.703125 C 919.351562 121.695312 919.5 121.683594 919.644531 121.671875 C 919.871094 121.652344 920.085938 121.632812 920.304688 121.609375 C 920.460938 121.59375 920.605469 121.574219 920.757812 121.554688 C 920.976562 121.53125 921.195312 121.5 921.414062 121.464844 C 921.558594 121.445312 921.707031 121.425781 921.855469 121.398438 C 922.078125 121.363281 922.296875 121.316406 922.527344 121.273438 C 922.664062 121.25 922.800781 121.21875 922.945312 121.1875 C 923.1875 121.140625 923.429688 121.078125 923.671875 121.023438 C 923.789062 120.996094 923.902344 120.96875 924.019531 120.9375 C 924.378906 120.847656 924.734375 120.746094 925.085938 120.640625 C 925.4375 120.535156 925.777344 120.425781 926.113281 120.304688 C 926.222656 120.269531 926.335938 120.222656 926.445312 120.183594 C 926.671875 120.101562 926.894531 120.023438 927.113281 119.929688 C 927.242188 119.878906 927.371094 119.824219 927.503906 119.773438 C 927.699219 119.6875 927.902344 119.609375 928.101562 119.515625 C 928.234375 119.457031 928.371094 119.398438 928.496094 119.332031 C 928.691406 119.242188 928.878906 119.152344 929.066406 119.066406 C 929.199219 119 929.328125 118.929688 929.460938 118.863281 C 929.648438 118.769531 929.832031 118.667969 930.011719 118.570312 C 930.140625 118.496094 930.273438 118.425781 930.402344 118.351562 C 930.582031 118.242188 930.765625 118.136719 930.941406 118.027344 C 931.066406 117.953125 931.1875 117.882812 931.304688 117.808594 C 931.496094 117.6875 931.6875 117.558594 931.875 117.433594 C 931.980469 117.363281 932.085938 117.292969 932.191406 117.222656 C 932.214844 117.210938 932.234375 117.199219 932.253906 117.179688 Z M 932.613281 119.089844 " fill-opacity="1" fill-rule="nonzero"/></g></g></g><g clip-path="url(#clip-20)"><g clip-path="url(#clip-21)"><g clip-path="url(#clip-22)"><path fill="rgb(16.079712%, 19.60907%, 25.489807%)" d="M 909.617188 69.664062 C 909.9375 69.566406 910.121094 69.230469 910.023438 68.910156 L 908.710938 64.585938 C 908.613281 64.265625 908.273438 64.085938 907.957031 64.183594 C 907.636719 64.28125 907.453125 64.621094 907.550781 64.9375 L 908.863281 69.261719 C 908.960938 69.582031 909.296875 69.761719 909.617188 69.664062 Z M 909.617188 69.664062 " fill-opacity="1" fill-rule="nonzero"/></g></g></g><g clip-path="url(#clip-23)"><g clip-path="url(#clip-24)"><g clip-path="url(#clip-25)"><path fill="rgb(16.079712%, 19.60907%, 25.489807%)" d="M 894.449219 81.695312 C 894.597656 81.773438 894.761719 81.785156 894.910156 81.742188 C 895.058594 81.695312 895.191406 81.59375 895.269531 81.449219 C 895.425781 81.152344 895.316406 80.785156 895.019531 80.628906 L 891.039062 78.5 C 890.746094 78.339844 890.378906 78.453125 890.21875 78.75 C 890.0625 79.042969 890.171875 79.410156 890.46875 79.566406 Z M 894.449219 81.695312 " fill-opacity="1" fill-rule="nonzero"/></g></g></g><g clip-path="url(#clip-26)"><g clip-path="url(#clip-27)"><g clip-path="url(#clip-28)"><path fill="rgb(16.079712%, 19.60907%, 25.489807%)" d="M 892.699219 99.527344 L 888.378906 100.839844 C 888.058594 100.9375 887.878906 101.273438 887.976562 101.59375 C 888.074219 101.914062 888.414062 102.097656 888.730469 102 L 893.050781 100.6875 C 893.371094 100.589844 893.550781 100.253906 893.453125 99.933594 C 893.359375 99.613281 893.019531 99.429688 892.699219 99.527344 Z M 892.699219 99.527344 " fill-opacity="1" fill-rule="nonzero"/></g></g></g><g clip-path="url(#clip-29)"><g clip-path="url(#clip-30)"><g clip-path="url(#clip-31)"><path fill="rgb(16.079712%, 19.60907%, 25.489807%)" d="M 904.417969 114.539062 L 902.292969 118.519531 C 902.132812 118.816406 902.246094 119.183594 902.539062 119.339844 C 902.6875 119.417969 902.851562 119.429688 903 119.386719 C 903.148438 119.339844 903.28125 119.238281 903.359375 119.09375 L 905.488281 115.109375 C 905.644531 114.816406 905.53125 114.449219 905.238281 114.289062 C 904.941406 114.132812 904.574219 114.242188 904.417969 114.539062 Z M 904.417969 114.539062 " fill-opacity="1" fill-rule="nonzero"/></g></g></g><g clip-path="url(#clip-32)"><g clip-path="url(#clip-33)"><g clip-path="url(#clip-34)"><path fill="rgb(16.079712%, 19.60907%, 25.489807%)" d="M 938.882812 104.078125 C 938.589844 103.917969 938.222656 104.03125 938.066406 104.328125 C 937.90625 104.621094 938.019531 104.988281 938.3125 105.148438 L 942.292969 107.273438 C 942.441406 107.355469 942.609375 107.367188 942.757812 107.320312 C 942.90625 107.273438 943.035156 107.171875 943.113281 107.027344 C 943.273438 106.730469 943.160156 106.363281 942.867188 106.207031 Z M 938.882812 104.078125 " fill-opacity="1" fill-rule="nonzero"/></g></g></g><g clip-path="url(#clip-35)"><g clip-path="url(#clip-36)"><g clip-path="url(#clip-37)"><path fill="rgb(16.079712%, 19.60907%, 25.489807%)" d="M 944.601562 83.777344 L 940.28125 85.085938 C 939.960938 85.183594 939.78125 85.523438 939.878906 85.84375 C 939.976562 86.164062 940.3125 86.34375 940.632812 86.246094 L 944.953125 84.933594 C 945.273438 84.839844 945.453125 84.5 945.355469 84.179688 C 945.261719 83.859375 944.921875 83.679688 944.601562 83.777344 Z M 944.601562 83.777344 " fill-opacity="1" fill-rule="nonzero"/></g></g></g><g clip-path="url(#clip-38)"><g clip-path="url(#clip-39)"><g clip-path="url(#clip-40)"><path fill="rgb(16.079712%, 19.60907%, 25.489807%)" d="M 919.167969 90.496094 C 919.007812 90.246094 918.734375 89.820312 918.445312 89.386719 C 918.507812 89.496094 918.566406 89.585938 918.617188 89.664062 C 918.917969 90.136719 919.226562 90.625 919.550781 91.089844 C 919.421875 90.894531 919.289062 90.695312 919.167969 90.496094 Z M 926.558594 76.570312 C 926.546875 76.605469 926.539062 76.636719 926.535156 76.671875 C 926.539062 76.636719 926.550781 76.609375 926.5625 76.574219 C 926.574219 76.507812 926.589844 76.433594 926.609375 76.363281 C 926.589844 76.433594 926.574219 76.5 926.558594 76.570312 Z M 928.792969 68.652344 L 926.011719 70.058594 L 928.816406 68.644531 Z M 930.066406 69.398438 C 930.019531 69.519531 929.972656 69.636719 929.925781 69.757812 C 929.976562 69.636719 930.03125 69.511719 930.078125 69.382812 C 930.074219 69.382812 930.070312 69.390625 930.066406 69.398438 Z M 930.066406 69.398438 " fill-opacity="1" fill-rule="nonzero"/></g></g></g><g clip-path="url(#clip-41)"><g clip-path="url(#clip-42)"><g clip-path="url(#clip-43)"><path fill="rgb(16.079712%, 19.60907%, 25.489807%)" d="M 931.027344 65.535156 C 930.632812 65.371094 930.195312 65.34375 929.785156 65.46875 C 929.683594 65.5 929.582031 65.535156 929.488281 65.585938 L 924.917969 67.894531 C 924.484375 68.117188 924.160156 68.488281 924.011719 68.949219 C 923.859375 69.414062 923.898438 69.902344 924.113281 70.335938 C 924.519531 71.128906 925.421875 71.511719 926.261719 71.257812 C 926.367188 71.226562 926.46875 71.1875 926.5625 71.140625 L 926.90625 70.964844 C 926.5625 71.976562 926.253906 72.980469 925.976562 73.972656 C 925.976562 73.972656 925.976562 73.972656 925.980469 73.976562 C 925.804688 74.59375 925.644531 75.207031 925.496094 75.808594 C 924.628906 79.3125 924.136719 82.554688 923.730469 85.21875 C 923.53125 86.507812 923.242188 88.425781 922.960938 89.601562 C 922.800781 89.394531 922.636719 89.160156 922.476562 88.929688 C 922.429688 88.859375 922.386719 88.792969 922.347656 88.726562 C 922.074219 88.335938 921.839844 87.953125 921.6875 87.71875 C 921.597656 87.574219 921.503906 87.4375 921.417969 87.292969 C 921.40625 87.273438 921.394531 87.257812 921.382812 87.242188 C 920.015625 85.109375 918.449219 82.9375 916.183594 83.625 C 913.660156 84.390625 913.9375 87.632812 914.253906 91.394531 C 914.300781 91.988281 914.421875 93.355469 914.4375 94.433594 C 914.144531 94.050781 913.851562 93.625 913.652344 93.351562 C 912.363281 91.5 910.753906 89.199219 908.382812 89.921875 C 905.859375 90.6875 906.152344 94.082031 906.449219 97.675781 C 906.523438 98.535156 906.730469 101 906.585938 101.890625 C 905.953125 102.332031 905.640625 103.144531 905.875 103.917969 C 905.980469 104.265625 906.175781 104.554688 906.433594 104.773438 C 906.894531 105.160156 907.527344 105.316406 908.144531 105.128906 C 910.660156 104.367188 910.375 100.96875 910.074219 97.375 C 910.023438 96.78125 909.90625 95.421875 909.890625 94.339844 C 910.183594 94.730469 910.476562 95.148438 910.675781 95.429688 C 911.972656 97.28125 913.574219 99.578125 915.953125 98.859375 C 918.46875 98.09375 918.191406 94.855469 917.875 91.09375 C 917.832031 90.535156 917.722656 89.308594 917.691406 88.265625 C 917.890625 88.546875 918.085938 88.835938 918.25 89.097656 C 918.28125 89.140625 918.3125 89.179688 918.339844 89.222656 C 918.375 89.28125 918.410156 89.335938 918.445312 89.386719 C 918.734375 89.820312 919.007812 90.25 919.167969 90.496094 C 919.289062 90.695312 919.421875 90.894531 919.550781 91.089844 C 920.777344 92.859375 922.195312 94.347656 924.121094 93.761719 C 926.203125 93.132812 926.597656 90.515625 927.324219 85.773438 C 927.648438 83.625 928.039062 81.09375 928.636719 78.359375 C 928.808594 77.582031 928.996094 76.785156 929.203125 75.980469 C 929.207031 75.980469 929.207031 75.976562 929.207031 75.976562 C 929.476562 74.941406 929.773438 73.898438 930.117188 72.84375 C 930.476562 73.675781 931.410156 74.128906 932.304688 73.855469 C 933.265625 73.5625 933.808594 72.550781 933.523438 71.59375 L 932.054688 66.6875 C 931.894531 66.164062 931.519531 65.746094 931.027344 65.535156 Z M 932.363281 71.945312 C 932.460938 72.265625 932.277344 72.597656 931.957031 72.695312 L 931.953125 72.695312 C 931.632812 72.792969 931.300781 72.609375 931.203125 72.289062 L 930.339844 69.410156 L 930.339844 69.40625 C 930.296875 69.289062 930.152344 69.269531 930.09375 69.367188 C 930.085938 69.367188 930.082031 69.375 930.078125 69.382812 C 930.03125 69.511719 929.976562 69.632812 929.925781 69.757812 C 929.875 69.882812 929.824219 70.003906 929.78125 70.132812 C 929.777344 70.144531 929.773438 70.152344 929.769531 70.160156 C 929.625 70.539062 929.492188 70.914062 929.359375 71.292969 C 929.226562 71.667969 929.101562 72.042969 928.980469 72.417969 C 928.667969 73.371094 928.390625 74.316406 928.148438 75.238281 L 928.148438 75.242188 C 928.066406 75.539062 927.992188 75.835938 927.921875 76.125 C 927.839844 76.433594 927.765625 76.734375 927.695312 77.042969 C 927.664062 77.171875 927.636719 77.292969 927.605469 77.421875 C 927.554688 77.648438 927.507812 77.863281 927.460938 78.082031 C 927.226562 79.113281 927.035156 80.125 926.859375 81.089844 C 926.746094 81.710938 926.644531 82.324219 926.546875 82.917969 C 926.394531 83.851562 926.253906 84.75 926.128906 85.585938 C 925.480469 89.847656 925.121094 92.191406 923.769531 92.601562 C 922.214844 93.074219 920.964844 91.105469 919.644531 89.015625 C 918.808594 87.710938 917.558594 85.742188 916.886719 85.945312 C 916.246094 86.140625 916.519531 89.425781 916.667969 91.191406 C 916.941406 94.429688 917.175781 97.21875 915.597656 97.699219 C 914.0625 98.164062 912.84375 96.425781 911.667969 94.738281 C 910.828125 93.53125 909.777344 92.03125 909.085938 92.238281 C 908.445312 92.433594 908.71875 95.714844 908.867188 97.476562 C 909.136719 100.707031 909.367188 103.492188 907.792969 103.96875 C 907.472656 104.066406 907.136719 103.890625 907.035156 103.566406 C 906.9375 103.246094 907.121094 102.90625 907.441406 102.808594 C 908.082031 102.613281 907.804688 99.335938 907.65625 97.578125 C 907.382812 94.347656 907.152344 91.558594 908.734375 91.078125 C 910.265625 90.617188 911.484375 92.355469 912.660156 94.042969 C 913.507812 95.25 914.550781 96.75 915.246094 96.539062 C 915.886719 96.34375 915.609375 93.058594 915.460938 91.292969 C 915.1875 88.058594 914.953125 85.265625 916.535156 84.785156 C 918.089844 84.3125 919.339844 86.285156 920.660156 88.367188 C 921.492188 89.671875 922.746094 91.648438 923.417969 91.441406 C 924.039062 91.253906 924.511719 88.148438 924.925781 85.40625 C 925.1875 83.699219 925.480469 81.765625 925.882812 79.695312 C 926.007812 79.054688 926.144531 78.40625 926.292969 77.738281 C 926.367188 77.386719 926.449219 77.03125 926.535156 76.671875 C 926.539062 76.636719 926.546875 76.605469 926.558594 76.570312 C 926.574219 76.5 926.589844 76.433594 926.609375 76.363281 C 926.644531 76.207031 926.683594 76.050781 926.730469 75.882812 C 926.78125 75.679688 926.828125 75.46875 926.882812 75.261719 C 926.945312 75.03125 927.007812 74.804688 927.074219 74.578125 L 927.070312 74.570312 C 927.292969 73.738281 927.542969 72.894531 927.824219 72.042969 C 927.851562 71.953125 927.882812 71.867188 927.914062 71.777344 C 928.011719 71.453125 928.125 71.136719 928.242188 70.8125 C 928.371094 70.425781 928.511719 70.042969 928.667969 69.652344 C 928.769531 69.382812 928.875 69.109375 928.980469 68.835938 C 929.03125 68.71875 928.925781 68.609375 928.816406 68.644531 L 926.011719 70.058594 C 925.988281 70.074219 925.960938 70.082031 925.9375 70.089844 C 925.886719 70.109375 925.828125 70.121094 925.777344 70.117188 C 925.753906 70.125 925.734375 70.125 925.714844 70.117188 C 925.675781 70.125 925.636719 70.117188 925.601562 70.109375 C 925.5625 70.101562 925.527344 70.085938 925.496094 70.078125 C 925.402344 70.035156 925.320312 69.972656 925.253906 69.882812 C 925.234375 69.859375 925.214844 69.828125 925.195312 69.792969 C 925.046875 69.492188 925.164062 69.125 925.46875 68.976562 L 930.039062 66.664062 C 930.066406 66.648438 930.101562 66.640625 930.136719 66.628906 C 930.277344 66.585938 930.417969 66.59375 930.546875 66.648438 C 930.714844 66.71875 930.839844 66.859375 930.890625 67.035156 Z M 932.363281 71.945312 " fill-opacity="1" fill-rule="nonzero"/></g></g></g><path fill="rgb(16.079712%, 19.60907%, 25.489807%)" d="M 917.523438 157.203125 C 907.570312 159.0625 897.152344 157.109375 887.382812 151.25 C 868.59375 139.898438 858.730469 117.761719 863.289062 97.480469 C 872.871094 55.621094 878.546875 18.96875 851.382812 -5.496094 C 841.613281 -14.332031 837.523438 -26.796875 839.660156 -41.496094 C 842.730469 -63.171875 858.265625 -84.195312 870.917969 -90.238281 L 871.289062 -89.402344 L 870.917969 -90.238281 C 895.476562 -102.054688 903.476562 -99.171875 916.875 -94.425781 C 923.757812 -91.820312 930.921875 -89.773438 938.175781 -88.472656 C 953.898438 -85.589844 959.945312 -77.21875 968.410156 -65.496094 C 977.0625 -53.496094 987.757812 -38.613281 1013.25 -21.589844 C 1022.921875 -15.078125 1028.226562 -5.773438 1028.875 6.039062 C 1030.273438 30.875 1011.292969 62.410156 995.199219 84.457031 C 976.316406 110.226562 953.058594 134.410156 938.269531 146.96875 C 932.316406 152.179688 925.152344 155.714844 917.523438 157.203125 Z M 892.3125 -96.007812 C 886.917969 -94.984375 880.3125 -92.75 871.753906 -88.566406 C 856.871094 -81.402344 843.847656 -57.867188 841.523438 -41.308594 C 840.125 -31.542969 840.964844 -17.589844 852.683594 -6.890625 C 880.59375 18.226562 874.824219 55.433594 865.152344 97.851562 C 860.683594 117.386719 870.265625 138.597656 888.3125 149.574219 C 904.40625 159.339844 922.546875 157.851562 936.964844 145.574219 C 961.992188 124.273438 1029.621094 51.714844 1027.015625 6.132812 C 1026.363281 -5.125 1021.339844 -13.867188 1012.226562 -20.007812 C 986.457031 -37.214844 975.199219 -52.9375 966.921875 -64.378906 C 958.457031 -76.101562 952.875 -83.914062 937.898438 -86.613281 C 930.546875 -88.007812 923.292969 -89.960938 916.316406 -92.660156 C 908.035156 -95.542969 901.894531 -97.773438 892.3125 -96.007812 Z M 892.3125 -96.007812 " fill-opacity="1" fill-rule="nonzero"/></svg>