<?xml version="1.0" encoding="UTF-8"?><svg xmlns="http://www.w3.org/2000/svg" xmlns:xlink="http://www.w3.org/1999/xlink" contentScriptType="text/ecmascript" width="1440" zoomAndPan="magnify" contentStyleType="text/css" viewBox="0 0 1440 359.999987" height="359.999987" preserveAspectRatio="xMidYMid meet" version="1.0"><defs><clipPath id="clip-0"><path d="M 689 0 L 1043 0 L 1043 360 L 689 360 Z M 689 0 " clip-rule="nonzero"/></clipPath><clipPath id="clip-1"><path d="M 655.875 -86.085938 L 1144.660156 -3.265625 L 1072.617188 421.921875 L 583.832031 339.105469 Z M 655.875 -86.085938 " clip-rule="nonzero"/></clipPath><clipPath id="clip-2"><path d="M 655.875 -86.085938 L 1144.660156 -3.265625 L 1072.617188 421.921875 L 583.832031 339.105469 Z M 655.875 -86.085938 " clip-rule="nonzero"/></clipPath><clipPath id="clip-3"><path d="M 0 0 L 199 0 L 199 325 L 0 325 Z M 0 0 " clip-rule="nonzero"/></clipPath><clipPath id="clip-4"><path d="M -130.660156 399.46875 L -245.597656 -82.773438 L 173.902344 -182.757812 L 288.839844 299.484375 Z M -130.660156 399.46875 " clip-rule="nonzero"/></clipPath><clipPath id="clip-5"><path d="M -130.660156 399.46875 L -245.597656 -82.773438 L 173.902344 -182.757812 L 288.839844 299.484375 Z M -130.660156 399.46875 " clip-rule="nonzero"/></clipPath><clipPath id="clip-6"><path d="M 707 25.414062 L 839 25.414062 L 839 360 L 707 360 Z M 707 25.414062 " clip-rule="nonzero"/></clipPath><clipPath id="clip-7"><path d="M 741.25 134 L 932.613281 134 L 932.613281 311 L 741.25 311 Z M 741.25 134 " clip-rule="nonzero"/></clipPath><clipPath id="clip-8"><path d="M 0 0 L 148 0 L 148 288 L 0 288 Z M 0 0 " clip-rule="nonzero"/></clipPath><clipPath id="clip-9"><path d="M 40.425781 323.484375 L -203.8125 203.203125 L -40.453125 -128.503906 L 203.785156 -8.21875 Z M 40.425781 323.484375 " clip-rule="nonzero"/></clipPath><clipPath id="clip-10"><path d="M 40.425781 323.484375 L -203.8125 203.203125 L -40.453125 -128.503906 L 203.785156 -8.21875 Z M 40.425781 323.484375 " clip-rule="nonzero"/></clipPath><clipPath id="clip-11"><path d="M 863 74 L 879 74 L 879 99 L 863 99 Z M 863 74 " clip-rule="nonzero"/></clipPath><clipPath id="clip-12"><path d="M 845.300781 72.902344 L 902.714844 55.476562 L 922.753906 121.5 L 865.339844 138.925781 Z M 845.300781 72.902344 " clip-rule="nonzero"/></clipPath><clipPath id="clip-13"><path d="M 845.300781 72.902344 L 902.714844 55.476562 L 922.753906 121.5 L 865.339844 138.925781 Z M 845.300781 72.902344 " clip-rule="nonzero"/></clipPath><clipPath id="clip-14"><path d="M 896 77 L 897 77 L 897 78 L 896 78 Z M 896 77 " clip-rule="nonzero"/></clipPath><clipPath id="clip-15"><path d="M 845.300781 72.902344 L 902.714844 55.476562 L 922.753906 121.5 L 865.339844 138.925781 Z M 845.300781 72.902344 " clip-rule="nonzero"/></clipPath><clipPath id="clip-16"><path d="M 845.300781 72.902344 L 902.714844 55.476562 L 922.753906 121.5 L 865.339844 138.925781 Z M 845.300781 72.902344 " clip-rule="nonzero"/></clipPath><clipPath id="clip-17"><path d="M 861 71 L 905 71 L 905 131 L 861 131 Z M 861 71 " clip-rule="nonzero"/></clipPath><clipPath id="clip-18"><path d="M 845.300781 72.902344 L 902.714844 55.476562 L 922.753906 121.5 L 865.339844 138.925781 Z M 845.300781 72.902344 " clip-rule="nonzero"/></clipPath><clipPath id="clip-19"><path d="M 845.300781 72.902344 L 902.714844 55.476562 L 922.753906 121.5 L 865.339844 138.925781 Z M 845.300781 72.902344 " clip-rule="nonzero"/></clipPath><clipPath id="clip-20"><path d="M 873 64 L 877 64 L 877 70 L 873 70 Z M 873 64 " clip-rule="nonzero"/></clipPath><clipPath id="clip-21"><path d="M 845.300781 72.902344 L 902.714844 55.476562 L 922.753906 121.5 L 865.339844 138.925781 Z M 845.300781 72.902344 " clip-rule="nonzero"/></clipPath><clipPath id="clip-22"><path d="M 845.300781 72.902344 L 902.714844 55.476562 L 922.753906 121.5 L 865.339844 138.925781 Z M 845.300781 72.902344 " clip-rule="nonzero"/></clipPath><clipPath id="clip-23"><path d="M 856 78 L 862 78 L 862 82 L 856 82 Z M 856 78 " clip-rule="nonzero"/></clipPath><clipPath id="clip-24"><path d="M 845.300781 72.902344 L 902.714844 55.476562 L 922.753906 121.5 L 865.339844 138.925781 Z M 845.300781 72.902344 " clip-rule="nonzero"/></clipPath><clipPath id="clip-25"><path d="M 845.300781 72.902344 L 902.714844 55.476562 L 922.753906 121.5 L 865.339844 138.925781 Z M 845.300781 72.902344 " clip-rule="nonzero"/></clipPath><clipPath id="clip-26"><path d="M 854 99 L 860 99 L 860 103 L 854 103 Z M 854 99 " clip-rule="nonzero"/></clipPath><clipPath id="clip-27"><path d="M 845.300781 72.902344 L 902.714844 55.476562 L 922.753906 121.5 L 865.339844 138.925781 Z M 845.300781 72.902344 " clip-rule="nonzero"/></clipPath><clipPath id="clip-28"><path d="M 845.300781 72.902344 L 902.714844 55.476562 L 922.753906 121.5 L 865.339844 138.925781 Z M 845.300781 72.902344 " clip-rule="nonzero"/></clipPath><clipPath id="clip-29"><path d="M 868 114 L 872 114 L 872 120 L 868 120 Z M 868 114 " clip-rule="nonzero"/></clipPath><clipPath id="clip-30"><path d="M 845.300781 72.902344 L 902.714844 55.476562 L 922.753906 121.5 L 865.339844 138.925781 Z M 845.300781 72.902344 " clip-rule="nonzero"/></clipPath><clipPath id="clip-31"><path d="M 845.300781 72.902344 L 902.714844 55.476562 L 922.753906 121.5 L 865.339844 138.925781 Z M 845.300781 72.902344 " clip-rule="nonzero"/></clipPath><clipPath id="clip-32"><path d="M 904 104 L 910 104 L 910 108 L 904 108 Z M 904 104 " clip-rule="nonzero"/></clipPath><clipPath id="clip-33"><path d="M 845.300781 72.902344 L 902.714844 55.476562 L 922.753906 121.5 L 865.339844 138.925781 Z M 845.300781 72.902344 " clip-rule="nonzero"/></clipPath><clipPath id="clip-34"><path d="M 845.300781 72.902344 L 902.714844 55.476562 L 922.753906 121.5 L 865.339844 138.925781 Z M 845.300781 72.902344 " clip-rule="nonzero"/></clipPath><clipPath id="clip-35"><path d="M 905 83 L 912 83 L 912 87 L 905 87 Z M 905 83 " clip-rule="nonzero"/></clipPath><clipPath id="clip-36"><path d="M 845.300781 72.902344 L 902.714844 55.476562 L 922.753906 121.5 L 865.339844 138.925781 Z M 845.300781 72.902344 " clip-rule="nonzero"/></clipPath><clipPath id="clip-37"><path d="M 845.300781 72.902344 L 902.714844 55.476562 L 922.753906 121.5 L 865.339844 138.925781 Z M 845.300781 72.902344 " clip-rule="nonzero"/></clipPath><clipPath id="clip-38"><path d="M 884 68 L 897 68 L 897 92 L 884 92 Z M 884 68 " clip-rule="nonzero"/></clipPath><clipPath id="clip-39"><path d="M 845.300781 72.902344 L 902.714844 55.476562 L 922.753906 121.5 L 865.339844 138.925781 Z M 845.300781 72.902344 " clip-rule="nonzero"/></clipPath><clipPath id="clip-40"><path d="M 845.300781 72.902344 L 902.714844 55.476562 L 922.753906 121.5 L 865.339844 138.925781 Z M 845.300781 72.902344 " clip-rule="nonzero"/></clipPath><clipPath id="clip-41"><path d="M 871 65 L 900 65 L 900 106 L 871 106 Z M 871 65 " clip-rule="nonzero"/></clipPath><clipPath id="clip-42"><path d="M 845.300781 72.902344 L 902.714844 55.476562 L 922.753906 121.5 L 865.339844 138.925781 Z M 845.300781 72.902344 " clip-rule="nonzero"/></clipPath><clipPath id="clip-43"><path d="M 845.300781 72.902344 L 902.714844 55.476562 L 922.753906 121.5 L 865.339844 138.925781 Z M 845.300781 72.902344 " clip-rule="nonzero"/></clipPath></defs><rect x="-144" width="1728" fill="rgb(100%, 100%, 100%)" y="-35.999999" height="431.999984" fill-opacity="1"/><rect x="-144" width="1728" fill="rgb(100%, 100%, 100%)" y="-35.999999" height="431.999984" fill-opacity="1"/><rect x="-144" width="1728" fill="rgb(100%, 100%, 100%)" y="-35.999999" height="431.999984" fill-opacity="1"/><g clip-path="url(#clip-0)"><g clip-path="url(#clip-1)"><g clip-path="url(#clip-2)"><path fill="rgb(37.649536%, 46.269226%, 68.629456%)" d="M 997.457031 51.15625 C 1052.671875 121.242188 1080.070312 376.007812 936.273438 379.761719 C 839.011719 382.339844 873.332031 302.777344 814.242188 187.058594 C 794.640625 148.757812 629.238281 73.042969 712.175781 -9.972656 C 761.335938 -59.152344 925.21875 -40.449219 997.457031 51.15625 Z M 997.457031 51.15625 " fill-opacity="1" fill-rule="nonzero"/></g></g></g><g clip-path="url(#clip-3)"><g clip-path="url(#clip-4)"><g clip-path="url(#clip-5)"><path fill="rgb(37.649536%, 46.269226%, 68.629456%)" d="M -137.9375 31.417969 C -95.03125 -46.808594 128.726562 -171.660156 188.421875 -40.785156 C 228.835938 47.71875 142.1875 47.25 58.792969 146.890625 C 31.207031 179.910156 26.214844 361.75 -82.625 317.886719 C -147.117188 291.875 -193.996094 133.730469 -137.9375 31.417969 Z M -137.9375 31.417969 " fill-opacity="1" fill-rule="nonzero"/></g></g></g><g clip-path="url(#clip-6)"><path fill="rgb(16.079712%, 19.60907%, 25.489807%)" d="M 782.953125 32.570312 C 781.222656 31 773.226562 24.398438 762.84375 25.554688 C 756.003906 26.296875 750.8125 30.175781 749 31.664062 C 745.125 34.882812 745.457031 36.367188 740.921875 40.003906 C 736.0625 43.882812 734.082031 43.386719 730.292969 46.523438 C 730.292969 46.523438 725.015625 50.902344 722.710938 57.671875 C 718.257812 70.632812 728.890625 83.675781 729.632812 84.585938 C 734.082031 86.238281 738.945312 87.722656 744.300781 88.878906 C 767.625 93.917969 788.0625 90.035156 801.25 85.988281 C 808.171875 77.734375 808.75 72.203125 807.925781 68.566406 C 807.101562 64.9375 804.957031 63.945312 804.214844 59.320312 C 803.226562 53.292969 806.277344 51.808594 805.78125 46.523438 C 805.203125 40.167969 800.09375 32.984375 792.925781 31.414062 C 788.472656 30.34375 784.683594 31.746094 782.953125 32.570312 Z M 720.652344 347.960938 L 795.890625 322.613281 L 824.65625 329.300781 L 838.582031 381.230469 C 836.933594 399.066406 835.367188 416.980469 833.722656 434.816406 C 825.230469 436.714844 814.105469 438.28125 801.167969 437.953125 C 791.691406 437.707031 783.363281 436.46875 776.445312 434.980469 L 773.0625 416.816406 C 770.839844 422.925781 768.613281 429.117188 766.304688 435.226562 C 756.664062 437.128906 744.382812 438.613281 730.207031 437.953125 C 721.554688 437.539062 713.890625 436.382812 707.21875 435.0625 L 708.535156 394.6875 L 720.652344 347.960938 " fill-opacity="1" fill-rule="nonzero"/></g><path fill="rgb(87.838745%, 98.429871%, 98.81897%)" d="M 723.949219 181.101562 C 722.792969 176.0625 721.71875 171.027344 720.566406 165.992188 L 735.648438 148.984375 L 741.335938 143.371094 L 790.042969 146.011719 L 792.679688 147.578125 C 799.765625 165.578125 806.6875 187.542969 811.058594 213.050781 C 819.875 264.324219 814.847656 308.082031 808.832031 337.554688 C 803.886719 339.867188 795.890625 342.839844 785.671875 343.664062 C 773.972656 344.574219 764.574219 342.261719 759.054688 340.445312 C 747.761719 289.585938 736.636719 238.644531 725.347656 187.707031 M 725.347656 187.707031 C 724.851562 185.476562 724.359375 183.328125 723.863281 181.101562 " fill-opacity="1" fill-rule="nonzero"/><path fill="rgb(50.979614%, 57.249451%, 73.329163%)" d="M 804.628906 209.996094 C 806.605469 226.179688 807.347656 240.710938 808.253906 274.808594 C 808.914062 298.917969 809.410156 330.953125 808.832031 369.09375 C 811.632812 371.734375 816.578125 375.699219 823.832031 378.425781 C 831.578125 381.316406 838.417969 381.398438 842.289062 381.230469 C 838.828125 351.261719 835.449219 321.292969 831.988281 291.238281 C 833.226562 291.898438 838.5 294.460938 844.925781 292.890625 C 852.511719 290.992188 855.972656 284.882812 856.546875 283.890625 L 856.546875 248.304688 C 849.378906 221.390625 842.289062 194.558594 835.121094 167.640625 C 834.625 165.828125 833.472656 164.339844 831.824219 163.433594 C 827.457031 161.039062 822.675781 158.5625 817.402344 156.25 C 808.421875 152.289062 800.011719 149.5625 792.59375 147.578125 C 796.636719 162.609375 801.414062 183.992188 804.628906 209.996094 Z M 758.3125 225.847656 C 761.113281 245.914062 760.949219 263.003906 760.539062 296.441406 C 760.125 325.089844 758.804688 348.949219 757.652344 365.710938 C 752.871094 371.078125 745.375 378.261719 734.742188 384.453125 C 722.792969 391.46875 711.664062 394.441406 704.25 395.847656 C 704.582031 385.527344 705.238281 369.179688 707.21875 349.117188 C 709.851562 322.117188 712.488281 311.714844 713.476562 291.320312 C 714.058594 279.433594 714.136719 261.761719 711.5 239.96875 C 690.898438 275.304688 669.308594 298.339844 657.027344 294.210938 C 653.648438 293.058594 649.609375 289.339844 647.21875 285.292969 C 641.613281 275.800781 644.746094 264.574219 646.148438 259.121094 C 649.941406 244.507812 653.566406 224.609375 657.027344 195.464844 L 685.128906 194.0625 C 685.214844 196.289062 685.292969 198.523438 685.378906 200.75 C 686.203125 198.4375 690.980469 184.566406 696.582031 173.503906 C 699.222656 168.304688 699.054688 168.714844 701.363281 164.671875 C 703.011719 161.78125 704.660156 159.058594 706.394531 156.414062 C 707.132812 155.257812 708.371094 154.433594 709.769531 154.101562 L 735.8125 148.902344 C 749.90625 180.441406 755.675781 207.273438 758.3125 225.847656 " fill-opacity="1" fill-rule="nonzero"/><g clip-path="url(#clip-7)"><path fill="rgb(72.549438%, 32.939148%, 38.038635%)" d="M 845.339844 270.433594 C 846.574219 278.851562 851.6875 283.890625 853.25 285.378906 C 847.320312 289.339844 841.464844 293.300781 835.53125 297.265625 C 837.921875 301.640625 840.3125 306.019531 842.703125 310.394531 C 872.703125 292.808594 902.617188 275.136719 932.617188 257.554688 C 930.96875 255.65625 924.621094 247.890625 924.621094 236.253906 C 924.621094 225.273438 930.144531 217.839844 931.792969 215.777344 L 924.210938 214.703125 L 850.121094 252.019531 C 849.046875 253.34375 843.9375 260.523438 845.339844 270.433594 Z M 781.964844 136.765625 C 783.035156 137.09375 784.847656 137.839844 786.582031 139.40625 C 789.21875 141.882812 789.878906 144.855469 790.121094 145.929688 C 790.535156 148.574219 790.945312 152.53125 790.042969 157.320312 C 789.054688 162.851562 786.824219 166.980469 785.34375 169.378906 L 773.640625 153.9375 C 770.261719 158.726562 766.882812 163.515625 763.585938 168.304688 C 760.539062 166.402344 756.992188 163.761719 753.449219 160.210938 C 747.351562 154.101562 743.644531 147.828125 741.5 143.285156 C 742.078125 141.96875 742.984375 140.230469 744.550781 138.496094 C 746.609375 136.105469 748.914062 134.78125 750.320312 134.125 C 760.785156 135.03125 771.335938 135.941406 781.964844 136.765625 " fill-opacity="1" fill-rule="nonzero"/></g><path fill="rgb(86.669922%, 69.40918%, 56.858826%)" d="M 906.324219 272.910156 C 896.355469 269.605469 892.5625 270.679688 890.914062 272.496094 C 889.511719 274.066406 890.089844 275.882812 888.9375 279.019531 C 887.289062 283.3125 883.910156 286.039062 881.109375 287.691406 C 887.453125 291.984375 895.609375 291.734375 900.886719 287.277344 C 907.230469 282.074219 906.410156 273.570312 906.324219 272.910156 Z M 798.363281 80.953125 C 797.128906 80.375 795.726562 80.707031 794.574219 81.199219 C 793.75 81.695312 793.007812 82.191406 792.183594 82.769531 C 792.429688 80.375 792.515625 76.742188 791.113281 72.863281 C 789.21875 67.578125 786.167969 66.011719 784.1875 60.890625 C 783.285156 58.496094 782.375 54.863281 782.953125 49.660156 C 778.917969 52.46875 772.074219 56.597656 762.597656 58.496094 C 756.5 59.734375 751.222656 59.734375 747.269531 59.40625 C 746.445312 62.957031 745.375 66.835938 743.808594 70.964844 C 741.746094 76.578125 739.359375 81.363281 737.132812 85.328125 C 736.554688 83.925781 735.976562 82.523438 735.484375 81.121094 C 734.742188 80.953125 733.753906 80.789062 732.765625 81.199219 C 729.136719 82.601562 727.078125 90.035156 730.292969 94.410156 C 732.765625 97.796875 737.296875 97.960938 738.039062 97.960938 C 738.449219 100.601562 739.933594 108.363281 746.527344 114.886719 C 747.023438 115.378906 748.421875 116.703125 750.484375 118.1875 C 751.058594 120.996094 751.554688 124.957031 750.976562 129.664062 C 750.5625 133.050781 749.824219 135.941406 749 138.167969 C 752.132812 141.222656 756.332031 144.773438 761.691406 148.074219 C 765.976562 150.71875 770.097656 152.617188 773.558594 154.019531 C 775.042969 151.957031 776.523438 149.644531 778.007812 147.167969 C 779.742188 144.359375 781.222656 141.636719 782.460938 138.992188 C 781.550781 135.609375 780.730469 131.234375 780.644531 126.03125 C 780.5625 122.398438 780.894531 119.09375 781.304688 116.375 C 786.332031 111.832031 790.371094 105.308594 792.265625 97.382812 C 793.503906 97.300781 796.550781 96.972656 798.777344 94.660156 C 802.652344 90.613281 801.742188 82.523438 798.363281 80.953125 Z M 683.234375 181.429688 C 683.398438 187.210938 681.007812 191.917969 678.949219 194.808594 C 674.414062 194.972656 669.800781 195.136719 665.265625 195.300781 C 663.289062 193.238281 657.851562 187.210938 656.367188 177.46875 C 654.882812 167.808594 658.097656 160.375 659.417969 157.898438 C 661.476562 156.582031 664.609375 154.84375 668.8125 154.183594 C 675.074219 153.113281 682.160156 154.515625 682.328125 156.332031 C 682.410156 157.242188 680.84375 158.644531 673.425781 160.789062 C 674.5 162.113281 676.0625 164.175781 677.710938 166.816406 C 680.433594 171.277344 683.070312 175.734375 683.234375 181.429688 " fill-opacity="1" fill-rule="nonzero"/><path fill="rgb(16.079712%, 19.60907%, 25.489807%)" d="M 667.871094 140.945312 L 659.484375 128.46875 C 658.25 126.570312 655.941406 125.828125 654.457031 126.902344 C 652.972656 127.894531 652.808594 130.285156 654.042969 132.1875 L 696.238281 194.933594 L 703.90625 200.300781 L 701.679688 191.21875 L 670.9375 145.503906 M 670.9375 145.503906 L 667.871094 140.945312 " fill-opacity="1" fill-rule="nonzero"/><path fill="rgb(86.669922%, 69.40918%, 56.858826%)" d="M 676.0625 177.386719 C 673.757812 174.410156 671.53125 171.441406 669.222656 168.46875 M 669.222656 168.46875 C 667 165.664062 664.773438 162.851562 662.550781 160.046875 C 664.855469 159.550781 668.976562 159.136719 673.507812 160.789062 C 680.511719 163.433594 685.789062 170.367188 684.46875 172.679688 C 684.058594 173.421875 683.152344 173.257812 680.433594 174.578125 C 678.535156 175.484375 677.050781 176.558594 676.0625 177.386719 " fill-opacity="1" fill-rule="nonzero"/><path fill="rgb(16.079712%, 19.60907%, 25.489807%)" d="M 773.640625 79.550781 C 772.984375 80.046875 773.558594 81.121094 774.300781 80.621094 C 775.125 80.046875 775.949219 79.714844 776.855469 79.550781 C 776.03125 80.046875 775.535156 80.953125 775.535156 82.027344 C 775.535156 83.675781 776.855469 85 778.503906 85 C 780.152344 85 781.46875 83.675781 781.46875 82.027344 C 781.46875 81.285156 781.222656 80.621094 780.8125 80.125 C 780.894531 80.210938 780.976562 80.210938 781.058594 80.292969 C 782.542969 81.121094 783.695312 82.601562 785.425781 82.933594 C 786.496094 83.101562 787.238281 81.945312 786.496094 81.121094 C 783.199219 77.238281 777.597656 76.578125 773.640625 79.550781 Z M 787.648438 70.964844 C 783.035156 69.0625 777.679688 68.816406 773.148438 70.964844 C 772.074219 71.457031 772.816406 73.027344 773.886719 72.78125 C 778.339844 71.707031 782.460938 72.945312 786.824219 73.769531 C 788.804688 74.183594 789.382812 71.707031 787.648438 70.964844 Z M 759.054688 73.605469 C 760.042969 73.605469 760.289062 72.117188 759.300781 71.871094 C 756.417969 71.210938 753.695312 71.042969 750.8125 71.625 C 748.421875 72.117188 745.125 72.945312 743.890625 75.257812 C 743.480469 76 743.972656 76.90625 744.878906 76.90625 C 747.101562 76.90625 749.082031 75.339844 751.222656 74.679688 C 753.78125 74.019531 756.417969 73.605469 759.054688 73.605469 Z M 750.894531 82.933594 C 750.894531 84.585938 752.210938 85.90625 753.859375 85.90625 C 755.507812 85.90625 756.828125 84.585938 756.828125 82.933594 C 756.828125 81.863281 756.253906 80.871094 755.34375 80.375 C 756.167969 80.375 756.914062 80.457031 757.652344 80.871094 C 758.148438 81.121094 758.476562 80.457031 758.066406 80.125 C 756.253906 78.808594 754.273438 78.476562 752.132812 79.136719 C 750.320312 79.714844 747.515625 81.285156 747.101562 83.265625 C 746.9375 83.839844 747.515625 84.503906 748.089844 84.253906 C 749.328125 83.925781 750.152344 82.851562 751.058594 82.027344 C 750.976562 82.359375 750.894531 82.601562 750.894531 82.933594 Z M 765.316406 92.757812 C 764.492188 93.171875 765.070312 94.660156 765.976562 94.246094 C 768.039062 93.421875 769.191406 91.851562 769.027344 89.539062 C 768.941406 88.550781 768.28125 87.558594 768.039062 86.652344 C 767.707031 85.492188 767.707031 84.253906 767.625 83.101562 C 767.457031 80.953125 767.707031 78.808594 766.964844 76.742188 C 766.632812 75.832031 765.480469 75.832031 765.152344 76.742188 C 764.328125 79.136719 764.820312 81.945312 765.234375 84.421875 C 765.566406 87.0625 768.449219 91.273438 765.316406 92.757812 Z M 760.703125 103.164062 C 760.621094 103.164062 760.621094 103.164062 760.539062 103.164062 C 760.949219 107.703125 766.058594 110.261719 769.6875 107.207031 C 771.664062 105.554688 772.570312 103.078125 773.148438 100.6875 C 769.105469 101.59375 764.90625 102.832031 760.703125 103.164062 Z M 759.714844 102.171875 C 759.714844 101.675781 759.960938 101.179688 760.453125 101.015625 C 764.65625 99.695312 769.4375 99.285156 773.808594 98.539062 C 774.464844 97.878906 775.949219 98.539062 775.699219 99.695312 C 774.796875 104.402344 772.570312 109.933594 767.214844 110.675781 C 762.515625 111.335938 758.890625 107.539062 758.972656 103 C 758.972656 102.503906 759.300781 102.253906 759.714844 102.171875 Z M 871.710938 265.480469 C 870.394531 259.617188 870.886719 253.921875 872.949219 248.304688 C 873.527344 246.738281 870.886719 245.582031 870.230469 247.152344 C 867.589844 253.179688 867.347656 259.785156 869.734375 265.976562 C 870.230469 267.214844 872.042969 266.71875 871.710938 265.480469 Z M 893.71875 251.113281 C 892.726562 249.296875 892.148438 247.316406 891.984375 245.335938 C 891.820312 243.601562 892.3125 241.867188 892.234375 240.132812 C 892.148438 238.976562 890.585938 238.398438 890.007812 239.554688 C 888.03125 243.351562 889.761719 248.800781 891.820312 252.269531 C 892.5625 253.34375 894.375 252.269531 893.71875 251.113281 Z M 901.546875 250.125 C 902.203125 250.703125 903.113281 249.792969 902.453125 249.214844 C 898.332031 244.671875 901.050781 237.984375 901.546875 232.617188 C 901.710938 231.136719 899.238281 230.800781 898.90625 232.289062 C 897.917969 237.90625 896.519531 245.996094 901.546875 250.125 Z M 926.761719 252.351562 C 916.296875 257.882812 905.914062 263.335938 895.53125 268.945312 C 894.210938 269.691406 895.367188 271.753906 896.765625 271.011719 C 907.066406 265.3125 917.285156 259.449219 927.339844 253.34375 C 927.917969 252.929688 927.421875 252.019531 926.761719 252.351562 Z M 884.15625 275.304688 C 876 279.679688 868.003906 284.386719 860.09375 289.257812 C 852.757812 293.796875 844.683594 298.089844 838.253906 303.789062 C 837.429688 304.53125 838.5 305.769531 839.40625 305.273438 C 847.234375 301.230469 854.488281 295.367188 861.988281 290.660156 C 869.570312 285.871094 877.234375 281.164062 884.898438 276.542969 C 885.640625 276.046875 884.980469 274.894531 884.15625 275.304688 Z M 920.253906 250.949219 C 920.832031 250.949219 921.328125 250.617188 921.492188 250.125 C 921.984375 249.792969 922.480469 249.464844 922.972656 249.050781 C 923.878906 248.304688 922.890625 246.820312 921.902344 247.152344 C 921.65625 247.234375 921.328125 247.398438 921.078125 247.480469 C 919.84375 242.695312 919.429688 237.90625 919.757812 232.867188 C 920.089844 227.5 920.667969 220.402344 923.714844 215.777344 C 924.210938 215.035156 923.054688 214.210938 922.5625 214.867188 C 919.019531 219.242188 918.195312 225.601562 917.535156 230.96875 C 916.792969 236.832031 916.957031 242.773438 918.523438 248.472656 C 914.074219 250.453125 909.867188 253.179688 905.667969 255.40625 C 899.816406 258.542969 893.960938 261.683594 888.113281 264.816406 C 876.410156 271.09375 864.707031 277.371094 853.167969 283.808594 C 852.097656 284.386719 853.003906 285.953125 854.074219 285.378906 C 865.941406 279.433594 877.648438 273.242188 889.429688 267.050781 C 895.035156 264.074219 900.640625 261.1875 906.242188 258.210938 C 910.777344 255.902344 915.886719 253.753906 920.253906 250.949219 Z M 713.808594 200.417969 C 714.136719 185.476562 712.078125 170.695312 708.207031 156.25 C 707.875 155.09375 706.144531 155.589844 706.394531 156.746094 C 709.851562 171.441406 711.5 186.550781 710.925781 201.578125 C 710.347656 215.941406 709.113281 230.226562 709.9375 244.589844 C 710.59375 255.820312 712.078125 266.964844 712.078125 278.277344 C 712.078125 294.707031 710.511719 311.136719 707.875 327.320312 C 707.546875 329.464844 710.761719 330.375 711.089844 328.226562 C 713.972656 312.125 715.539062 295.863281 715.457031 279.515625 C 715.457031 267.792969 713.808594 256.316406 713.148438 244.589844 C 712.410156 229.894531 713.5625 215.199219 713.808594 200.417969 Z M 829.269531 249.296875 C 828.28125 234.351562 827.375 219.410156 826.632812 204.382812 C 825.972656 190.84375 824.65625 176.0625 831.414062 163.679688 C 831.910156 162.851562 830.589844 162.027344 830.09375 162.9375 C 823.582031 174 823.085938 186.46875 823.417969 199.015625 C 823.910156 214.539062 824.820312 230.0625 825.890625 245.5 C 827.953125 276.625 830.671875 307.75 834.378906 338.796875 C 834.625 340.609375 837.511719 340.695312 837.265625 338.796875 C 834.132812 309.074219 831.328125 279.265625 829.269531 249.296875 Z M 684.46875 201.082031 C 683.976562 219.65625 679.6875 236.746094 674.992188 254.496094 C 674.5 256.480469 677.214844 257.140625 677.960938 255.324219 C 684.71875 238.480469 686.449219 218.996094 686.367188 201.082031 C 686.449219 199.761719 684.46875 199.761719 684.46875 201.082031 Z M 783.53125 210.90625 C 781.71875 193.320312 778.996094 175.816406 775.125 158.480469 C 774.875 157.488281 773.476562 157.898438 773.640625 158.894531 C 776.9375 176.722656 779.65625 194.640625 781.140625 212.722656 C 781.882812 221.308594 782.375 229.976562 782.625 238.644531 C 782.871094 247.5625 782.375 256.5625 782.871094 265.480469 C 782.953125 267.292969 785.507812 267.292969 785.671875 265.480469 C 786.496094 256.316406 785.835938 246.820312 785.425781 237.65625 C 785.097656 228.738281 784.4375 219.820312 783.53125 210.90625 Z M 795.398438 82.933594 C 794.65625 83.183594 794.902344 84.421875 795.726562 84.171875 C 796.550781 83.925781 797.128906 84.667969 797.460938 85.414062 C 797.789062 86.238281 797.539062 87.226562 798.363281 87.722656 C 798.777344 87.96875 799.269531 87.804688 799.519531 87.390625 C 800.261719 86.402344 799.1875 84.503906 798.449219 83.761719 C 797.707031 83.015625 796.386719 82.601562 795.398438 82.933594 Z M 730.539062 89.621094 C 731.117188 90.117188 731.777344 89.871094 732.019531 89.207031 C 732.269531 88.550781 731.855469 87.804688 731.855469 87.144531 C 731.855469 86.652344 732.019531 85.078125 732.929688 85.660156 C 733.503906 86.074219 734 85.164062 733.503906 84.75 C 731.28125 83.101562 728.890625 88.21875 730.539062 89.621094 Z M 778.996094 116.867188 C 770.261719 121.160156 760.539062 122.480469 751.554688 118.1875 C 750.8125 117.855469 750.152344 118.929688 750.894531 119.34375 C 760.125 123.882812 771.167969 124.628906 780.152344 118.851562 C 781.386719 118.023438 780.316406 116.207031 778.996094 116.867188 Z M 682.410156 169.789062 C 683.152344 169.871094 683.234375 168.714844 682.574219 168.550781 C 678.039062 167.5625 672.601562 167.230469 668.320312 169.214844 C 667.496094 169.625 667.90625 171.027344 668.8125 170.945312 C 671.121094 170.617188 673.261719 169.953125 675.570312 169.707031 C 677.796875 169.542969 680.101562 169.542969 682.410156 169.789062 Z M 680.019531 165.910156 C 680.511719 166.074219 680.679688 165.328125 680.269531 165.164062 C 674.414062 163.019531 667.574219 162.523438 661.804688 165.085938 C 660.902344 165.496094 661.558594 166.816406 662.464844 166.570312 C 668.484375 164.917969 673.839844 164.175781 680.019531 165.910156 Z M 673.34375 161.203125 C 673.921875 161.371094 674.167969 160.460938 673.59375 160.296875 C 669.636719 159.058594 664.113281 157.820312 660.40625 160.460938 C 659.417969 161.121094 660.242188 162.609375 661.3125 162.113281 C 665.023438 160.296875 669.472656 160.210938 673.34375 161.203125 Z M 684.390625 173.917969 C 679.359375 174.824219 676.640625 179.863281 671.859375 181.101562 C 670.707031 181.347656 670.296875 179.945312 671.121094 179.367188 C 673.179688 177.796875 675.570312 176.3125 677.796875 174.992188 C 679.773438 173.835938 681.832031 173.007812 684.140625 172.84375 C 684.882812 172.679688 685.046875 173.753906 684.390625 173.917969 " fill-opacity="1" fill-rule="nonzero"/><path fill="rgb(16.079712%, 19.60907%, 25.489807%)" d="M 909.855469 176.90625 C 895.792969 179.535156 881.078125 176.777344 867.28125 168.5 C 840.738281 152.464844 826.8125 121.191406 833.25 92.546875 C 846.785156 33.414062 854.800781 -18.359375 816.433594 -52.917969 C 802.636719 -65.402344 796.855469 -83.011719 799.875 -103.773438 C 804.210938 -134.390625 826.15625 -164.085938 844.023438 -172.628906 L 844.550781 -171.445312 L 844.023438 -172.628906 C 878.714844 -189.316406 890.011719 -185.242188 908.933594 -178.542969 C 918.65625 -174.863281 928.773438 -171.972656 939.023438 -170.132812 C 961.230469 -166.058594 969.769531 -154.230469 981.726562 -137.675781 C 993.945312 -120.722656 1009.058594 -99.699219 1045.058594 -75.652344 C 1058.722656 -66.453125 1066.214844 -53.3125 1067.132812 -36.625 C 1069.105469 -1.539062 1042.300781 43.007812 1019.570312 74.148438 C 992.894531 110.546875 960.046875 144.714844 939.15625 162.453125 C 930.746094 169.8125 920.628906 174.804688 909.855469 176.90625 Z M 874.246094 -180.777344 C 866.625 -179.332031 857.296875 -176.175781 845.207031 -170.261719 C 824.183594 -160.144531 805.789062 -126.898438 802.503906 -103.511719 C 800.535156 -89.710938 801.714844 -70 818.273438 -54.890625 C 857.691406 -19.410156 849.542969 33.152344 835.878906 93.070312 C 829.570312 120.667969 843.105469 150.628906 868.597656 166.132812 C 891.328125 179.929688 916.949219 177.828125 937.316406 160.484375 C 972.660156 130.390625 1068.183594 27.894531 1064.503906 -36.492188 C 1063.585938 -52.394531 1056.492188 -64.746094 1043.613281 -73.417969 C 1007.21875 -97.726562 991.320312 -119.933594 979.625 -136.097656 C 967.667969 -152.65625 959.785156 -163.691406 938.628906 -167.503906 C 928.25 -169.476562 918 -172.234375 908.144531 -176.046875 C 896.453125 -180.117188 887.78125 -183.273438 874.246094 -180.777344 Z M 874.246094 -180.777344 " fill-opacity="1" fill-rule="nonzero"/><g clip-path="url(#clip-8)"><g clip-path="url(#clip-9)"><g clip-path="url(#clip-10)"><path fill="rgb(16.079712%, 19.60907%, 25.489807%)" d="M 100.964844 -55.207031 C 114.738281 -51.355469 126.722656 -42.375 135.441406 -28.855469 C 152.171875 -2.746094 150.847656 31.464844 132.414062 54.316406 C 94.148438 101.386719 64.085938 144.292969 83.234375 192.246094 C 90.097656 209.539062 87.503906 227.890625 75.621094 245.183594 C 58.203125 270.734375 25.398438 287.679688 5.59375 287.449219 L 5.644531 286.15625 L 5.59375 287.449219 C -32.898438 287.09375 -41.238281 278.449219 -55.25 264.074219 C -62.347656 256.480469 -70.144531 249.417969 -78.527344 243.238281 C -96.648438 229.773438 -99.085938 215.390625 -102.496094 195.253906 C -105.96875 174.648438 -110.238281 149.109375 -131.910156 111.632812 C -140.105469 97.34375 -141.019531 82.246094 -134.472656 66.867188 C -120.738281 34.519531 -77.011719 6.402344 -42.859375 -11.496094 C -2.847656 -32.363281 41.714844 -48.5 68.292969 -55.1875 C 79.089844 -58.074219 90.371094 -58.082031 100.964844 -55.207031 Z M -25.117188 281.40625 C -17.640625 283.476562 -7.878906 284.769531 5.578125 284.804688 C 28.90625 285.015625 60.097656 263.316406 73.378906 243.785156 C 81.242188 232.277344 88.890625 214.074219 80.714844 193.203125 C 61.027344 143.957031 91.558594 100.402344 130.289062 52.683594 C 148.140625 30.714844 149.234375 -2.140625 133.21875 -27.3125 C 118.921875 -49.734375 95.007812 -59.167969 69.074219 -52.605469 C 24.070312 -41.226562 -106.910156 8.519531 -132.054688 67.910156 C -138.253906 82.582031 -137.347656 96.796875 -129.628906 110.265625 C -107.714844 148.15625 -103.265625 175.101562 -99.914062 194.769531 C -96.503906 214.902344 -94.308594 228.289062 -77.011719 241.054688 C -68.570312 247.410156 -60.597656 254.410156 -53.4375 262.183594 C -44.75 271.003906 -38.363281 277.667969 -25.117188 281.40625 Z M -25.117188 281.40625 " fill-opacity="1" fill-rule="nonzero"/></g></g></g><g clip-path="url(#clip-11)"><g clip-path="url(#clip-12)"><g clip-path="url(#clip-13)"><path fill="rgb(16.079712%, 19.60907%, 25.489807%)" d="M 865.546875 98.734375 C 865.226562 98.832031 864.890625 98.652344 864.792969 98.332031 C 862.117188 89.515625 866.363281 79.890625 874.667969 75.941406 C 874.9375 75.808594 875.195312 75.703125 875.46875 75.589844 C 875.730469 75.480469 876.003906 75.382812 876.28125 75.285156 L 876.472656 75.210938 C 876.6875 75.125 876.988281 75.03125 877.28125 74.945312 C 877.601562 74.847656 877.9375 75.027344 878.035156 75.347656 C 878.132812 75.667969 877.953125 76.007812 877.632812 76.105469 C 877.375 76.183594 877.109375 76.261719 876.921875 76.339844 L 876.6875 76.425781 C 876.429688 76.519531 876.175781 76.609375 875.933594 76.707031 C 875.683594 76.8125 875.445312 76.910156 875.191406 77.035156 C 867.421875 80.730469 863.449219 89.734375 865.949219 97.980469 C 866.046875 98.296875 865.867188 98.636719 865.546875 98.734375 Z M 865.546875 98.734375 " fill-opacity="1" fill-rule="nonzero"/></g></g></g><g clip-path="url(#clip-14)"><g clip-path="url(#clip-15)"><g clip-path="url(#clip-16)"><path fill="rgb(16.079712%, 19.60907%, 25.489807%)" d="M 896.679688 77.117188 C 896.675781 77.117188 896.675781 77.117188 896.675781 77.117188 C 896.683594 77.121094 896.683594 77.128906 896.691406 77.125 C 896.683594 77.121094 896.683594 77.121094 896.679688 77.117188 Z M 896.679688 77.117188 " fill-opacity="1" fill-rule="nonzero"/></g></g></g><g clip-path="url(#clip-17)"><g clip-path="url(#clip-18)"><g clip-path="url(#clip-19)"><path fill="rgb(16.079712%, 19.60907%, 25.489807%)" d="M 897.542969 77.082031 C 897.296875 76.851562 896.914062 76.867188 896.683594 77.109375 C 896.683594 77.109375 896.679688 77.109375 896.679688 77.117188 C 896.683594 77.121094 896.683594 77.121094 896.691406 77.125 C 896.683594 77.128906 896.683594 77.121094 896.675781 77.117188 C 896.460938 77.367188 896.472656 77.742188 896.71875 77.964844 C 899.320312 80.40625 901.25 83.511719 902.292969 86.945312 C 904.273438 93.476562 902.882812 100.535156 898.574219 105.832031 C 897.742188 106.851562 897.355469 108.203125 897.515625 109.523438 L 898.097656 115.839844 C 897.988281 115.921875 897.878906 116 897.769531 116.078125 C 897.644531 116.164062 897.519531 116.253906 897.390625 116.34375 C 897.230469 116.449219 897.066406 116.558594 896.90625 116.65625 C 896.773438 116.742188 896.648438 116.828125 896.515625 116.90625 C 896.351562 117.007812 896.183594 117.109375 896.011719 117.207031 C 895.882812 117.285156 895.753906 117.359375 895.617188 117.433594 C 895.445312 117.53125 895.269531 117.621094 895.09375 117.710938 C 894.964844 117.785156 894.835938 117.855469 894.695312 117.921875 C 894.515625 118.015625 894.332031 118.101562 894.148438 118.183594 C 894.015625 118.25 893.890625 118.3125 893.757812 118.371094 C 893.5625 118.457031 893.363281 118.542969 893.167969 118.621094 C 893.046875 118.675781 892.914062 118.730469 892.792969 118.777344 C 892.574219 118.871094 892.351562 118.949219 892.128906 119.03125 C 892.019531 119.070312 891.914062 119.117188 891.800781 119.148438 C 891.472656 119.269531 891.136719 119.375 890.796875 119.480469 C 890.449219 119.585938 890.097656 119.683594 889.746094 119.773438 C 889.628906 119.804688 889.507812 119.828125 889.390625 119.855469 C 889.15625 119.914062 888.925781 119.972656 888.6875 120.019531 C 888.542969 120.050781 888.398438 120.074219 888.257812 120.105469 C 888.046875 120.144531 887.832031 120.183594 887.621094 120.222656 C 887.460938 120.246094 887.3125 120.265625 887.160156 120.285156 C 886.953125 120.316406 886.746094 120.347656 886.546875 120.371094 C 886.386719 120.394531 886.226562 120.402344 886.066406 120.421875 C 885.863281 120.4375 885.667969 120.460938 885.464844 120.476562 C 885.433594 120.480469 885.40625 120.480469 885.375 120.484375 C 885.246094 120.492188 885.109375 120.496094 884.972656 120.507812 C 884.777344 120.515625 884.582031 120.53125 884.386719 120.53125 C 884.214844 120.539062 884.050781 120.539062 883.878906 120.539062 C 883.683594 120.542969 883.488281 120.542969 883.292969 120.542969 C 883.128906 120.539062 882.957031 120.535156 882.789062 120.53125 C 882.648438 120.523438 882.511719 120.519531 882.371094 120.511719 L 879.300781 114.832031 C 878.707031 113.65625 877.664062 112.757812 876.441406 112.355469 C 870.0625 110.28125 865.101562 105.21875 863.160156 98.824219 C 860.242188 89.207031 864.871094 78.707031 873.941406 74.398438 C 874.222656 74.261719 874.511719 74.136719 874.808594 74.011719 C 875.132812 73.882812 875.457031 73.765625 875.8125 73.640625 C 876.417969 73.390625 877.101562 73.179688 877.800781 73.035156 C 878.140625 72.953125 878.476562 72.867188 878.808594 72.796875 C 879.132812 72.734375 879.4375 72.679688 879.753906 72.632812 C 880.832031 72.476562 881.929688 72.402344 883.019531 72.425781 C 885.265625 72.460938 887.503906 72.863281 889.621094 73.628906 C 889.933594 73.734375 890.28125 73.574219 890.394531 73.261719 C 890.507812 72.945312 890.339844 72.597656 890.027344 72.484375 C 886.6875 71.28125 883.078125 70.921875 879.585938 71.429688 C 879.25 71.476562 878.921875 71.542969 878.574219 71.609375 C 878.210938 71.683594 877.859375 71.769531 877.535156 71.855469 C 876.777344 72.007812 876.035156 72.234375 875.378906 72.503906 C 875.035156 72.628906 874.6875 72.75 874.351562 72.890625 C 874.023438 73.027344 873.714844 73.15625 873.417969 73.300781 C 863.8125 77.871094 858.910156 88.992188 862 99.175781 C 864.058594 105.953125 869.3125 111.3125 876.0625 113.507812 C 876.984375 113.8125 877.769531 114.492188 878.230469 115.394531 L 881.457031 121.363281 L 882.71875 124.324219 C 882.722656 124.34375 882.730469 124.359375 882.742188 124.375 L 883.445312 126.03125 C 883.871094 127.039062 884.867188 127.695312 885.988281 127.695312 C 886.621094 127.695312 887.269531 127.660156 887.917969 127.609375 C 889.035156 129.8125 891.636719 130.949219 894.039062 130.21875 C 896.441406 129.488281 897.964844 127.101562 897.675781 124.65625 C 898.140625 124.394531 898.609375 124.121094 899.074219 123.8125 C 900.007812 123.199219 900.476562 122.101562 900.269531 121.011719 L 899.9375 119.234375 L 899.933594 119.226562 L 899.332031 116.046875 L 898.71875 109.398438 C 898.601562 108.382812 898.886719 107.367188 899.515625 106.597656 C 904.078125 100.988281 905.550781 93.511719 903.449219 86.59375 C 902.347656 82.957031 900.304688 79.671875 897.542969 77.082031 Z M 893.6875 129.058594 C 892.003906 129.570312 890.199219 128.886719 889.246094 127.480469 C 889.289062 127.472656 889.335938 127.464844 889.386719 127.457031 C 889.507812 127.445312 889.632812 127.417969 889.753906 127.402344 C 889.984375 127.371094 890.214844 127.324219 890.449219 127.285156 C 890.585938 127.257812 890.730469 127.234375 890.867188 127.203125 C 891.085938 127.15625 891.304688 127.109375 891.523438 127.054688 C 891.660156 127.019531 891.796875 126.992188 891.9375 126.953125 C 892.210938 126.882812 892.492188 126.804688 892.773438 126.726562 C 892.835938 126.707031 892.902344 126.695312 892.964844 126.675781 C 893.023438 126.65625 893.085938 126.632812 893.148438 126.613281 C 893.425781 126.523438 893.703125 126.433594 893.976562 126.335938 C 894.109375 126.289062 894.238281 126.238281 894.371094 126.191406 C 894.582031 126.113281 894.789062 126.03125 895 125.949219 C 895.136719 125.894531 895.261719 125.835938 895.398438 125.785156 C 895.609375 125.6875 895.816406 125.601562 896.019531 125.5 C 896.136719 125.445312 896.253906 125.398438 896.371094 125.335938 C 896.414062 125.316406 896.460938 125.296875 896.5 125.277344 C 896.496094 126.976562 895.371094 128.546875 893.6875 129.058594 Z M 898.671875 119.089844 C 898.285156 119.359375 897.882812 119.617188 897.453125 119.878906 L 896.957031 120.179688 C 896.675781 120.355469 896.59375 120.730469 896.765625 121.011719 C 896.914062 121.25 897.199219 121.355469 897.457031 121.277344 C 897.507812 121.261719 897.554688 121.234375 897.597656 121.207031 L 898.085938 120.910156 C 898.363281 120.742188 898.640625 120.570312 898.921875 120.390625 L 899.082031 121.238281 C 899.199219 121.84375 898.929688 122.457031 898.40625 122.800781 C 897.84375 123.167969 897.28125 123.503906 896.71875 123.800781 C 895.125 124.671875 893.34375 125.355469 891.527344 125.8125 C 891.160156 125.90625 890.792969 125.984375 890.429688 126.058594 C 889.703125 126.203125 888.96875 126.3125 888.238281 126.375 C 887.476562 126.445312 886.722656 126.484375 885.988281 126.480469 C 885.355469 126.484375 884.796875 126.121094 884.554688 125.558594 L 884.222656 124.769531 C 886.875 124.796875 889.511719 124.429688 892.0625 123.65625 C 892.808594 123.429688 893.550781 123.164062 894.28125 122.875 C 894.28125 122.875 894.6875 122.707031 895.203125 122.472656 C 895.511719 122.335938 895.648438 121.976562 895.511719 121.675781 C 895.382812 121.367188 895.019531 121.226562 894.714844 121.367188 C 894.214844 121.589844 893.820312 121.746094 893.820312 121.746094 C 893.132812 122.027344 892.421875 122.277344 891.710938 122.496094 C 889.105469 123.285156 886.414062 123.632812 883.703125 123.539062 L 882.9375 121.75 C 882.976562 121.75 883.007812 121.75 883.046875 121.75 C 883.171875 121.753906 883.304688 121.753906 883.433594 121.753906 C 883.671875 121.753906 883.914062 121.757812 884.152344 121.75 C 884.296875 121.75 884.441406 121.742188 884.585938 121.738281 C 884.8125 121.726562 885.035156 121.714844 885.257812 121.703125 C 885.410156 121.695312 885.558594 121.683594 885.707031 121.671875 C 885.929688 121.652344 886.144531 121.632812 886.363281 121.609375 C 886.519531 121.59375 886.664062 121.574219 886.816406 121.554688 C 887.035156 121.53125 887.253906 121.5 887.472656 121.464844 C 887.617188 121.445312 887.765625 121.425781 887.914062 121.398438 C 888.136719 121.363281 888.355469 121.316406 888.585938 121.273438 C 888.722656 121.25 888.859375 121.21875 889.003906 121.1875 C 889.246094 121.140625 889.488281 121.078125 889.730469 121.023438 C 889.847656 120.996094 889.960938 120.96875 890.078125 120.9375 C 890.4375 120.847656 890.792969 120.746094 891.148438 120.640625 C 891.496094 120.535156 891.835938 120.425781 892.171875 120.304688 C 892.28125 120.269531 892.394531 120.222656 892.503906 120.183594 C 892.730469 120.101562 892.953125 120.023438 893.171875 119.929688 C 893.300781 119.878906 893.433594 119.824219 893.5625 119.773438 C 893.757812 119.6875 893.960938 119.609375 894.160156 119.515625 C 894.292969 119.457031 894.429688 119.398438 894.554688 119.332031 C 894.75 119.242188 894.9375 119.152344 895.125 119.066406 C 895.257812 119 895.386719 118.929688 895.519531 118.863281 C 895.707031 118.769531 895.890625 118.667969 896.070312 118.570312 C 896.199219 118.496094 896.332031 118.425781 896.460938 118.351562 C 896.640625 118.242188 896.824219 118.136719 897 118.027344 C 897.125 117.953125 897.246094 117.882812 897.363281 117.808594 C 897.554688 117.6875 897.746094 117.558594 897.933594 117.433594 C 898.039062 117.363281 898.144531 117.292969 898.25 117.222656 C 898.273438 117.210938 898.292969 117.199219 898.3125 117.179688 Z M 898.671875 119.089844 " fill-opacity="1" fill-rule="nonzero"/></g></g></g><g clip-path="url(#clip-20)"><g clip-path="url(#clip-21)"><g clip-path="url(#clip-22)"><path fill="rgb(16.079712%, 19.60907%, 25.489807%)" d="M 875.675781 69.664062 C 875.996094 69.566406 876.179688 69.230469 876.082031 68.910156 L 874.769531 64.585938 C 874.671875 64.265625 874.335938 64.085938 874.015625 64.183594 C 873.695312 64.28125 873.511719 64.621094 873.609375 64.9375 L 874.921875 69.261719 C 875.019531 69.582031 875.359375 69.761719 875.675781 69.664062 Z M 875.675781 69.664062 " fill-opacity="1" fill-rule="nonzero"/></g></g></g><g clip-path="url(#clip-23)"><g clip-path="url(#clip-24)"><g clip-path="url(#clip-25)"><path fill="rgb(16.079712%, 19.60907%, 25.489807%)" d="M 860.507812 81.695312 C 860.65625 81.773438 860.820312 81.785156 860.96875 81.742188 C 861.117188 81.695312 861.25 81.59375 861.328125 81.449219 C 861.484375 81.152344 861.375 80.785156 861.078125 80.628906 L 857.097656 78.5 C 856.804688 78.339844 856.4375 78.453125 856.277344 78.75 C 856.121094 79.042969 856.230469 79.410156 856.527344 79.566406 Z M 860.507812 81.695312 " fill-opacity="1" fill-rule="nonzero"/></g></g></g><g clip-path="url(#clip-26)"><g clip-path="url(#clip-27)"><g clip-path="url(#clip-28)"><path fill="rgb(16.079712%, 19.60907%, 25.489807%)" d="M 858.757812 99.527344 L 854.4375 100.839844 C 854.121094 100.9375 853.9375 101.273438 854.035156 101.59375 C 854.132812 101.914062 854.472656 102.097656 854.792969 102 L 859.109375 100.6875 C 859.429688 100.589844 859.609375 100.253906 859.515625 99.933594 C 859.417969 99.613281 859.078125 99.429688 858.757812 99.527344 Z M 858.757812 99.527344 " fill-opacity="1" fill-rule="nonzero"/></g></g></g><g clip-path="url(#clip-29)"><g clip-path="url(#clip-30)"><g clip-path="url(#clip-31)"><path fill="rgb(16.079712%, 19.60907%, 25.489807%)" d="M 870.476562 114.539062 L 868.351562 118.519531 C 868.191406 118.816406 868.304688 119.183594 868.597656 119.339844 C 868.746094 119.417969 868.914062 119.429688 869.058594 119.386719 C 869.207031 119.339844 869.339844 119.238281 869.417969 119.09375 L 871.546875 115.109375 C 871.703125 114.816406 871.589844 114.449219 871.296875 114.289062 C 871 114.132812 870.632812 114.242188 870.476562 114.539062 Z M 870.476562 114.539062 " fill-opacity="1" fill-rule="nonzero"/></g></g></g><g clip-path="url(#clip-32)"><g clip-path="url(#clip-33)"><g clip-path="url(#clip-34)"><path fill="rgb(16.079712%, 19.60907%, 25.489807%)" d="M 904.941406 104.078125 C 904.648438 103.917969 904.28125 104.03125 904.125 104.328125 C 903.964844 104.621094 904.078125 104.988281 904.371094 105.148438 L 908.351562 107.273438 C 908.5 107.355469 908.667969 107.367188 908.816406 107.320312 C 908.964844 107.273438 909.09375 107.171875 909.171875 107.027344 C 909.332031 106.730469 909.21875 106.363281 908.925781 106.207031 Z M 904.941406 104.078125 " fill-opacity="1" fill-rule="nonzero"/></g></g></g><g clip-path="url(#clip-35)"><g clip-path="url(#clip-36)"><g clip-path="url(#clip-37)"><path fill="rgb(16.079712%, 19.60907%, 25.489807%)" d="M 910.660156 83.777344 L 906.339844 85.085938 C 906.019531 85.183594 905.839844 85.523438 905.9375 85.84375 C 906.035156 86.164062 906.375 86.34375 906.695312 86.246094 L 911.011719 84.933594 C 911.332031 84.839844 911.511719 84.5 911.417969 84.179688 C 911.320312 83.859375 910.980469 83.679688 910.660156 83.777344 Z M 910.660156 83.777344 " fill-opacity="1" fill-rule="nonzero"/></g></g></g><g clip-path="url(#clip-38)"><g clip-path="url(#clip-39)"><g clip-path="url(#clip-40)"><path fill="rgb(16.079712%, 19.60907%, 25.489807%)" d="M 885.226562 90.496094 C 885.070312 90.246094 884.792969 89.820312 884.503906 89.386719 C 884.566406 89.496094 884.625 89.585938 884.675781 89.664062 C 884.976562 90.136719 885.285156 90.625 885.609375 91.089844 C 885.480469 90.894531 885.351562 90.695312 885.226562 90.496094 Z M 892.617188 76.570312 C 892.605469 76.605469 892.597656 76.636719 892.59375 76.671875 C 892.597656 76.636719 892.609375 76.609375 892.621094 76.574219 C 892.632812 76.507812 892.648438 76.433594 892.667969 76.363281 C 892.648438 76.433594 892.632812 76.5 892.617188 76.570312 Z M 894.851562 68.652344 L 892.070312 70.058594 L 894.875 68.644531 Z M 896.125 69.398438 C 896.078125 69.519531 896.03125 69.636719 895.984375 69.757812 C 896.039062 69.636719 896.089844 69.511719 896.136719 69.382812 C 896.132812 69.382812 896.128906 69.390625 896.125 69.398438 Z M 896.125 69.398438 " fill-opacity="1" fill-rule="nonzero"/></g></g></g><g clip-path="url(#clip-41)"><g clip-path="url(#clip-42)"><g clip-path="url(#clip-43)"><path fill="rgb(16.079712%, 19.60907%, 25.489807%)" d="M 897.085938 65.535156 C 896.691406 65.371094 896.253906 65.34375 895.84375 65.46875 C 895.746094 65.5 895.640625 65.535156 895.546875 65.585938 L 890.976562 67.894531 C 890.542969 68.117188 890.21875 68.488281 890.070312 68.949219 C 889.917969 69.414062 889.960938 69.902344 890.171875 70.335938 C 890.578125 71.128906 891.480469 71.511719 892.320312 71.257812 C 892.425781 71.226562 892.527344 71.1875 892.621094 71.140625 L 892.964844 70.964844 C 892.621094 71.976562 892.3125 72.980469 892.035156 73.972656 C 892.035156 73.972656 892.035156 73.972656 892.039062 73.976562 C 891.863281 74.59375 891.703125 75.207031 891.554688 75.808594 C 890.6875 79.3125 890.195312 82.554688 889.789062 85.21875 C 889.59375 86.507812 889.300781 88.425781 889.019531 89.601562 C 888.859375 89.394531 888.695312 89.160156 888.535156 88.929688 C 888.488281 88.859375 888.445312 88.792969 888.40625 88.726562 C 888.132812 88.335938 887.898438 87.953125 887.746094 87.71875 C 887.65625 87.574219 887.566406 87.4375 887.476562 87.292969 C 887.464844 87.273438 887.453125 87.257812 887.441406 87.242188 C 886.074219 85.109375 884.507812 82.9375 882.242188 83.625 C 879.71875 84.390625 879.996094 87.632812 880.3125 91.394531 C 880.359375 91.988281 880.480469 93.355469 880.496094 94.433594 C 880.203125 94.050781 879.910156 93.625 879.710938 93.351562 C 878.421875 91.5 876.8125 89.199219 874.441406 89.921875 C 871.921875 90.6875 872.210938 94.082031 872.511719 97.675781 C 872.582031 98.535156 872.789062 101 872.644531 101.890625 C 872.011719 102.332031 871.703125 103.144531 871.9375 103.917969 C 872.042969 104.265625 872.238281 104.554688 872.492188 104.773438 C 872.953125 105.160156 873.589844 105.316406 874.203125 105.128906 C 876.71875 104.367188 876.433594 100.96875 876.132812 97.375 C 876.082031 96.78125 875.964844 95.421875 875.949219 94.339844 C 876.242188 94.730469 876.535156 95.148438 876.734375 95.429688 C 878.03125 97.28125 879.632812 99.578125 882.011719 98.859375 C 884.527344 98.09375 884.25 94.855469 883.933594 91.09375 C 883.890625 90.535156 883.78125 89.308594 883.75 88.265625 C 883.953125 88.546875 884.148438 88.835938 884.308594 89.097656 C 884.339844 89.140625 884.371094 89.179688 884.398438 89.222656 C 884.433594 89.28125 884.46875 89.335938 884.503906 89.386719 C 884.792969 89.820312 885.070312 90.25 885.226562 90.496094 C 885.351562 90.695312 885.480469 90.894531 885.609375 91.089844 C 886.835938 92.859375 888.257812 94.347656 890.179688 93.761719 C 892.261719 93.132812 892.65625 90.515625 893.382812 85.773438 C 893.707031 83.625 894.097656 81.09375 894.695312 78.359375 C 894.867188 77.582031 895.054688 76.785156 895.261719 75.980469 C 895.265625 75.980469 895.265625 75.976562 895.265625 75.976562 C 895.535156 74.941406 895.832031 73.898438 896.175781 72.84375 C 896.535156 73.675781 897.46875 74.128906 898.363281 73.855469 C 899.324219 73.5625 899.867188 72.550781 899.582031 71.59375 L 898.113281 66.6875 C 897.953125 66.164062 897.578125 65.746094 897.085938 65.535156 Z M 898.421875 71.945312 C 898.519531 72.265625 898.335938 72.597656 898.015625 72.695312 L 898.011719 72.695312 C 897.691406 72.792969 897.359375 72.609375 897.261719 72.289062 L 896.398438 69.410156 L 896.398438 69.40625 C 896.355469 69.289062 896.210938 69.269531 896.152344 69.367188 C 896.144531 69.367188 896.140625 69.375 896.136719 69.382812 C 896.089844 69.511719 896.039062 69.632812 895.984375 69.757812 C 895.933594 69.882812 895.882812 70.003906 895.839844 70.132812 C 895.835938 70.144531 895.832031 70.152344 895.828125 70.160156 C 895.683594 70.539062 895.550781 70.914062 895.417969 71.292969 C 895.285156 71.667969 895.160156 72.042969 895.039062 72.417969 C 894.726562 73.371094 894.449219 74.316406 894.207031 75.238281 L 894.207031 75.242188 C 894.125 75.539062 894.050781 75.835938 893.980469 76.125 C 893.898438 76.433594 893.824219 76.734375 893.753906 77.042969 C 893.722656 77.171875 893.695312 77.292969 893.667969 77.421875 C 893.613281 77.648438 893.566406 77.863281 893.519531 78.082031 C 893.285156 79.113281 893.09375 80.125 892.917969 81.089844 C 892.804688 81.710938 892.703125 82.324219 892.605469 82.917969 C 892.453125 83.851562 892.3125 84.75 892.1875 85.585938 C 891.539062 89.847656 891.179688 92.191406 889.828125 92.601562 C 888.273438 93.074219 887.023438 91.105469 885.703125 89.015625 C 884.867188 87.710938 883.617188 85.742188 882.945312 85.945312 C 882.304688 86.140625 882.578125 89.425781 882.726562 91.191406 C 883 94.429688 883.234375 97.21875 881.65625 97.699219 C 880.121094 98.164062 878.902344 96.425781 877.726562 94.738281 C 876.886719 93.53125 875.835938 92.03125 875.144531 92.238281 C 874.503906 92.433594 874.777344 95.714844 874.925781 97.476562 C 875.195312 100.707031 875.425781 103.492188 873.851562 103.96875 C 873.53125 104.066406 873.195312 103.890625 873.09375 103.566406 C 873 103.246094 873.179688 102.90625 873.5 102.808594 C 874.140625 102.613281 873.863281 99.335938 873.714844 97.578125 C 873.441406 94.347656 873.210938 91.558594 874.792969 91.078125 C 876.324219 90.617188 877.542969 92.355469 878.71875 94.042969 C 879.566406 95.25 880.609375 96.75 881.304688 96.539062 C 881.945312 96.34375 881.667969 93.058594 881.519531 91.292969 C 881.246094 88.058594 881.011719 85.265625 882.59375 84.785156 C 884.148438 84.3125 885.398438 86.285156 886.71875 88.367188 C 887.550781 89.671875 888.804688 91.648438 889.476562 91.441406 C 890.097656 91.253906 890.570312 88.148438 890.988281 85.40625 C 891.246094 83.699219 891.539062 81.765625 891.941406 79.695312 C 892.066406 79.054688 892.203125 78.40625 892.351562 77.738281 C 892.425781 77.386719 892.507812 77.03125 892.597656 76.671875 C 892.597656 76.636719 892.605469 76.605469 892.617188 76.570312 C 892.632812 76.5 892.648438 76.433594 892.667969 76.363281 C 892.703125 76.207031 892.742188 76.050781 892.789062 75.882812 C 892.839844 75.679688 892.890625 75.46875 892.941406 75.261719 C 893.003906 75.03125 893.066406 74.804688 893.132812 74.578125 L 893.128906 74.570312 C 893.351562 73.738281 893.601562 72.894531 893.882812 72.042969 C 893.910156 71.953125 893.941406 71.867188 893.972656 71.777344 C 894.070312 71.453125 894.183594 71.136719 894.300781 70.8125 C 894.429688 70.425781 894.570312 70.042969 894.726562 69.652344 C 894.828125 69.382812 894.933594 69.109375 895.042969 68.835938 C 895.089844 68.71875 894.984375 68.609375 894.875 68.644531 L 892.070312 70.058594 C 892.050781 70.074219 892.019531 70.082031 891.996094 70.089844 C 891.945312 70.109375 891.886719 70.121094 891.835938 70.117188 C 891.8125 70.125 891.792969 70.125 891.773438 70.117188 C 891.734375 70.125 891.695312 70.117188 891.660156 70.109375 C 891.621094 70.101562 891.585938 70.085938 891.558594 70.078125 C 891.460938 70.035156 891.378906 69.972656 891.316406 69.882812 C 891.292969 69.859375 891.273438 69.828125 891.253906 69.792969 C 891.105469 69.492188 891.222656 69.125 891.527344 68.976562 L 896.097656 66.664062 C 896.125 66.648438 896.160156 66.640625 896.195312 66.628906 C 896.335938 66.585938 896.476562 66.59375 896.605469 66.648438 C 896.773438 66.71875 896.898438 66.859375 896.949219 67.035156 Z M 898.421875 71.945312 " fill-opacity="1" fill-rule="nonzero"/></g></g></g><path fill="rgb(16.079712%, 19.60907%, 25.489807%)" d="M 895.597656 149.996094 C 882.121094 152.519531 868.011719 149.871094 854.785156 141.929688 C 829.339844 126.546875 815.988281 96.542969 822.160156 69.058594 C 835.136719 12.324219 842.820312 -37.347656 806.035156 -70.503906 C 792.8125 -82.480469 787.269531 -99.375 790.164062 -119.296875 C 794.320312 -148.671875 815.359375 -177.164062 832.488281 -185.359375 L 832.992188 -184.222656 L 832.488281 -185.359375 C 865.746094 -201.371094 876.578125 -197.460938 894.714844 -191.03125 C 904.039062 -187.5 913.738281 -184.726562 923.5625 -182.960938 C 944.851562 -179.054688 953.039062 -167.707031 964.5 -151.824219 C 976.214844 -135.558594 990.703125 -115.386719 1025.214844 -92.316406 C 1038.316406 -83.492188 1045.496094 -70.882812 1046.378906 -54.871094 C 1048.269531 -21.210938 1022.570312 21.527344 1000.777344 51.40625 C 975.207031 86.332031 943.71875 119.109375 923.6875 136.128906 C 915.625 143.191406 905.925781 147.980469 895.597656 149.996094 Z M 861.460938 -193.175781 C 854.15625 -191.789062 845.210938 -188.761719 833.625 -183.089844 C 813.46875 -173.382812 795.832031 -141.484375 792.683594 -119.042969 C 790.796875 -105.804688 791.929688 -86.894531 807.800781 -72.394531 C 845.589844 -38.355469 837.78125 12.074219 824.679688 69.5625 C 818.632812 96.039062 831.609375 124.78125 856.046875 139.660156 C 877.835938 152.898438 902.402344 150.878906 921.925781 134.238281 C 955.808594 105.367188 1047.386719 7.03125 1043.859375 -54.746094 C 1042.976562 -70 1036.175781 -81.851562 1023.832031 -90.171875 C 988.9375 -113.496094 973.695312 -134.800781 962.484375 -150.308594 C 951.023438 -166.195312 943.464844 -176.785156 923.183594 -180.441406 C 913.234375 -182.332031 903.40625 -184.980469 893.960938 -188.636719 C 882.75 -192.542969 874.4375 -195.570312 861.460938 -193.175781 Z M 861.460938 -193.175781 " fill-opacity="1" fill-rule="nonzero"/></svg>