<?xml version="1.0" encoding="UTF-8"?><svg xmlns="http://www.w3.org/2000/svg" xmlns:xlink="http://www.w3.org/1999/xlink" contentScriptType="text/ecmascript" width="1440" zoomAndPan="magnify" contentStyleType="text/css" viewBox="0 0 1440 809.999993" height="809.999993" preserveAspectRatio="xMidYMid meet" version="1.0"><defs><filter x="0%" y="0%" width="100%" xmlns:xlink="http://www.w3.org/1999/xlink" xlink:type="simple" xlink:actuate="onLoad" height="100%" id="filter-remove-color" xlink:show="other"><feColorMatrix values="0 0 0 0 1 0 0 0 0 1 0 0 0 0 1 0 0 0 1 0" color-interpolation-filters="sRGB"/></filter><mask id="mask-0"><g filter="url(#filter-remove-color)"><rect x="-144" width="1728" fill="rgb(0%, 0%, 0%)" y="-80.999999" height="971.999992" fill-opacity="0.098"/></g></mask><clipPath id="clip-0"><path d="M 133 143 L 727 143 L 727 522 L 133 522 Z M 133 143 " clip-rule="nonzero"/></clipPath><clipPath id="clip-1"><path d="M 482.246094 797.339844 L -2.132812 498.300781 L 307.9375 -3.945312 L 792.316406 295.09375 Z M 482.246094 797.339844 " clip-rule="nonzero"/></clipPath><clipPath id="clip-2"><path d="M 482.246094 797.339844 L -2.132812 498.300781 L 307.9375 -3.945312 L 792.316406 295.09375 Z M 482.246094 797.339844 " clip-rule="nonzero"/></clipPath><clipPath id="clip-3"><rect x="0" width="789" y="0" height="522"/></clipPath><mask id="mask-1"><g filter="url(#filter-remove-color)"><rect x="-144" width="1728" fill="rgb(0%, 0%, 0%)" y="-80.999999" height="971.999992" fill-opacity="0.098"/></g></mask><clipPath id="clip-4"><path d="M 32 0 L 809 0 L 809 588 L 32 588 Z M 32 0 " clip-rule="nonzero"/></clipPath><clipPath id="clip-5"><path d="M 61.324219 636.738281 L -1.210938 -107.640625 L 770.820312 -172.496094 L 833.355469 571.882812 Z M 61.324219 636.738281 " clip-rule="nonzero"/></clipPath><clipPath id="clip-6"><path d="M 61.324219 636.738281 L -1.210938 -107.640625 L 770.820312 -172.496094 L 833.355469 571.882812 Z M 61.324219 636.738281 " clip-rule="nonzero"/></clipPath><clipPath id="clip-7"><rect x="0" width="820" y="0" height="634"/></clipPath><mask id="mask-2"><g filter="url(#filter-remove-color)"><rect x="-144" width="1728" fill="rgb(0%, 0%, 0%)" y="-80.999999" height="971.999992" fill-opacity="0.098"/></g></mask><clipPath id="clip-8"><path d="M 47 0 L 768 0 L 768 458 L 47 458 Z M 47 0 " clip-rule="nonzero"/></clipPath><clipPath id="clip-9"><path d="M 328.109375 642.285156 L -127.480469 134.109375 L 399.125 -338.003906 L 854.714844 170.175781 Z M 328.109375 642.285156 " clip-rule="nonzero"/></clipPath><clipPath id="clip-10"><path d="M 328.109375 642.285156 L -127.480469 134.109375 L 399.125 -338.003906 L 854.714844 170.175781 Z M 328.109375 642.285156 " clip-rule="nonzero"/></clipPath><clipPath id="clip-11"><rect x="0" width="851" y="0" height="640"/></clipPath><mask id="mask-3"><g filter="url(#filter-remove-color)"><rect x="-144" width="1728" fill="rgb(0%, 0%, 0%)" y="-80.999999" height="971.999992" fill-opacity="0.098"/></g></mask><clipPath id="clip-12"><path d="M 30 73 L 603 73 L 603 578 L 30 578 Z M 30 73 " clip-rule="nonzero"/></clipPath><clipPath id="clip-13"><path d="M 551.761719 -1.742188 L 654.046875 533.066406 L 99.351562 639.152344 L -2.933594 104.347656 Z M 551.761719 -1.742188 " clip-rule="nonzero"/></clipPath><clipPath id="clip-14"><path d="M 551.761719 -1.742188 L 654.046875 533.066406 L 99.351562 639.152344 L -2.933594 104.347656 Z M 551.761719 -1.742188 " clip-rule="nonzero"/></clipPath><clipPath id="clip-15"><rect x="0" width="653" y="0" height="578"/></clipPath><clipPath id="clip-16"><path d="M 718.5 0 L 721.5 0 L 721.5 810 L 718.5 810 Z M 718.5 0 " clip-rule="nonzero"/></clipPath><clipPath id="clip-17"><path d="M 1344 489 L 1440 489 L 1440 636 L 1344 636 Z M 1344 489 " clip-rule="nonzero"/></clipPath><clipPath id="clip-18"><path d="M 1306.394531 536.464844 L 1418.355469 457.082031 L 1500.34375 572.71875 L 1388.378906 652.101562 Z M 1306.394531 536.464844 " clip-rule="nonzero"/></clipPath><clipPath id="clip-19"><path d="M 1306.394531 536.464844 L 1418.355469 457.082031 L 1500.34375 572.71875 L 1388.378906 652.101562 Z M 1306.394531 536.464844 " clip-rule="nonzero"/></clipPath></defs><rect x="-144" width="1728" fill="rgb(100%, 100%, 100%)" y="-80.999999" height="971.999992" fill-opacity="1"/><rect x="-144" width="1728" fill="rgb(41.958618%, 83.139038%, 80.389404%)" y="-80.999999" height="971.999992" fill-opacity="1"/><g mask="url(#mask-0)"><g transform="matrix(1, 0, 0, 1, 536, 288)"><g id="source-5" clip-path="url(#clip-3)"><g clip-path="url(#clip-0)"><g clip-path="url(#clip-1)"><g clip-path="url(#clip-2)"><path fill="rgb(1.568604%, 20.388794%, 36.079407%)" d="M 151.347656 262.710938 C 129.960938 318.664062 130.605469 379.761719 138.300781 438.421875 C 145.132812 490.175781 159.40625 541.539062 187.542969 585.929688 C 201.113281 607.476562 217.683594 629.765625 238.703125 644.402344 C 259.621094 658.980469 284.148438 668.164062 309.394531 671.691406 C 334.941406 675.40625 361.71875 673.089844 385.988281 664.511719 C 413.527344 654.90625 436.5625 637.113281 459.8125 619.867188 C 512.558594 580.644531 572.996094 553.648438 626.144531 514.671875 C 673.167969 480.230469 714.632812 433.484375 724.941406 374.160156 C 734.691406 317.535156 708.277344 265.195312 666.996094 227.515625 C 619.675781 184.582031 557.730469 161.304688 495.289062 151.164062 C 464 145.984375 432.261719 143.992188 400.511719 143.375 C 369.121094 142.84375 337.441406 142.554688 306.195312 145.15625 C 277.878906 147.496094 250.363281 153.929688 226.125 169.179688 C 203.074219 183.636719 183.789062 203.882812 169.277344 226.9375 C 162.054688 238.414062 156.257812 250.496094 151.347656 262.710938 " fill-opacity="1" fill-rule="nonzero"/></g></g></g></g></g></g><g mask="url(#mask-1)"><g transform="matrix(1, 0, 0, 1, 620, 0.000000000000039746)"><g id="source-8" clip-path="url(#clip-7)"><g clip-path="url(#clip-4)"><g clip-path="url(#clip-5)"><g clip-path="url(#clip-6)"><path fill="rgb(1.568604%, 20.388794%, 36.079407%)" d="M 367.203125 -129.585938 C 291.460938 -108.480469 227.488281 -60.113281 171.589844 -6.21875 C 122.308594 41.378906 79.253906 96.519531 54.367188 160.847656 C 42.226562 191.976562 31.640625 226.855469 32.601562 260.453125 C 33.546875 293.898438 43 326.9375 58.984375 356.328125 C 75.003906 386.175781 98.351562 412.617188 126.347656 431.527344 C 157.984375 453.082031 194.738281 463.496094 231.085938 474.566406 C 313.652344 499.605469 389.316406 542.292969 471.933594 567.945312 C 544.984375 590.675781 626.679688 597.9375 697.332031 562.511719 C 764.695312 528.605469 799.3125 459.890625 806.851562 386.933594 C 815.222656 303.507812 791.429688 219.988281 753.386719 146.203125 C 734.429688 109.152344 711.761719 74.117188 687.625 40.136719 C 663.683594 6.609375 639.265625 -27.039062 612.121094 -57.972656 C 587.554688 -86.015625 559.285156 -110.027344 524.273438 -123.691406 C 491.023438 -136.730469 454.605469 -141.273438 418.949219 -138.589844 C 401.199219 -137.253906 383.921875 -133.941406 367.203125 -129.585938 " fill-opacity="1" fill-rule="nonzero"/></g></g></g></g></g></g><g mask="url(#mask-2)"><g transform="matrix(1, 0, 0, 1, 0, 0.000000000000039746)"><g id="source-11" clip-path="url(#clip-11)"><g clip-path="url(#clip-8)"><g clip-path="url(#clip-9)"><g clip-path="url(#clip-10)"><path fill="rgb(1.568604%, 20.388794%, 36.079407%)" d="M 128.773438 -84.621094 C 85.234375 -27.558594 65.277344 42.898438 54.253906 112.945312 C 44.574219 174.757812 43.589844 238.644531 60.898438 299.226562 C 69.203125 328.601562 80.707031 359.847656 99.914062 383.8125 C 119.023438 407.667969 144.113281 426.550781 171.941406 439.175781 C 200.054688 452.117188 231.625 458.542969 262.433594 456.921875 C 297.347656 455.226562 329.859375 442.589844 362.429688 430.660156 C 436.359375 403.472656 514.984375 392.953125 589.292969 366.1875 C 655.023438 342.558594 718.527344 302.894531 750.476562 238.195312 C 780.863281 176.414062 768.226562 107.277344 733.53125 49.949219 C 693.671875 -15.46875 630.335938 -63.253906 561.980469 -96.101562 C 527.761719 -112.679688 491.953125 -125.742188 455.652344 -137.226562 C 419.746094 -148.492188 383.425781 -159.582031 346.617188 -167.195312 C 313.273438 -174.117188 279.457031 -176.0625 246.429688 -166.757812 C 215.027344 -157.964844 185.996094 -141.238281 161.503906 -119.660156 C 149.3125 -108.917969 138.554688 -96.996094 128.773438 -84.621094 " fill-opacity="1" fill-rule="nonzero"/></g></g></g></g></g></g><g mask="url(#mask-3)"><g transform="matrix(1, 0, 0, 1, 129, 232)"><g id="source-14" clip-path="url(#clip-15)"><g clip-path="url(#clip-12)"><g clip-path="url(#clip-13)"><g clip-path="url(#clip-14)"><path fill="rgb(1.568604%, 20.388794%, 36.079407%)" d="M 388.660156 577.164062 C 441.949219 556.070312 484.625 516.113281 521.019531 472.769531 C 553.101562 434.496094 580.09375 391.226562 593.214844 342.695312 C 599.632812 319.199219 604.636719 293.105469 601.371094 268.824219 C 598.128906 244.652344 588.746094 221.425781 574.910156 201.347656 C 561.011719 180.933594 542.066406 163.554688 520.324219 151.988281 C 495.742188 138.785156 468.300781 134.046875 441.105469 128.804688 C 379.335938 116.972656 321.222656 91.820312 259.367188 79.546875 C 204.671875 68.660156 144.894531 69.648438 96.386719 100.730469 C 50.152344 130.464844 30.316406 182.921875 30.429688 236.386719 C 30.746094 297.5 54.382812 356.222656 87.605469 406.796875 C 104.183594 432.207031 123.300781 455.867188 143.394531 478.652344 C 163.316406 501.125 183.589844 523.648438 205.632812 543.992188 C 225.589844 562.441406 247.917969 577.683594 274.34375 584.910156 C 299.445312 591.816406 326.195312 592.324219 351.835938 587.652344 C 364.601562 585.324219 376.871094 581.601562 388.660156 577.164062 " fill-opacity="1" fill-rule="nonzero"/></g></g></g></g></g></g><path fill="rgb(88.62915%, 92.939758%, 94.509888%)" d="M 1381.5 666.335938 C 1369.074219 666.335938 1359 676.410156 1359 688.835938 C 1359 701.265625 1369.074219 711.335938 1381.5 711.335938 C 1393.925781 711.335938 1404 701.265625 1404 688.835938 C 1404 676.410156 1393.925781 666.335938 1381.5 666.335938 Z M 1381.5 666.335938 " fill-opacity="1" fill-rule="nonzero"/><g clip-path="url(#clip-16)"><path fill="rgb(88.62915%, 92.939758%, 94.509888%)" d="M 718.5 -16.5 L 721.5 -16.5 L 721.5 826.5 L 718.5 826.5 Z M 718.5 -16.5 " fill-opacity="1" fill-rule="nonzero"/></g><path fill="rgb(88.62915%, 92.939758%, 94.509888%)" d="M 720 133.539062 C 714.410156 133.539062 709.875 138.070312 709.875 143.664062 C 709.875 149.253906 714.410156 153.789062 720 153.789062 C 725.59375 153.789062 730.125 149.253906 730.125 143.664062 C 730.125 138.070312 725.59375 133.539062 720 133.539062 Z M 720 133.539062 " fill-opacity="1" fill-rule="nonzero"/><path fill="rgb(88.62915%, 92.939758%, 94.509888%)" d="M 720 307.761719 C 714.410156 307.761719 709.875 312.296875 709.875 317.886719 C 709.875 323.480469 714.410156 328.011719 720 328.011719 C 725.59375 328.011719 730.125 323.480469 730.125 317.886719 C 730.125 312.296875 725.59375 307.761719 720 307.761719 Z M 720 307.761719 " fill-opacity="1" fill-rule="nonzero"/><path fill="rgb(88.62915%, 92.939758%, 94.509888%)" d="M 720 481.988281 C 714.410156 481.988281 709.875 486.523438 709.875 492.113281 C 709.875 497.707031 714.410156 502.238281 720 502.238281 C 725.59375 502.238281 730.125 497.707031 730.125 492.113281 C 730.125 486.523438 725.59375 481.988281 720 481.988281 Z M 720 481.988281 " fill-opacity="1" fill-rule="nonzero"/><path fill="rgb(88.62915%, 92.939758%, 94.509888%)" d="M 720 656.214844 C 714.410156 656.214844 709.875 660.746094 709.875 666.339844 C 709.875 671.929688 714.410156 676.464844 720 676.464844 C 725.59375 676.464844 730.125 671.929688 730.125 666.339844 C 730.125 660.746094 725.59375 656.214844 720 656.214844 Z M 720 656.214844 " fill-opacity="1" fill-rule="nonzero"/><path fill="rgb(88.62915%, 92.939758%, 94.509888%)" d="M 28.046875 47.585938 C -1.359375 47.585938 -25.203125 71.425781 -25.203125 100.835938 C -25.203125 130.246094 -1.359375 154.085938 28.046875 154.085938 C 57.457031 154.085938 81.296875 130.246094 81.296875 100.835938 C 81.296875 71.425781 57.457031 47.585938 28.046875 47.585938 Z M 28.046875 47.585938 " fill-opacity="1" fill-rule="nonzero"/><g clip-path="url(#clip-17)"><g clip-path="url(#clip-18)"><g clip-path="url(#clip-19)"><path fill="rgb(88.62915%, 92.939758%, 94.509888%)" d="M 1456.054688 513.105469 C 1445.679688 503.136719 1432.082031 497.570312 1418.363281 493.792969 C 1406.253906 490.46875 1393.527344 488.832031 1381.039062 490.917969 C 1374.984375 491.914062 1368.484375 493.5 1363.257812 496.792969 C 1358.054688 500.0625 1353.703125 504.640625 1350.539062 509.90625 C 1347.304688 515.21875 1345.292969 521.367188 1344.898438 527.546875 C 1344.429688 534.546875 1346.195312 541.3125 1347.820312 548.078125 C 1351.53125 563.429688 1351.808594 579.34375 1355.425781 594.765625 C 1358.617188 608.402344 1365.058594 621.957031 1377.226562 629.785156 C 1388.847656 637.238281 1402.9375 636.277344 1415.179688 630.652344 C 1429.15625 624.179688 1440.160156 612.625 1448.300781 599.738281 C 1452.402344 593.289062 1455.839844 586.445312 1458.972656 579.464844 C 1462.054688 572.558594 1465.109375 565.566406 1467.480469 558.402344 C 1469.632812 551.90625 1470.808594 545.210938 1469.714844 538.414062 C 1468.691406 531.957031 1466.023438 525.789062 1462.289062 520.421875 C 1460.425781 517.746094 1458.296875 515.332031 1456.054688 513.105469 " fill-opacity="1" fill-rule="nonzero"/></g></g></g></svg>